<?xml version="1.0" encoding="UTF-8" standalone="no"?>
<!DOCTYPE svg PUBLIC "-//W3C//DTD SVG 1.1//EN"
 "http://www.w3.org/Graphics/SVG/1.1/DTD/svg11.dtd">
<!-- Generated by graphviz version 2.44.0 (0)
 -->
<!-- Title: pipeline_dag_20260303_152832 Pages: 1 -->
<svg width="1648pt" height="1086pt"
 viewBox="0.00 0.00 1648.00 1086.20" xmlns="http://www.w3.org/2000/svg" xmlns:xlink="http://www.w3.org/1999/xlink">
<g id="graph0" class="graph" transform="scale(1 1) rotate(0) translate(4 1082.2)">
<title>pipeline_dag_20260303_152832</title>
<polygon fill="white" stroke="transparent" points="-4,4 -4,-1082.2 1644,-1082.2 1644,4 -4,4"/>
<!-- v0 -->
<g id="node1" class="node">
<title>v0</title>
<ellipse fill="black" stroke="black" cx="358" cy="-1059.6" rx="3.6" ry="3.6"/>
<text text-anchor="middle" x="292.4" y="-1067" font-family="Times-Roman" font-size="14.00">Channel.fromPath</text>
</g>
<!-- v6 -->
<g id="node2" class="node">
<title>v6</title>
<ellipse fill="none" stroke="black" cx="724" cy="-987" rx="108.58" ry="18"/>
<text text-anchor="middle" x="724" y="-983.3" font-family="Times-Roman" font-size="14.00">PREPROCESSING_TFA</text>
</g>
<!-- v0&#45;&gt;v6 -->
<g id="edge1" class="edge">
<title>v0&#45;&gt;v6</title>
<path fill="none" stroke="black" d="M361.62,-1057.9C387.64,-1052.88 547.83,-1021.98 646.32,-1002.98"/>
<polygon fill="black" stroke="black" points="647.08,-1006.4 656.24,-1001.07 645.76,-999.53 647.08,-1006.4"/>
<text text-anchor="middle" x="571" y="-1026.8" font-family="Times-Roman" font-size="14.00">input_ch</text>
</g>
<!-- v31 -->
<g id="node12" class="node">
<title>v31</title>
<ellipse fill="none" stroke="black" cx="284" cy="-232.6" rx="143.77" ry="18"/>
<text text-anchor="middle" x="284" y="-228.9" font-family="Times-Roman" font-size="14.00">MODULE_VIEWER_HEATMAPS</text>
</g>
<!-- v0&#45;&gt;v31 -->
<g id="edge52" class="edge">
<title>v0&#45;&gt;v31</title>
<path fill="none" stroke="black" d="M354.39,-1058.61C325.01,-1058.68 125.01,-1058.39 69,-1038 33.41,-1025.05 0,-1025.87 0,-988 0,-988 0,-988 0,-565.5 0,-499.26 75.87,-292.42 104,-268.6 115.08,-259.22 141.1,-252.08 170.02,-246.78"/>
<polygon fill="black" stroke="black" points="170.67,-250.22 179.92,-245.05 169.47,-243.32 170.67,-250.22"/>
<text text-anchor="middle" x="30" y="-649.8" font-family="Times-Roman" font-size="14.00">input_ch</text>
</g>
<!-- v49 -->
<g id="node9" class="node">
<title>v49</title>
<ellipse fill="none" stroke="black" cx="814" cy="-58.6" rx="96.68" ry="18"/>
<text text-anchor="middle" x="814" y="-54.9" font-family="Times-Roman" font-size="14.00">SUMMARY_REPORT</text>
</g>
<!-- v6&#45;&gt;v49 -->
<g id="edge13" class="edge">
<title>v6&#45;&gt;v49</title>
<path fill="none" stroke="black" d="M706.92,-969.11C695.29,-955.76 682,-936.02 682,-915.5 682,-915.5 682,-915.5 682,-652.5 682,-624.9 688.76,-610.19 668,-592 636.43,-564.34 509.21,-604.14 480,-574 410.93,-502.73 442.92,-212.7 494,-127.6 506.22,-107.25 514.09,-103.75 536,-94.6 567.54,-81.43 648.23,-72.17 714.6,-66.5"/>
<polygon fill="black" stroke="black" points="715.03,-69.98 724.7,-65.65 714.45,-63 715.03,-69.98"/>
</g>
<!-- v11 -->
<g id="node11" class="node">
<title>v11</title>
<ellipse fill="none" stroke="black" cx="477" cy="-914.5" rx="3.5" ry="3.5"/>
<text text-anchor="middle" x="443.5" y="-921.8" font-family="Times-Roman" font-size="14.00">combine</text>
</g>
<!-- v6&#45;&gt;v11 -->
<g id="edge7" class="edge">
<title>v6&#45;&gt;v11</title>
<path fill="none" stroke="black" d="M655.64,-972.95C631.64,-967.41 604.75,-960.1 581,-951 567.82,-945.95 566.12,-941.21 553,-936 531.76,-927.58 505.85,-921.41 490.43,-918.15"/>
<polygon fill="black" stroke="black" points="490.76,-914.65 480.27,-916.1 489.38,-921.51 490.76,-914.65"/>
</g>
<!-- v6&#45;&gt;v31 -->
<g id="edge8" class="edge">
<title>v6&#45;&gt;v31</title>
<path fill="none" stroke="black" d="M665.05,-971.85C648.84,-966.61 631.69,-959.75 617,-951 546.51,-909 544.28,-878.56 483,-824 456.61,-800.5 443.88,-800.75 422,-773 377.45,-716.5 366.72,-697.98 350,-628 337.3,-574.83 355.38,-559.29 349,-505 344.6,-467.54 330,-460.01 330,-422.3 330,-422.3 330,-422.3 330,-304.2 330,-287.04 320.34,-270.78 309.88,-258.2"/>
<polygon fill="black" stroke="black" points="312.25,-255.61 302.98,-250.5 307.04,-260.28 312.25,-255.61"/>
</g>
<!-- v6&#45;&gt;v31 -->
<g id="edge53" class="edge">
<title>v6&#45;&gt;v31</title>
<path fill="none" stroke="black" d="M686.34,-969.87C665.59,-958.19 644,-940.12 644,-915.5 644,-915.5 644,-915.5 644,-797.5 644,-743.28 641.46,-726.33 615,-679 614.59,-678.26 529.74,-592.41 529,-592 495.92,-573.82 475.94,-596.99 446,-574 385.86,-527.84 368,-498.11 368,-422.3 368,-422.3 368,-422.3 368,-304.2 368,-282.92 352,-266.76 333.97,-255.32"/>
<polygon fill="black" stroke="black" points="335.41,-252.11 325.02,-250.07 331.88,-258.15 335.41,-252.11"/>
<text text-anchor="middle" x="616.5" y="-606.3" font-family="Times-Roman" font-size="14.00">expression_file</text>
</g>
<!-- v9 -->
<g id="node13" class="node">
<title>v9</title>
<ellipse fill="black" stroke="black" cx="712" cy="-914.5" rx="1.8" ry="1.8"/>
</g>
<!-- v6&#45;&gt;v9 -->
<g id="edge9" class="edge">
<title>v6&#45;&gt;v9</title>
<path fill="none" stroke="black" d="M721.1,-968.93C718.83,-955.64 715.76,-937.59 713.83,-926.25"/>
<polygon fill="black" stroke="black" points="717.27,-925.59 712.14,-916.32 710.37,-926.77 717.27,-925.59"/>
</g>
<!-- v43 -->
<g id="node14" class="node">
<title>v43</title>
<ellipse fill="none" stroke="black" cx="1431" cy="-145.6" rx="167.07" ry="18"/>
<text text-anchor="middle" x="1431" y="-141.9" font-family="Times-Roman" font-size="14.00">MODULE_OVERVIEW_INTERACTIVE</text>
</g>
<!-- v6&#45;&gt;v43 -->
<g id="edge10" class="edge">
<title>v6&#45;&gt;v43</title>
<path fill="none" stroke="black" d="M741.66,-968.99C747.53,-963.3 754.07,-956.9 760,-951 940.83,-770.93 985.35,-725.18 1162,-541 1183.69,-518.38 1355,-366.64 1355,-335.3 1355,-335.3 1355,-335.3 1355,-231.6 1355,-206.95 1362.88,-200.25 1379,-181.6 1382.83,-177.17 1387.35,-173.06 1392.09,-169.32"/>
<polygon fill="black" stroke="black" points="1394.2,-172.12 1400.22,-163.4 1390.07,-166.46 1394.2,-172.12"/>
</g>
<!-- v6&#45;&gt;v43 -->
<g id="edge72" class="edge">
<title>v6&#45;&gt;v43</title>
<path fill="none" stroke="black" d="M752.23,-969.61C761.31,-964.01 771.27,-957.51 780,-951 828.96,-914.47 838.66,-902.01 883,-860 912.51,-832.04 1393,-375.95 1393,-335.3 1393,-335.3 1393,-335.3 1393,-231.6 1393,-210.52 1402.86,-188.86 1412.54,-172.68"/>
<polygon fill="black" stroke="black" points="1415.74,-174.16 1418.13,-163.83 1409.83,-170.41 1415.74,-174.16"/>
<text text-anchor="middle" x="1242.5" y="-562.8" font-family="Times-Roman" font-size="14.00">expression_file</text>
</g>
<!-- v8 -->
<g id="node15" class="node">
<title>v8</title>
<ellipse fill="black" stroke="black" cx="734" cy="-914.5" rx="1.8" ry="1.8"/>
</g>
<!-- v6&#45;&gt;v8 -->
<g id="edge11" class="edge">
<title>v6&#45;&gt;v8</title>
<path fill="none" stroke="black" d="M726.42,-968.93C728.31,-955.64 730.87,-937.59 732.48,-926.25"/>
<polygon fill="black" stroke="black" points="735.94,-926.71 733.88,-916.32 729.01,-925.73 735.94,-926.71"/>
</g>
<!-- v14 -->
<g id="node16" class="node">
<title>v14</title>
<ellipse fill="none" stroke="black" cx="509" cy="-697" rx="96.68" ry="18"/>
<text text-anchor="middle" x="509" y="-693.3" font-family="Times-Roman" font-size="14.00">POST_CLUSTERING</text>
</g>
<!-- v6&#45;&gt;v14 -->
<g id="edge12" class="edge">
<title>v6&#45;&gt;v14</title>
<path fill="none" stroke="black" d="M736.67,-969.05C740.06,-963.57 743.26,-957.28 745,-951 749.75,-933.87 752.17,-927.27 745,-911 717.07,-847.68 675.89,-857.81 630,-806 603.59,-776.18 608.19,-758.98 578,-733 571.63,-727.52 564.26,-722.63 556.75,-718.37"/>
<polygon fill="black" stroke="black" points="558.4,-715.28 547.93,-713.65 555.1,-721.45 558.4,-715.28"/>
</g>
<!-- v7 -->
<g id="node17" class="node">
<title>v7</title>
<ellipse fill="black" stroke="black" cx="614" cy="-914.5" rx="1.8" ry="1.8"/>
</g>
<!-- v6&#45;&gt;v7 -->
<g id="edge14" class="edge">
<title>v6&#45;&gt;v7</title>
<path fill="none" stroke="black" d="M665.54,-971.76C653.11,-966.72 640.79,-959.98 631,-951 623.86,-944.45 619.42,-934.27 616.87,-926.49"/>
<polygon fill="black" stroke="black" points="620.17,-925.29 614.2,-916.54 613.41,-927.11 620.17,-925.29"/>
</g>
<!-- v38 -->
<g id="node26" class="node">
<title>v38</title>
<ellipse fill="none" stroke="black" cx="1207" cy="-232.6" rx="119.68" ry="18"/>
<text text-anchor="middle" x="1207" y="-228.9" font-family="Times-Roman" font-size="14.00">ENRICHMENT_ANALYSIS</text>
</g>
<!-- v6&#45;&gt;v38 -->
<g id="edge64" class="edge">
<title>v6&#45;&gt;v38</title>
<path fill="none" stroke="black" d="M829.96,-983.07C909.43,-979.3 1010.51,-970.68 1047,-951 1093.13,-926.12 1094.94,-904.88 1122,-860 1188.66,-749.45 1135.45,-675.39 1234,-592 1260.83,-569.3 1289.16,-601.53 1311,-574 1354.56,-519.08 1262.75,-331.6 1232,-268.6 1230.45,-265.42 1228.61,-262.21 1226.65,-259.1"/>
<polygon fill="black" stroke="black" points="1229.44,-256.99 1220.92,-250.69 1223.66,-260.92 1229.44,-256.99"/>
<text text-anchor="middle" x="1299.5" y="-606.3" font-family="Times-Roman" font-size="14.00">preprocessed_data</text>
</g>
<!-- v1 -->
<g id="node3" class="node">
<title>v1</title>
<ellipse fill="black" stroke="black" cx="1524" cy="-1059.6" rx="3.6" ry="3.6"/>
<text text-anchor="middle" x="1458.4" y="-1067" font-family="Times-Roman" font-size="14.00">Channel.fromPath</text>
</g>
<!-- v1&#45;&gt;v6 -->
<g id="edge2" class="edge">
<title>v1&#45;&gt;v6</title>
<path fill="none" stroke="black" d="M1520.43,-1058.29C1476.26,-1054.39 1033.13,-1015.28 827.64,-997.15"/>
<polygon fill="black" stroke="black" points="827.71,-993.64 817.44,-996.25 827.09,-1000.61 827.71,-993.64"/>
<text text-anchor="middle" x="1314.5" y="-1026.8" font-family="Times-Roman" font-size="14.00">data_ch</text>
</g>
<!-- v26 -->
<g id="node35" class="node">
<title>v26</title>
<ellipse fill="none" stroke="black" cx="971" cy="-377.8" rx="90.18" ry="18"/>
<text text-anchor="middle" x="971" y="-374.1" font-family="Times-Roman" font-size="14.00">PKN_EVALUATION</text>
</g>
<!-- v1&#45;&gt;v26 -->
<g id="edge44" class="edge">
<title>v1&#45;&gt;v26</title>
<path fill="none" stroke="black" d="M1524.76,-1055.74C1532.64,-1025.54 1597.04,-762.78 1502,-592 1485.23,-561.88 1280.16,-426.23 1248,-413.8 1192.04,-392.18 1125.44,-383.28 1071.57,-379.86"/>
<polygon fill="black" stroke="black" points="1071.5,-376.35 1061.32,-379.26 1071.1,-383.34 1071.5,-376.35"/>
<text text-anchor="middle" x="1575.5" y="-736.8" font-family="Times-Roman" font-size="14.00">data_ch</text>
</g>
<!-- v2 -->
<g id="node4" class="node">
<title>v2</title>
<ellipse fill="black" stroke="black" cx="1464" cy="-305.2" rx="3.6" ry="3.6"/>
<text text-anchor="middle" x="1398.4" y="-312.6" font-family="Times-Roman" font-size="14.00">Channel.fromPath</text>
</g>
<!-- v41 -->
<g id="node5" class="node">
<title>v41</title>
<ellipse fill="none" stroke="black" cx="1463" cy="-232.6" rx="3.5" ry="3.5"/>
<text text-anchor="middle" x="1432" y="-239.9" font-family="Times-Roman" font-size="14.00">ifEmpty</text>
</g>
<!-- v2&#45;&gt;v41 -->
<g id="edge3" class="edge">
<title>v2&#45;&gt;v41</title>
<path fill="none" stroke="black" d="M1463.96,-301.52C1463.84,-292.61 1463.42,-263.58 1463.18,-246.49"/>
<polygon fill="black" stroke="black" points="1466.68,-246.23 1463.04,-236.28 1459.68,-246.33 1466.68,-246.23"/>
<text text-anchor="middle" x="1513" y="-272.4" font-family="Times-Roman" font-size="14.00">name_map_ch</text>
</g>
<!-- v41&#45;&gt;v43 -->
<g id="edge70" class="edge">
<title>v41&#45;&gt;v43</title>
<path fill="none" stroke="black" d="M1462.06,-228.88C1459.44,-221.34 1451.81,-199.54 1445,-181.6 1443.95,-178.85 1442.84,-175.98 1441.72,-173.13"/>
<polygon fill="black" stroke="black" points="1444.9,-171.64 1437.96,-163.64 1438.4,-174.23 1444.9,-171.64"/>
</g>
<!-- v3 -->
<g id="node6" class="node">
<title>v3</title>
<ellipse fill="black" stroke="black" cx="1587" cy="-305.2" rx="3.6" ry="3.6"/>
<text text-anchor="middle" x="1521.4" y="-290.4" font-family="Times-Roman" font-size="14.00">Channel.fromPath</text>
</g>
<!-- v40 -->
<g id="node7" class="node">
<title>v40</title>
<ellipse fill="none" stroke="black" cx="1538" cy="-232.6" rx="3.5" ry="3.5"/>
<text text-anchor="middle" x="1507" y="-239.9" font-family="Times-Roman" font-size="14.00">ifEmpty</text>
</g>
<!-- v3&#45;&gt;v40 -->
<g id="edge4" class="edge">
<title>v3&#45;&gt;v40</title>
<path fill="none" stroke="black" d="M1585.49,-301.55C1582.05,-295.56 1573.27,-280.55 1565,-268.6 1559.01,-259.95 1551.7,-250.53 1546.19,-243.64"/>
<polygon fill="black" stroke="black" points="1548.81,-241.31 1539.79,-235.75 1543.37,-245.72 1548.81,-241.31"/>
<text text-anchor="middle" x="1599" y="-272.4" font-family="Times-Roman" font-size="14.00">pkn_ch</text>
</g>
<!-- v40&#45;&gt;v43 -->
<g id="edge69" class="edge">
<title>v40&#45;&gt;v43</title>
<path fill="none" stroke="black" d="M1535.77,-229.82C1526.25,-222.26 1488.31,-192.13 1460.83,-170.29"/>
<polygon fill="black" stroke="black" points="1462.68,-167.3 1452.67,-163.82 1458.33,-172.78 1462.68,-167.3"/>
</g>
<!-- v4 -->
<g id="node8" class="node">
<title>v4</title>
<ellipse fill="none" stroke="black" cx="956" cy="-145.6" rx="94.78" ry="18"/>
<text text-anchor="middle" x="956" y="-141.9" font-family="Times-Roman" font-size="14.00">LOG_PARAMETERS</text>
</g>
<!-- v4&#45;&gt;v49 -->
<g id="edge5" class="edge">
<title>v4&#45;&gt;v49</title>
<path fill="none" stroke="black" d="M928.62,-128.21C906.23,-114.81 874.38,-95.74 849.93,-81.11"/>
<polygon fill="black" stroke="black" points="851.67,-78.07 841.29,-75.94 848.08,-84.08 851.67,-78.07"/>
</g>
<!-- v51 -->
<g id="node51" class="node">
<title>v51</title>
<ellipse fill="black" stroke="black" cx="802" cy="-1.8" rx="1.8" ry="1.8"/>
</g>
<!-- v49&#45;&gt;v51 -->
<g id="edge88" class="edge">
<title>v49&#45;&gt;v51</title>
<path fill="none" stroke="black" d="M810.27,-40.56C808.34,-31.76 806.05,-21.3 804.37,-13.61"/>
<polygon fill="black" stroke="black" points="807.77,-12.78 802.21,-3.76 800.93,-14.28 807.77,-12.78"/>
</g>
<!-- v50 -->
<g id="node52" class="node">
<title>v50</title>
<ellipse fill="black" stroke="black" cx="827" cy="-1.8" rx="1.8" ry="1.8"/>
</g>
<!-- v49&#45;&gt;v50 -->
<g id="edge89" class="edge">
<title>v49&#45;&gt;v50</title>
<path fill="none" stroke="black" d="M818.04,-40.56C820.13,-31.76 822.61,-21.3 824.43,-13.61"/>
<polygon fill="black" stroke="black" points="827.87,-14.3 826.77,-3.76 821.06,-12.68 827.87,-14.3"/>
</g>
<!-- v5 -->
<g id="node10" class="node">
<title>v5</title>
<ellipse fill="black" stroke="black" cx="917" cy="-1059.6" rx="3.6" ry="3.6"/>
</g>
<!-- v5&#45;&gt;v6 -->
<g id="edge6" class="edge">
<title>v5&#45;&gt;v6</title>
<path fill="none" stroke="black" d="M913.97,-1057.49C898.47,-1051.82 826.85,-1025.62 776.13,-1007.07"/>
<polygon fill="black" stroke="black" points="777.2,-1003.73 766.61,-1003.59 774.8,-1010.31 777.2,-1003.73"/>
<text text-anchor="middle" x="892.5" y="-1026.8" font-family="Times-Roman" font-size="14.00">run_id_ch</text>
</g>
<!-- v5&#45;&gt;v49 -->
<g id="edge86" class="edge">
<title>v5&#45;&gt;v49</title>
<path fill="none" stroke="black" d="M920.89,-1058.59C959.05,-1058.44 1267.15,-1056.65 1357,-1038 1397.49,-1029.6 1416.45,-1035.84 1444,-1005 1499.1,-943.3 1617.7,-365.68 1628,-283.6 1635.37,-224.92 1648.02,-167.49 1607,-127.6 1558.78,-80.71 1125.15,-65.81 920.3,-61.36"/>
<polygon fill="black" stroke="black" points="920.19,-57.86 910.12,-61.15 920.04,-64.86 920.19,-57.86"/>
<text text-anchor="middle" x="1606.5" y="-562.8" font-family="Times-Roman" font-size="14.00">run_id_ch</text>
</g>
<!-- v5&#45;&gt;v31 -->
<g id="edge54" class="edge">
<title>v5&#45;&gt;v31</title>
<path fill="none" stroke="black" d="M913.25,-1058.65C865.2,-1059.24 369.68,-1064.6 226,-1038 159.8,-1025.74 83,-1055.33 83,-988 83,-988 83,-988 83,-696 83,-610.94 66.39,-585.1 95,-505 131.62,-402.47 217.68,-302.93 259.85,-258.2"/>
<polygon fill="black" stroke="black" points="262.59,-260.4 266.95,-250.75 257.52,-255.57 262.59,-260.4"/>
<text text-anchor="middle" x="116.5" y="-649.8" font-family="Times-Roman" font-size="14.00">run_id_ch</text>
</g>
<!-- v5&#45;&gt;v43 -->
<g id="edge73" class="edge">
<title>v5&#45;&gt;v43</title>
<path fill="none" stroke="black" d="M920.84,-1058.72C948.97,-1059.5 1126.2,-1063.24 1267,-1038 1342.01,-1024.56 1431,-1064.2 1431,-988 1431,-988 1431,-988 1431,-231.6 1431,-212.35 1431,-190.65 1431,-174"/>
<polygon fill="black" stroke="black" points="1434.5,-173.86 1431,-163.86 1427.5,-173.86 1434.5,-173.86"/>
<text text-anchor="middle" x="1464.5" y="-606.3" font-family="Times-Roman" font-size="14.00">run_id_ch</text>
</g>
<!-- v5&#45;&gt;v14 -->
<g id="edge20" class="edge">
<title>v5&#45;&gt;v14</title>
<path fill="none" stroke="black" d="M913.27,-1058.6C874.03,-1058.61 536.28,-1058.05 438,-1038 376.12,-1025.37 305,-1051.15 305,-988 305,-988 305,-988 305,-841 305,-772.58 382.9,-734.11 442.42,-714.71"/>
<polygon fill="black" stroke="black" points="443.68,-717.98 452.17,-711.64 441.59,-711.3 443.68,-717.98"/>
<text text-anchor="middle" x="338.5" y="-881.8" font-family="Times-Roman" font-size="14.00">run_id_ch</text>
</g>
<!-- v12 -->
<g id="node19" class="node">
<title>v12</title>
<ellipse fill="none" stroke="black" cx="406" cy="-842" rx="68.49" ry="18"/>
<text text-anchor="middle" x="406" y="-838.3" font-family="Times-Roman" font-size="14.00">CLUSTERING</text>
</g>
<!-- v5&#45;&gt;v12 -->
<g id="edge17" class="edge">
<title>v5&#45;&gt;v12</title>
<path fill="none" stroke="black" d="M913.45,-1058.63C873.24,-1058.99 504.47,-1061.64 463,-1038 422.84,-1015.11 419.22,-995.3 406,-951 398.07,-924.44 399.3,-892.55 401.75,-870.33"/>
<polygon fill="black" stroke="black" points="405.24,-870.63 403.02,-860.27 398.3,-869.76 405.24,-870.63"/>
<text text-anchor="middle" x="439.5" y="-939.8" font-family="Times-Roman" font-size="14.00">run_id_ch</text>
</g>
<!-- v15 -->
<g id="node21" class="node">
<title>v15</title>
<ellipse fill="none" stroke="black" cx="848" cy="-610" rx="120.48" ry="18"/>
<text text-anchor="middle" x="848" y="-606.3" font-family="Times-Roman" font-size="14.00">NETWORK_GENERATION</text>
</g>
<!-- v5&#45;&gt;v15 -->
<g id="edge23" class="edge">
<title>v5&#45;&gt;v15</title>
<path fill="none" stroke="black" d="M920.4,-1057.96C946.35,-1052.85 1111.4,-1017.02 1085,-936 1042.71,-806.22 926.83,-685.15 874.39,-635.15"/>
<polygon fill="black" stroke="black" points="876.51,-632.34 866.84,-628.02 871.71,-637.43 876.51,-632.34"/>
<text text-anchor="middle" x="1084.5" y="-838.3" font-family="Times-Roman" font-size="14.00">run_id_ch</text>
</g>
<!-- v5&#45;&gt;v38 -->
<g id="edge65" class="edge">
<title>v5&#45;&gt;v38</title>
<path fill="none" stroke="black" d="M920.57,-1058.56C943.13,-1058.24 1068.12,-1055.73 1168,-1038 1250.17,-1023.41 1349,-1071.46 1349,-988 1349,-988 1349,-988 1349,-696 1349,-673.77 1342.22,-666.82 1350,-646 1353.64,-636.24 1361.45,-637.79 1365,-628 1370.45,-612.96 1367.32,-607.83 1365,-592 1349.35,-485.36 1335.05,-459.87 1295,-359.8 1278.13,-317.65 1277.25,-304.14 1249,-268.6 1245.91,-264.72 1242.34,-260.96 1238.6,-257.44"/>
<polygon fill="black" stroke="black" points="1240.63,-254.57 1230.81,-250.59 1236,-259.82 1240.63,-254.57"/>
<text text-anchor="middle" x="1383.5" y="-649.8" font-family="Times-Roman" font-size="14.00">run_id_ch</text>
</g>
<!-- v20 -->
<g id="node29" class="node">
<title>v20</title>
<ellipse fill="none" stroke="black" cx="222" cy="-523" rx="117.78" ry="18"/>
<text text-anchor="middle" x="222" y="-519.3" font-family="Times-Roman" font-size="14.00">SUBNETWORK_GRAPHS</text>
</g>
<!-- v5&#45;&gt;v20 -->
<g id="edge38" class="edge">
<title>v5&#45;&gt;v20</title>
<path fill="none" stroke="black" d="M913.31,-1058.66C856.58,-1059.53 165,-1068.48 165,-988 165,-988 165,-988 165,-609 165,-585.64 180.04,-563.85 194.66,-548.18"/>
<polygon fill="black" stroke="black" points="197.21,-550.58 201.74,-541.01 192.23,-545.67 197.21,-550.58"/>
<text text-anchor="middle" x="198.5" y="-794.8" font-family="Times-Roman" font-size="14.00">run_id_ch</text>
</g>
<!-- v5&#45;&gt;v26 -->
<g id="edge45" class="edge">
<title>v5&#45;&gt;v26</title>
<path fill="none" stroke="black" d="M920.73,-1058.54C954.88,-1057.89 1212,-1050.93 1212,-988 1212,-988 1212,-988 1212,-739.5 1212,-676.27 1154.37,-521.48 1115,-472 1100.09,-453.26 1047.05,-421.27 1009.7,-400.08"/>
<polygon fill="black" stroke="black" points="1011,-396.8 1000.57,-394.94 1007.57,-402.9 1011,-396.8"/>
<text text-anchor="middle" x="1245.5" y="-736.8" font-family="Times-Roman" font-size="14.00">run_id_ch</text>
</g>
<!-- v11&#45;&gt;v12 -->
<g id="edge16" class="edge">
<title>v11&#45;&gt;v12</title>
<path fill="none" stroke="black" d="M474.95,-911.47C468.41,-904.97 447.42,-884.13 430.3,-867.13"/>
<polygon fill="black" stroke="black" points="432.34,-864.22 422.78,-859.66 427.41,-869.19 432.34,-864.22"/>
</g>
<!-- v33 -->
<g id="node42" class="node">
<title>v33</title>
<ellipse fill="black" stroke="black" cx="272" cy="-145.6" rx="1.8" ry="1.8"/>
</g>
<!-- v31&#45;&gt;v33 -->
<g id="edge56" class="edge">
<title>v31&#45;&gt;v33</title>
<path fill="none" stroke="black" d="M281.57,-214.4C279.19,-197.52 275.62,-172.26 273.58,-157.82"/>
<polygon fill="black" stroke="black" points="277.02,-157.09 272.15,-147.68 270.09,-158.07 277.02,-157.09"/>
</g>
<!-- v32 -->
<g id="node43" class="node">
<title>v32</title>
<ellipse fill="black" stroke="black" cx="297" cy="-145.6" rx="1.8" ry="1.8"/>
</g>
<!-- v31&#45;&gt;v32 -->
<g id="edge57" class="edge">
<title>v31&#45;&gt;v32</title>
<path fill="none" stroke="black" d="M286.63,-214.4C289.21,-197.52 293.08,-172.26 295.28,-157.82"/>
<polygon fill="black" stroke="black" points="298.78,-158.1 296.83,-147.68 291.86,-157.04 298.78,-158.1"/>
</g>
<!-- v43&#45;&gt;v49 -->
<g id="edge75" class="edge">
<title>v43&#45;&gt;v49</title>
<path fill="none" stroke="black" d="M1394.03,-127.93C1366.92,-116.5 1328.91,-102.09 1294,-94.6 1167.95,-67.55 1019.49,-60.4 921.41,-58.98"/>
<polygon fill="black" stroke="black" points="921.23,-55.47 911.19,-58.85 921.14,-62.47 921.23,-55.47"/>
</g>
<!-- v44 -->
<g id="node47" class="node">
<title>v44</title>
<ellipse fill="black" stroke="black" cx="1431" cy="-58.6" rx="1.8" ry="1.8"/>
</g>
<!-- v43&#45;&gt;v44 -->
<g id="edge76" class="edge">
<title>v43&#45;&gt;v44</title>
<path fill="none" stroke="black" d="M1431,-127.4C1431,-110.52 1431,-85.26 1431,-70.82"/>
<polygon fill="black" stroke="black" points="1434.5,-70.68 1431,-60.68 1427.5,-70.68 1434.5,-70.68"/>
</g>
<!-- v14&#45;&gt;v15 -->
<g id="edge21" class="edge">
<title>v14&#45;&gt;v15</title>
<path fill="none" stroke="black" d="M560.92,-681.68C618.25,-666.81 710.82,-643.58 775.33,-627.84"/>
<polygon fill="black" stroke="black" points="776.54,-631.15 785.43,-625.38 774.89,-624.35 776.54,-631.15"/>
</g>
<!-- v14&#45;&gt;v15 -->
<g id="edge22" class="edge">
<title>v14&#45;&gt;v15</title>
<path fill="none" stroke="black" d="M567.42,-682.63C627.6,-668.05 721.05,-644.66 783.4,-628.6"/>
<polygon fill="black" stroke="black" points="784.32,-631.98 793.13,-626.09 782.57,-625.2 784.32,-631.98"/>
</g>
<!-- v14&#45;&gt;v20 -->
<g id="edge37" class="edge">
<title>v14&#45;&gt;v20</title>
<path fill="none" stroke="black" d="M481.74,-679.66C429.94,-648.62 317.26,-581.09 258.82,-546.06"/>
<polygon fill="black" stroke="black" points="260.3,-542.87 249.92,-540.73 256.7,-548.88 260.3,-542.87"/>
<text text-anchor="middle" x="461.5" y="-606.3" font-family="Times-Roman" font-size="14.00">preprocessing_files</text>
</g>
<!-- v10 -->
<g id="node18" class="node">
<title>v10</title>
<ellipse fill="black" stroke="black" cx="477" cy="-987" rx="3.6" ry="3.6"/>
<text text-anchor="middle" x="426.4" y="-994.4" font-family="Times-Roman" font-size="14.00">Channel.from</text>
</g>
<!-- v10&#45;&gt;v11 -->
<g id="edge15" class="edge">
<title>v10&#45;&gt;v11</title>
<path fill="none" stroke="black" d="M477,-983.32C477,-974.42 477,-945.44 477,-928.37"/>
<polygon fill="black" stroke="black" points="480.5,-928.18 477,-918.18 473.5,-928.18 480.5,-928.18"/>
<text text-anchor="middle" x="514.5" y="-939.8" font-family="Times-Roman" font-size="14.00">cluster_ids</text>
</g>
<!-- v13 -->
<g id="node20" class="node">
<title>v13</title>
<ellipse fill="none" stroke="black" cx="435" cy="-769.5" rx="3.5" ry="3.5"/>
<text text-anchor="middle" x="409" y="-776.8" font-family="Times-Roman" font-size="14.00">collect</text>
</g>
<!-- v12&#45;&gt;v13 -->
<g id="edge18" class="edge">
<title>v12&#45;&gt;v13</title>
<path fill="none" stroke="black" d="M413.02,-823.93C418.3,-811.11 425.39,-793.86 430.07,-782.48"/>
<polygon fill="black" stroke="black" points="433.34,-783.74 433.91,-773.16 426.86,-781.08 433.34,-783.74"/>
</g>
<!-- v47 -->
<g id="node49" class="node">
<title>v47</title>
<ellipse fill="none" stroke="black" cx="260" cy="-740.5" rx="3.5" ry="3.5"/>
<text text-anchor="middle" x="234" y="-747.8" font-family="Times-Roman" font-size="14.00">collect</text>
</g>
<!-- v12&#45;&gt;v47 -->
<g id="edge80" class="edge">
<title>v12&#45;&gt;v47</title>
<path fill="none" stroke="black" d="M382.54,-825.01C350.53,-803.2 294.46,-764.98 270.91,-748.93"/>
<polygon fill="black" stroke="black" points="272.62,-745.87 262.39,-743.13 268.68,-751.65 272.62,-745.87"/>
</g>
<!-- v13&#45;&gt;v14 -->
<g id="edge19" class="edge">
<title>v13&#45;&gt;v14</title>
<path fill="none" stroke="black" d="M437.13,-766.47C443.98,-759.95 465.96,-739.01 483.83,-721.98"/>
<polygon fill="black" stroke="black" points="486.35,-724.41 491.18,-714.98 481.52,-719.34 486.35,-724.41"/>
<text text-anchor="middle" x="523" y="-736.8" font-family="Times-Roman" font-size="14.00">clustered_data</text>
</g>
<!-- v15&#45;&gt;v49 -->
<g id="edge82" class="edge">
<title>v15&#45;&gt;v49</title>
<path fill="none" stroke="black" d="M751.42,-599.25C707,-588.85 664,-567.55 664,-524 664,-524 664,-524 664,-420.3 664,-389.24 677.38,-382.1 699,-359.8 709.56,-348.91 717.28,-352.54 728,-341.8 741.14,-328.64 750,-324.8 750,-306.2 750,-306.2 750,-306.2 750,-144.6 750,-120.47 766.66,-98.83 782.98,-83.43"/>
<polygon fill="black" stroke="black" points="785.75,-85.65 790.89,-76.39 781.1,-80.42 785.75,-85.65"/>
<text text-anchor="middle" x="800.5" y="-330.6" font-family="Times-Roman" font-size="14.00">filtered_modules</text>
</g>
<!-- v15&#45;&gt;v49 -->
<g id="edge83" class="edge">
<title>v15&#45;&gt;v49</title>
<path fill="none" stroke="black" d="M755.05,-598.56C683.88,-590.22 596.74,-579.12 590,-574 500.51,-506.05 512.69,-451.85 490,-341.8 483.97,-312.57 508,-306.95 508,-277.1 508,-277.1 508,-277.1 508,-144.6 508,-100.42 627.89,-78.25 717.59,-67.84"/>
<polygon fill="black" stroke="black" points="717.99,-71.31 727.54,-66.72 717.21,-64.36 717.99,-71.31"/>
<text text-anchor="middle" x="536" y="-330.6" font-family="Times-Roman" font-size="14.00">network_files</text>
</g>
<!-- v15&#45;&gt;v49 -->
<g id="edge84" class="edge">
<title>v15&#45;&gt;v49</title>
<path fill="none" stroke="black" d="M756.26,-598.29C728.74,-593.07 698.98,-585.36 673,-574 638.3,-558.83 604,-561.87 604,-524 604,-524 604,-524 604,-144.6 604,-94.16 656.69,-72.93 709.29,-64.29"/>
<polygon fill="black" stroke="black" points="710.07,-67.72 719.44,-62.78 709.04,-60.79 710.07,-67.72"/>
<text text-anchor="middle" x="665.5" y="-330.6" font-family="Times-Roman" font-size="14.00">coherence_scores</text>
</g>
<!-- v15&#45;&gt;v31 -->
<g id="edge34" class="edge">
<title>v15&#45;&gt;v31</title>
<path fill="none" stroke="black" d="M755.59,-598.41C735.93,-596.23 715.28,-593.99 696,-592 653.81,-587.64 542.35,-595.85 506,-574 436.79,-532.4 406,-503.05 406,-422.3 406,-422.3 406,-422.3 406,-304.2 406,-279.14 386.48,-262.83 363.05,-252.28"/>
<polygon fill="black" stroke="black" points="364.13,-248.94 353.55,-248.38 361.47,-255.42 364.13,-248.94"/>
</g>
<!-- v15&#45;&gt;v43 -->
<g id="edge35" class="edge">
<title>v15&#45;&gt;v43</title>
<path fill="none" stroke="black" d="M833.3,-592.08C829.15,-586.6 824.96,-580.31 822,-574 797.88,-522.55 804.73,-503.47 809,-446.8 810.11,-432.01 807.07,-426.92 814,-413.8 822.22,-398.23 858.73,-371.38 872,-359.8 881.52,-351.49 886.93,-352.27 894,-341.8 935.73,-279.98 885.22,-227.51 944,-181.6 971.28,-160.29 1220.49,-166.26 1255,-163.6 1270.84,-162.38 1287.47,-160.95 1303.92,-159.46"/>
<polygon fill="black" stroke="black" points="1304.5,-162.92 1314.14,-158.52 1303.86,-155.95 1304.5,-162.92"/>
</g>
<!-- v15&#45;&gt;v43 -->
<g id="edge71" class="edge">
<title>v15&#45;&gt;v43</title>
<path fill="none" stroke="black" d="M782.64,-594.77C746.97,-582.74 710,-561.28 710,-524 710,-524 710,-524 710,-420.3 710,-393.41 692.11,-379.87 710,-359.8 733.22,-333.75 838.94,-363.83 866,-341.8 924.72,-293.99 860.95,-223.53 924,-181.6 954.67,-161.21 1218.27,-166.37 1255,-163.6 1270.97,-162.4 1287.74,-160.98 1304.32,-159.48"/>
<polygon fill="black" stroke="black" points="1304.97,-162.93 1314.61,-158.54 1304.34,-155.96 1304.97,-162.93"/>
<text text-anchor="middle" x="767.5" y="-374.1" font-family="Times-Roman" font-size="14.00">filtered_modules</text>
</g>
<!-- v34 -->
<g id="node22" class="node">
<title>v34</title>
<ellipse fill="none" stroke="black" cx="1102" cy="-479.5" rx="3.5" ry="3.5"/>
<text text-anchor="middle" x="1071" y="-486.8" font-family="Times-Roman" font-size="14.00">ifEmpty</text>
</g>
<!-- v15&#45;&gt;v34 -->
<g id="edge24" class="edge">
<title>v15&#45;&gt;v34</title>
<path fill="none" stroke="black" d="M958.51,-602.9C1006.73,-598.06 1056.3,-589.42 1074,-574 1097.68,-553.36 1101.75,-513.58 1102.19,-493.21"/>
<polygon fill="black" stroke="black" points="1105.69,-492.99 1102.13,-483.01 1098.69,-493.04 1105.69,-492.99"/>
</g>
<!-- v35 -->
<g id="node23" class="node">
<title>v35</title>
<ellipse fill="none" stroke="black" cx="1235" cy="-421.3" rx="3.5" ry="3.5"/>
<text text-anchor="middle" x="1259" y="-428.6" font-family="Times-Roman" font-size="14.00">ifEmpty</text>
</g>
<!-- v15&#45;&gt;v35 -->
<g id="edge25" class="edge">
<title>v15&#45;&gt;v35</title>
<path fill="none" stroke="black" d="M952.98,-601.2C1008.01,-595.7 1068.87,-586.97 1093,-574 1159.61,-538.2 1151.87,-499.6 1206,-446.8 1211.78,-441.16 1218.67,-435.31 1224.28,-430.74"/>
<polygon fill="black" stroke="black" points="1226.84,-433.18 1232.49,-424.22 1222.48,-427.7 1226.84,-433.18"/>
</g>
<!-- v36 -->
<g id="node24" class="node">
<title>v36</title>
<ellipse fill="none" stroke="black" cx="1089" cy="-334.3" rx="3.5" ry="3.5"/>
<text text-anchor="middle" x="1058" y="-341.6" font-family="Times-Roman" font-size="14.00">ifEmpty</text>
</g>
<!-- v15&#45;&gt;v36 -->
<g id="edge26" class="edge">
<title>v15&#45;&gt;v36</title>
<path fill="none" stroke="black" d="M903.86,-593.98C916.82,-588.92 930.02,-582.36 941,-574 985.28,-540.27 1002.01,-422.35 1011,-413.8 1030.87,-394.91 1050.54,-415.11 1070,-395.8 1082.79,-383.11 1087,-361.91 1088.36,-348.28"/>
<polygon fill="black" stroke="black" points="1091.87,-348.24 1088.99,-338.04 1084.88,-347.81 1091.87,-348.24"/>
</g>
<!-- v23 -->
<g id="node25" class="node">
<title>v23</title>
<ellipse fill="none" stroke="black" cx="859" cy="-523" rx="3.5" ry="3.5"/>
<text text-anchor="middle" x="842.5" y="-530.3" font-family="Times-Roman" font-size="14.00">mix</text>
</g>
<!-- v15&#45;&gt;v23 -->
<g id="edge27" class="edge">
<title>v15&#45;&gt;v23</title>
<path fill="none" stroke="black" d="M844.68,-591.8C845.03,-574.99 848.53,-549.88 852.75,-535.4"/>
<polygon fill="black" stroke="black" points="856.09,-536.48 856.57,-525.89 849.59,-533.87 856.09,-536.48"/>
</g>
<!-- v15&#45;&gt;v23 -->
<g id="edge28" class="edge">
<title>v15&#45;&gt;v23</title>
<path fill="none" stroke="black" d="M855.77,-591.8C859.7,-575.31 862.66,-550.83 862.33,-536.24"/>
<polygon fill="black" stroke="black" points="865.77,-535.61 861.03,-526.13 858.83,-536.49 865.77,-535.61"/>
</g>
<!-- v15&#45;&gt;v38 -->
<g id="edge29" class="edge">
<title>v15&#45;&gt;v38</title>
<path fill="none" stroke="black" d="M916.78,-595.2C932.49,-590.12 948.51,-583.24 962,-574 977.4,-563.45 977.69,-556.57 988,-541 1023.64,-487.21 1012,-459.06 1058,-413.8 1070.19,-401.81 1080.23,-408.2 1092,-395.8 1134.89,-350.59 1109.76,-315.32 1151,-268.6 1155.18,-263.86 1160.16,-259.54 1165.4,-255.68"/>
<polygon fill="black" stroke="black" points="1167.46,-258.51 1173.76,-249.99 1163.53,-252.72 1167.46,-258.51"/>
</g>
<!-- v15&#45;&gt;v38 -->
<g id="edge63" class="edge">
<title>v15&#45;&gt;v38</title>
<path fill="none" stroke="black" d="M928.78,-596.62C947.5,-591.48 966.7,-584.23 983,-574 999.29,-563.78 1000.28,-556.97 1011,-541 1046.49,-488.12 1030.73,-457.56 1077,-413.8 1091.16,-400.4 1102.65,-409 1117,-395.8 1158.64,-357.51 1185.51,-295.4 1198.27,-260.18"/>
<polygon fill="black" stroke="black" points="1201.63,-261.19 1201.64,-250.59 1195.03,-258.87 1201.63,-261.19"/>
<text text-anchor="middle" x="1134.5" y="-417.6" font-family="Times-Roman" font-size="14.00">filtered_modules</text>
</g>
<!-- v19 -->
<g id="node27" class="node">
<title>v19</title>
<ellipse fill="black" stroke="black" cx="907" cy="-523" rx="1.8" ry="1.8"/>
</g>
<!-- v15&#45;&gt;v19 -->
<g id="edge30" class="edge">
<title>v15&#45;&gt;v19</title>
<path fill="none" stroke="black" d="M868.07,-592.02C873.68,-586.63 879.47,-580.41 884,-574 892.69,-561.71 899.39,-545.62 903.26,-535.05"/>
<polygon fill="black" stroke="black" points="906.66,-535.92 906.59,-525.33 900.04,-533.66 906.66,-535.92"/>
</g>
<!-- v18 -->
<g id="node28" class="node">
<title>v18</title>
<ellipse fill="black" stroke="black" cx="932" cy="-523" rx="1.8" ry="1.8"/>
</g>
<!-- v15&#45;&gt;v18 -->
<g id="edge31" class="edge">
<title>v15&#45;&gt;v18</title>
<path fill="none" stroke="black" d="M878.7,-592.52C886.85,-587.27 895.25,-580.99 902,-574 913.47,-562.12 922.51,-545.08 927.55,-534.28"/>
<polygon fill="black" stroke="black" points="930.9,-535.36 931.69,-524.79 924.48,-532.56 930.9,-535.36"/>
</g>
<!-- v15&#45;&gt;v20 -->
<g id="edge32" class="edge">
<title>v15&#45;&gt;v20</title>
<path fill="none" stroke="black" d="M747.59,-600.02C639.7,-590.34 481.7,-576.02 468,-574 463.72,-573.37 370.22,-554.31 299.75,-539.91"/>
<polygon fill="black" stroke="black" points="300.03,-536.39 289.53,-537.82 298.63,-543.25 300.03,-536.39"/>
</g>
<!-- v17 -->
<g id="node30" class="node">
<title>v17</title>
<ellipse fill="black" stroke="black" cx="954" cy="-523" rx="1.8" ry="1.8"/>
</g>
<!-- v15&#45;&gt;v17 -->
<g id="edge33" class="edge">
<title>v15&#45;&gt;v17</title>
<path fill="none" stroke="black" d="M890.89,-593.13C901.42,-588.02 912.19,-581.65 921,-574 933.95,-562.75 943.91,-545.24 949.36,-534.21"/>
<polygon fill="black" stroke="black" points="952.68,-535.37 953.66,-524.82 946.32,-532.45 952.68,-535.37"/>
</g>
<!-- v16 -->
<g id="node31" class="node">
<title>v16</title>
<ellipse fill="black" stroke="black" cx="882" cy="-523" rx="1.8" ry="1.8"/>
</g>
<!-- v15&#45;&gt;v16 -->
<g id="edge36" class="edge">
<title>v15&#45;&gt;v16</title>
<path fill="none" stroke="black" d="M858.84,-591.98C862.09,-586.4 865.46,-580.07 868,-574 873.36,-561.19 877.33,-545.7 879.65,-535.39"/>
<polygon fill="black" stroke="black" points="883.15,-535.78 881.76,-525.28 876.3,-534.35 883.15,-535.78"/>
</g>
<!-- v15&#45;&gt;v26 -->
<g id="edge43" class="edge">
<title>v15&#45;&gt;v26</title>
<path fill="none" stroke="black" d="M838.96,-591.77C825.8,-564.07 805.49,-509 830,-472 857.19,-430.96 892.94,-458.77 932,-428.8 940.78,-422.06 948.67,-412.91 955.03,-404.28"/>
<polygon fill="black" stroke="black" points="958,-406.13 960.84,-395.92 952.26,-402.13 958,-406.13"/>
<text text-anchor="middle" x="871" y="-475.8" font-family="Times-Roman" font-size="14.00">viewer_files</text>
</g>
<!-- v34&#45;&gt;v38 -->
<g id="edge58" class="edge">
<title>v34&#45;&gt;v38</title>
<path fill="none" stroke="black" d="M1105.36,-477.93C1119.43,-475.34 1173.87,-463.29 1196,-428.8 1213.34,-401.76 1211.05,-308.02 1208.68,-260.97"/>
<polygon fill="black" stroke="black" points="1212.17,-260.68 1208.14,-250.88 1205.18,-261.06 1212.17,-260.68"/>
</g>
<!-- v35&#45;&gt;v38 -->
<g id="edge59" class="edge">
<title>v35&#45;&gt;v38</title>
<path fill="none" stroke="black" d="M1234.85,-417.77C1233.97,-403.2 1229.01,-328.41 1217,-268.6 1216.49,-266.05 1215.88,-263.42 1215.23,-260.8"/>
<polygon fill="black" stroke="black" points="1218.54,-259.64 1212.54,-250.91 1211.79,-261.48 1218.54,-259.64"/>
</g>
<!-- v36&#45;&gt;v38 -->
<g id="edge60" class="edge">
<title>v36&#45;&gt;v38</title>
<path fill="none" stroke="black" d="M1089.21,-330.67C1090.12,-321 1094.54,-287.08 1113,-268.6 1119.51,-262.09 1127.34,-256.77 1135.66,-252.43"/>
<polygon fill="black" stroke="black" points="1137.3,-255.53 1144.86,-248.1 1134.32,-249.2 1137.3,-255.53"/>
</g>
<!-- v24 -->
<g id="node34" class="node">
<title>v24</title>
<ellipse fill="none" stroke="black" cx="945" cy="-450.4" rx="3.5" ry="3.5"/>
<text text-anchor="middle" x="919" y="-457.7" font-family="Times-Roman" font-size="14.00">collect</text>
</g>
<!-- v23&#45;&gt;v24 -->
<g id="edge41" class="edge">
<title>v23&#45;&gt;v24</title>
<path fill="none" stroke="black" d="M860.32,-519.21C862.21,-515.5 866.01,-508.94 871,-505 887.91,-491.65 898.64,-499.76 916,-487 925.01,-480.38 932.85,-470.33 938.1,-462.59"/>
<polygon fill="black" stroke="black" points="941.13,-464.34 943.52,-454.02 935.22,-460.6 941.13,-464.34"/>
</g>
<!-- v38&#45;&gt;v49 -->
<g id="edge85" class="edge">
<title>v38&#45;&gt;v49</title>
<path fill="none" stroke="black" d="M1175.56,-214.97C1152.6,-202.22 1121.2,-183.47 1096,-163.6 1078.23,-149.59 1079.55,-138.99 1060,-127.6 1010.57,-98.8 948.43,-81.76 898.97,-71.93"/>
<polygon fill="black" stroke="black" points="899.42,-68.45 888.94,-70 898.1,-75.33 899.42,-68.45"/>
<text text-anchor="middle" x="1162.5" y="-141.9" font-family="Times-Roman" font-size="14.00">enrichment_results</text>
</g>
<!-- v38&#45;&gt;v43 -->
<g id="edge66" class="edge">
<title>v38&#45;&gt;v43</title>
<path fill="none" stroke="black" d="M1248.87,-215.71C1285.41,-201.85 1338.61,-181.66 1378.09,-166.68"/>
<polygon fill="black" stroke="black" points="1379.7,-169.81 1387.81,-162.99 1377.22,-163.26 1379.7,-169.81"/>
</g>
<!-- v22 -->
<g id="node32" class="node">
<title>v22</title>
<ellipse fill="black" stroke="black" cx="234" cy="-450.4" rx="1.8" ry="1.8"/>
</g>
<!-- v20&#45;&gt;v22 -->
<g id="edge39" class="edge">
<title>v20&#45;&gt;v22</title>
<path fill="none" stroke="black" d="M224.9,-504.91C227.17,-491.6 230.24,-473.52 232.17,-462.16"/>
<polygon fill="black" stroke="black" points="235.63,-462.67 233.86,-452.22 228.73,-461.5 235.63,-462.67"/>
</g>
<!-- v21 -->
<g id="node33" class="node">
<title>v21</title>
<ellipse fill="black" stroke="black" cx="209" cy="-450.4" rx="1.8" ry="1.8"/>
</g>
<!-- v20&#45;&gt;v21 -->
<g id="edge40" class="edge">
<title>v20&#45;&gt;v21</title>
<path fill="none" stroke="black" d="M218.85,-504.91C216.4,-491.6 213.07,-473.52 210.98,-462.16"/>
<polygon fill="black" stroke="black" points="214.4,-461.42 209.15,-452.22 207.52,-462.69 214.4,-461.42"/>
</g>
<!-- v24&#45;&gt;v26 -->
<g id="edge42" class="edge">
<title>v24&#45;&gt;v26</title>
<path fill="none" stroke="black" d="M946.61,-447.09C949.13,-443.39 954.03,-435.81 957,-428.8 960.09,-421.49 962.71,-413.3 964.82,-405.7"/>
<polygon fill="black" stroke="black" points="968.26,-406.39 967.37,-395.83 961.48,-404.63 968.26,-406.39"/>
</g>
<!-- v46 -->
<g id="node37" class="node">
<title>v46</title>
<ellipse fill="none" stroke="black" cx="842" cy="-276.1" rx="3.5" ry="3.5"/>
<text text-anchor="middle" x="811" y="-283.4" font-family="Times-Roman" font-size="14.00">ifEmpty</text>
</g>
<!-- v26&#45;&gt;v46 -->
<g id="edge47" class="edge">
<title>v26&#45;&gt;v46</title>
<path fill="none" stroke="black" d="M953.74,-359.91C943.18,-349.88 929.21,-337.15 916,-326.8 894.84,-310.22 868.32,-293.26 853.46,-284.06"/>
<polygon fill="black" stroke="black" points="855.01,-280.91 844.65,-278.68 851.36,-286.88 855.01,-280.91"/>
</g>
<!-- v29 -->
<g id="node38" class="node">
<title>v29</title>
<ellipse fill="none" stroke="black" cx="476" cy="-305.2" rx="3.5" ry="3.5"/>
<text text-anchor="middle" x="445" y="-312.5" font-family="Times-Roman" font-size="14.00">ifEmpty</text>
</g>
<!-- v26&#45;&gt;v29 -->
<g id="edge48" class="edge">
<title>v26&#45;&gt;v29</title>
<path fill="none" stroke="black" d="M897.37,-367.34C875.4,-364.69 851.24,-361.95 829,-359.8 720.77,-349.33 689.42,-372.14 585,-341.8 571.44,-337.86 570.16,-331.91 557,-326.8 533.95,-317.85 505.69,-311.68 489.37,-308.57"/>
<polygon fill="black" stroke="black" points="489.64,-305.06 479.17,-306.72 488.39,-311.94 489.64,-305.06"/>
</g>
<!-- v28 -->
<g id="node39" class="node">
<title>v28</title>
<ellipse fill="black" stroke="black" cx="1010" cy="-305.2" rx="1.8" ry="1.8"/>
</g>
<!-- v26&#45;&gt;v28 -->
<g id="edge49" class="edge">
<title>v26&#45;&gt;v28</title>
<path fill="none" stroke="black" d="M982.37,-359.59C985.92,-354 989.75,-347.71 993,-341.8 997.63,-333.4 1002.28,-323.54 1005.54,-316.33"/>
<polygon fill="black" stroke="black" points="1008.78,-317.66 1009.62,-307.1 1002.38,-314.83 1008.78,-317.66"/>
</g>
<!-- v27 -->
<g id="node40" class="node">
<title>v27</title>
<ellipse fill="black" stroke="black" cx="1032" cy="-305.2" rx="1.8" ry="1.8"/>
</g>
<!-- v26&#45;&gt;v27 -->
<g id="edge50" class="edge">
<title>v26&#45;&gt;v27</title>
<path fill="none" stroke="black" d="M991.9,-360.02C998.08,-354.55 1004.63,-348.22 1010,-341.8 1016.69,-333.8 1022.79,-323.58 1026.86,-316.15"/>
<polygon fill="black" stroke="black" points="1030.04,-317.63 1031.54,-307.14 1023.83,-314.4 1030.04,-317.63"/>
</g>
<!-- v37 -->
<g id="node44" class="node">
<title>v37</title>
<ellipse fill="none" stroke="black" cx="1057" cy="-305.2" rx="3.5" ry="3.5"/>
<text text-anchor="middle" x="1026" y="-312.5" font-family="Times-Roman" font-size="14.00">ifEmpty</text>
</g>
<!-- v26&#45;&gt;v37 -->
<g id="edge61" class="edge">
<title>v26&#45;&gt;v37</title>
<path fill="none" stroke="black" d="M1002.23,-360.75C1011.33,-355.36 1020.98,-348.89 1029,-341.8 1037.17,-334.58 1044.7,-324.74 1049.89,-317.23"/>
<polygon fill="black" stroke="black" points="1052.94,-318.98 1055.49,-308.7 1047.08,-315.14 1052.94,-318.98"/>
</g>
<!-- v39 -->
<g id="node45" class="node">
<title>v39</title>
<ellipse fill="none" stroke="black" cx="1010" cy="-276.1" rx="3.5" ry="3.5"/>
<text text-anchor="middle" x="979" y="-283.4" font-family="Times-Roman" font-size="14.00">ifEmpty</text>
</g>
<!-- v26&#45;&gt;v39 -->
<g id="edge67" class="edge">
<title>v26&#45;&gt;v39</title>
<path fill="none" stroke="black" d="M977.02,-359.65C982.49,-344.33 990.91,-321.32 999,-301.6 1000.72,-297.42 1002.71,-292.89 1004.52,-288.88"/>
<polygon fill="black" stroke="black" points="1007.77,-290.2 1008.79,-279.65 1001.42,-287.26 1007.77,-290.2"/>
</g>
<!-- v45 -->
<g id="node48" class="node">
<title>v45</title>
<ellipse fill="none" stroke="black" cx="797" cy="-189.1" rx="3.5" ry="3.5"/>
<text text-anchor="middle" x="766" y="-196.4" font-family="Times-Roman" font-size="14.00">ifEmpty</text>
</g>
<!-- v26&#45;&gt;v45 -->
<g id="edge77" class="edge">
<title>v26&#45;&gt;v45</title>
<path fill="none" stroke="black" d="M934.93,-361.17C903.19,-345.71 857.81,-319.22 830,-283.6 810.72,-258.91 802.17,-222.07 798.84,-202.83"/>
<polygon fill="black" stroke="black" points="802.27,-202.05 797.31,-192.69 795.35,-203.11 802.27,-202.05"/>
</g>
<!-- v25 -->
<g id="node36" class="node">
<title>v25</title>
<ellipse fill="black" stroke="black" cx="822" cy="-450.4" rx="3.6" ry="3.6"/>
</g>
<!-- v25&#45;&gt;v26 -->
<g id="edge46" class="edge">
<title>v25&#45;&gt;v26</title>
<path fill="none" stroke="black" d="M821.12,-446.8C819.13,-440.38 815.04,-423.58 823,-413.8 828.08,-407.56 861.91,-399.32 895.95,-392.4"/>
<polygon fill="black" stroke="black" points="896.88,-395.79 906,-390.4 895.51,-388.92 896.88,-395.79"/>
<text text-anchor="middle" x="877.5" y="-417.6" font-family="Times-Roman" font-size="14.00">regulator_types</text>
</g>
<!-- v46&#45;&gt;v49 -->
<g id="edge79" class="edge">
<title>v46&#45;&gt;v49</title>
<path fill="none" stroke="black" d="M841.69,-272.55C839.73,-256.46 828.81,-167.23 819,-94.6 818.65,-92.05 818.29,-89.39 817.92,-86.73"/>
<polygon fill="black" stroke="black" points="821.36,-86.09 816.49,-76.68 814.43,-87.07 821.36,-86.09"/>
</g>
<!-- v29&#45;&gt;v31 -->
<g id="edge51" class="edge">
<title>v29&#45;&gt;v31</title>
<path fill="none" stroke="black" d="M473.44,-302.28C465.49,-296.41 440.36,-278.48 417,-268.6 400.49,-261.62 382.22,-255.72 364.64,-250.87"/>
<polygon fill="black" stroke="black" points="365.53,-247.48 354.97,-248.28 363.72,-254.25 365.53,-247.48"/>
</g>
<!-- v30 -->
<g id="node41" class="node">
<title>v30</title>
<ellipse fill="black" stroke="black" cx="111" cy="-305.2" rx="3.6" ry="3.6"/>
</g>
<!-- v30&#45;&gt;v31 -->
<g id="edge55" class="edge">
<title>v30&#45;&gt;v31</title>
<path fill="none" stroke="black" d="M110.1,-301.59C108.07,-295.13 103.88,-278.25 112,-268.6 120.22,-258.82 141.52,-251.69 166.44,-246.53"/>
<polygon fill="black" stroke="black" points="167.38,-249.91 176.53,-244.57 166.05,-243.04 167.38,-249.91"/>
<text text-anchor="middle" x="166.5" y="-272.4" font-family="Times-Roman" font-size="14.00">regulator_types</text>
</g>
<!-- v37&#45;&gt;v38 -->
<g id="edge62" class="edge">
<title>v37&#45;&gt;v38</title>
<path fill="none" stroke="black" d="M1057.57,-301.49C1059.11,-294.82 1064.02,-277.49 1075,-268.6 1085.67,-259.95 1098.28,-253.43 1111.39,-248.51"/>
<polygon fill="black" stroke="black" points="1112.69,-251.76 1121.01,-245.2 1110.41,-245.14 1112.69,-251.76"/>
</g>
<!-- v39&#45;&gt;v43 -->
<g id="edge68" class="edge">
<title>v39&#45;&gt;v43</title>
<path fill="none" stroke="black" d="M1011.81,-272.76C1019.01,-263.61 1046.83,-229.99 1078,-214.6 1119.76,-193.98 1232.81,-174.29 1319.83,-161.45"/>
<polygon fill="black" stroke="black" points="1320.38,-164.91 1329.77,-160 1319.37,-157.98 1320.38,-164.91"/>
</g>
<!-- v42 -->
<g id="node46" class="node">
<title>v42</title>
<ellipse fill="black" stroke="black" cx="954" cy="-232.6" rx="3.6" ry="3.6"/>
</g>
<!-- v42&#45;&gt;v43 -->
<g id="edge74" class="edge">
<title>v42&#45;&gt;v43</title>
<path fill="none" stroke="black" d="M952.95,-228.85C949.93,-220.45 942.25,-194.87 955,-181.6 978.14,-157.52 1221.71,-166.21 1255,-163.6 1270.84,-162.36 1287.47,-160.93 1303.92,-159.43"/>
<polygon fill="black" stroke="black" points="1304.5,-162.89 1314.13,-158.49 1303.85,-155.92 1304.5,-162.89"/>
<text text-anchor="middle" x="1009.5" y="-185.4" font-family="Times-Roman" font-size="14.00">regulator_types</text>
</g>
<!-- v45&#45;&gt;v49 -->
<g id="edge78" class="edge">
<title>v45&#45;&gt;v49</title>
<path fill="none" stroke="black" d="M797.36,-185.42C799.01,-172.93 806.05,-119.72 810.42,-86.62"/>
<polygon fill="black" stroke="black" points="813.9,-87.04 811.74,-76.66 806.96,-86.12 813.9,-87.04"/>
</g>
<!-- v47&#45;&gt;v49 -->
<g id="edge81" class="edge">
<title>v47&#45;&gt;v49</title>
<path fill="none" stroke="black" d="M257.62,-737.42C241.14,-722.86 143.18,-634.14 95,-541 51.52,-456.95 40,-429.93 40,-335.3 40,-335.3 40,-335.3 40,-144.6 40,-78.26 495.03,-63.68 707.31,-60.49"/>
<polygon fill="black" stroke="black" points="707.59,-63.99 717.54,-60.34 707.49,-56.99 707.59,-63.99"/>
</g>
<!-- v48 -->
<g id="node50" class="node">
<title>v48</title>
<ellipse fill="black" stroke="black" cx="1242" cy="-145.6" rx="3.6" ry="3.6"/>
</g>
<!-- v48&#45;&gt;v49 -->
<g id="edge87" class="edge">
<title>v48&#45;&gt;v49</title>
<path fill="none" stroke="black" d="M1240.17,-142.24C1237.18,-138.55 1230.9,-131.46 1224,-127.6 1174.59,-100 1156.56,-105.39 1101,-94.6 1038.03,-82.38 966.41,-73.63 910.46,-67.94"/>
<polygon fill="black" stroke="black" points="910.5,-64.43 900.21,-66.92 909.81,-71.4 910.5,-64.43"/>
<text text-anchor="middle" x="1235.5" y="-98.4" font-family="Times-Roman" font-size="14.00">regulator_types</text>
</g>
</g>
</svg>
