<?xml version="1.0" encoding="UTF-8" standalone="no"?>
<!DOCTYPE svg PUBLIC "-//W3C//DTD SVG 1.1//EN"
 "http://www.w3.org/Graphics/SVG/1.1/DTD/svg11.dtd">
<!-- Generated by graphviz version 2.44.0 (0)
 -->
<!-- Title: pipeline_dag_20260302_153508 Pages: 1 -->
<svg width="1823pt" height="1086pt"
 viewBox="0.00 0.00 1822.60 1086.20" xmlns="http://www.w3.org/2000/svg" xmlns:xlink="http://www.w3.org/1999/xlink">
<g id="graph0" class="graph" transform="scale(1 1) rotate(0) translate(4 1082.2)">
<title>pipeline_dag_20260302_153508</title>
<polygon fill="white" stroke="transparent" points="-4,4 -4,-1082.2 1818.6,-1082.2 1818.6,4 -4,4"/>
<!-- v0 -->
<g id="node1" class="node">
<title>v0</title>
<ellipse fill="black" stroke="black" cx="1643.6" cy="-1059.6" rx="3.6" ry="3.6"/>
<text text-anchor="middle" x="1578" y="-1067" font-family="Times-Roman" font-size="14.00">Channel.fromPath</text>
</g>
<!-- v6 -->
<g id="node2" class="node">
<title>v6</title>
<ellipse fill="none" stroke="black" cx="1279.6" cy="-987" rx="108.58" ry="18"/>
<text text-anchor="middle" x="1279.6" y="-983.3" font-family="Times-Roman" font-size="14.00">PREPROCESSING_TFA</text>
</g>
<!-- v0&#45;&gt;v6 -->
<g id="edge1" class="edge">
<title>v0&#45;&gt;v6</title>
<path fill="none" stroke="black" d="M1640,-1057.9C1614.16,-1052.89 1455.25,-1022.07 1357.26,-1003.06"/>
<polygon fill="black" stroke="black" points="1357.88,-999.62 1347.39,-1001.15 1356.54,-1006.49 1357.88,-999.62"/>
<text text-anchor="middle" x="1565.6" y="-1026.8" font-family="Times-Roman" font-size="14.00">input_ch</text>
</g>
<!-- v31 -->
<g id="node10" class="node">
<title>v31</title>
<ellipse fill="none" stroke="black" cx="1416.6" cy="-232.6" rx="143.77" ry="18"/>
<text text-anchor="middle" x="1416.6" y="-228.9" font-family="Times-Roman" font-size="14.00">MODULE_VIEWER_HEATMAPS</text>
</g>
<!-- v0&#45;&gt;v31 -->
<g id="edge51" class="edge">
<title>v0&#45;&gt;v31</title>
<path fill="none" stroke="black" d="M1645.64,-1056.62C1653.54,-1048.75 1681.6,-1018.62 1681.6,-988 1681.6,-988 1681.6,-988 1681.6,-696 1681.6,-597.47 1629.6,-579.03 1629.6,-480.5 1629.6,-480.5 1629.6,-480.5 1629.6,-304.2 1629.6,-285.12 1621.56,-279.06 1605.6,-268.6 1592.01,-259.69 1561.39,-252.49 1528.67,-246.99"/>
<polygon fill="black" stroke="black" points="1528.9,-243.48 1518.47,-245.34 1527.78,-250.39 1528.9,-243.48"/>
<text text-anchor="middle" x="1708.6" y="-649.8" font-family="Times-Roman" font-size="14.00">input_ch</text>
</g>
<!-- v47 -->
<g id="node7" class="node">
<title>v47</title>
<ellipse fill="none" stroke="black" cx="511.6" cy="-58.6" rx="96.68" ry="18"/>
<text text-anchor="middle" x="511.6" y="-54.9" font-family="Times-Roman" font-size="14.00">SUMMARY_REPORT</text>
</g>
<!-- v6&#45;&gt;v47 -->
<g id="edge12" class="edge">
<title>v6&#45;&gt;v47</title>
<path fill="none" stroke="black" d="M1354.83,-973.99C1435.95,-959.97 1553.6,-936.1 1553.6,-915.5 1553.6,-915.5 1553.6,-915.5 1553.6,-652.5 1553.6,-560.79 1667.6,-572.21 1667.6,-480.5 1667.6,-480.5 1667.6,-480.5 1667.6,-144.6 1667.6,-54.7 1560.58,-107.42 1471.6,-94.6 1461.12,-93.09 862.54,-71.93 615.99,-63.26"/>
<polygon fill="black" stroke="black" points="616.06,-59.76 605.94,-62.91 615.81,-66.76 616.06,-59.76"/>
</g>
<!-- v11 -->
<g id="node9" class="node">
<title>v11</title>
<ellipse fill="none" stroke="black" cx="731.6" cy="-914.5" rx="3.5" ry="3.5"/>
<text text-anchor="middle" x="698.1" y="-921.8" font-family="Times-Roman" font-size="14.00">combine</text>
</g>
<!-- v6&#45;&gt;v11 -->
<g id="edge6" class="edge">
<title>v6&#45;&gt;v11</title>
<path fill="none" stroke="black" d="M1188.2,-977.23C1123.67,-970.76 1035.22,-961.31 957.6,-951 876.61,-940.24 779.84,-923.85 744.96,-917.83"/>
<polygon fill="black" stroke="black" points="745.23,-914.32 734.78,-916.06 744.03,-921.22 745.23,-914.32"/>
</g>
<!-- v6&#45;&gt;v31 -->
<g id="edge7" class="edge">
<title>v6&#45;&gt;v31</title>
<path fill="none" stroke="black" d="M1327.82,-970.86C1352.16,-959.91 1376.6,-942.25 1376.6,-915.5 1376.6,-915.5 1376.6,-915.5 1376.6,-652.5 1376.6,-504.06 1401.8,-327.36 1412.2,-260.77"/>
<polygon fill="black" stroke="black" points="1415.68,-261.13 1413.79,-250.7 1408.77,-260.03 1415.68,-261.13"/>
</g>
<!-- v6&#45;&gt;v31 -->
<g id="edge52" class="edge">
<title>v6&#45;&gt;v31</title>
<path fill="none" stroke="black" d="M1360.29,-974.86C1392.73,-965.39 1422.6,-947.89 1422.6,-915.5 1422.6,-915.5 1422.6,-915.5 1422.6,-652.5 1422.6,-481.87 1424.36,-439.13 1418.6,-268.6 1418.51,-266.05 1418.4,-263.39 1418.28,-260.73"/>
<polygon fill="black" stroke="black" points="1421.77,-260.48 1417.74,-250.68 1414.78,-260.86 1421.77,-260.48"/>
<text text-anchor="middle" x="1474.1" y="-606.3" font-family="Times-Roman" font-size="14.00">expression_file</text>
</g>
<!-- v9 -->
<g id="node11" class="node">
<title>v9</title>
<ellipse fill="black" stroke="black" cx="1296.6" cy="-914.5" rx="1.8" ry="1.8"/>
</g>
<!-- v6&#45;&gt;v9 -->
<g id="edge8" class="edge">
<title>v6&#45;&gt;v9</title>
<path fill="none" stroke="black" d="M1283.72,-968.93C1286.92,-955.64 1291.27,-937.59 1294.01,-926.25"/>
<polygon fill="black" stroke="black" points="1297.46,-926.86 1296.4,-916.32 1290.66,-925.22 1297.46,-926.86"/>
</g>
<!-- v41 -->
<g id="node12" class="node">
<title>v41</title>
<ellipse fill="none" stroke="black" cx="1008.6" cy="-145.6" rx="167.07" ry="18"/>
<text text-anchor="middle" x="1008.6" y="-141.9" font-family="Times-Roman" font-size="14.00">MODULE_OVERVIEW_INTERACTIVE</text>
</g>
<!-- v6&#45;&gt;v41 -->
<g id="edge9" class="edge">
<title>v6&#45;&gt;v41</title>
<path fill="none" stroke="black" d="M1258.27,-969.27C1244.29,-956.3 1228.6,-936.95 1228.6,-915.5 1228.6,-915.5 1228.6,-915.5 1228.6,-652.5 1228.6,-573.25 1181.6,-559.75 1181.6,-480.5 1181.6,-480.5 1181.6,-480.5 1181.6,-231.6 1181.6,-206.95 1176.81,-197.04 1157.6,-181.6 1147.96,-173.85 1136.89,-167.76 1125.25,-162.99"/>
<polygon fill="black" stroke="black" points="1126.39,-159.68 1115.8,-159.43 1123.92,-166.23 1126.39,-159.68"/>
</g>
<!-- v6&#45;&gt;v41 -->
<g id="edge69" class="edge">
<title>v6&#45;&gt;v41</title>
<path fill="none" stroke="black" d="M1274.61,-968.78C1270.94,-954.6 1266.6,-933.92 1266.6,-915.5 1266.6,-915.5 1266.6,-915.5 1266.6,-652.5 1266.6,-573.25 1219.6,-559.75 1219.6,-480.5 1219.6,-480.5 1219.6,-480.5 1219.6,-275.1 1219.6,-229.9 1215.29,-209.33 1179.6,-181.6 1169.31,-173.6 1146.63,-167.03 1121.05,-161.82"/>
<polygon fill="black" stroke="black" points="1121.61,-158.37 1111.12,-159.9 1120.27,-165.24 1121.61,-158.37"/>
<text text-anchor="middle" x="1298.1" y="-562.8" font-family="Times-Roman" font-size="14.00">expression_file</text>
</g>
<!-- v8 -->
<g id="node13" class="node">
<title>v8</title>
<ellipse fill="black" stroke="black" cx="1318.6" cy="-914.5" rx="1.8" ry="1.8"/>
</g>
<!-- v6&#45;&gt;v8 -->
<g id="edge10" class="edge">
<title>v6&#45;&gt;v8</title>
<path fill="none" stroke="black" d="M1292.28,-968.99C1296.16,-963.41 1300.28,-957.08 1303.6,-951 1308.04,-942.88 1312.06,-933.18 1314.82,-925.97"/>
<polygon fill="black" stroke="black" points="1318.16,-927 1318.29,-916.41 1311.59,-924.61 1318.16,-927"/>
</g>
<!-- v14 -->
<g id="node14" class="node">
<title>v14</title>
<ellipse fill="none" stroke="black" cx="666.6" cy="-697" rx="96.68" ry="18"/>
<text text-anchor="middle" x="666.6" y="-693.3" font-family="Times-Roman" font-size="14.00">POST_CLUSTERING</text>
</g>
<!-- v6&#45;&gt;v14 -->
<g id="edge11" class="edge">
<title>v6&#45;&gt;v14</title>
<path fill="none" stroke="black" d="M1174.16,-982.57C1065.5,-974.11 896,-946.69 779.6,-860 730.96,-823.77 695.59,-760.28 678.37,-724.48"/>
<polygon fill="black" stroke="black" points="681.42,-722.73 674,-715.17 675.08,-725.71 681.42,-722.73"/>
</g>
<!-- v7 -->
<g id="node15" class="node">
<title>v7</title>
<ellipse fill="black" stroke="black" cx="1343.6" cy="-914.5" rx="1.8" ry="1.8"/>
</g>
<!-- v6&#45;&gt;v7 -->
<g id="edge13" class="edge">
<title>v6&#45;&gt;v7</title>
<path fill="none" stroke="black" d="M1301.53,-969.28C1308.03,-963.82 1314.93,-957.48 1320.6,-951 1327.55,-943.07 1333.93,-932.88 1338.2,-925.45"/>
<polygon fill="black" stroke="black" points="1341.4,-926.9 1343.12,-916.45 1335.25,-923.54 1341.4,-926.9"/>
</g>
<!-- v38 -->
<g id="node24" class="node">
<title>v38</title>
<ellipse fill="none" stroke="black" cx="783.6" cy="-232.6" rx="119.68" ry="18"/>
<text text-anchor="middle" x="783.6" y="-228.9" font-family="Times-Roman" font-size="14.00">ENRICHMENT_ANALYSIS</text>
</g>
<!-- v6&#45;&gt;v38 -->
<g id="edge63" class="edge">
<title>v6&#45;&gt;v38</title>
<path fill="none" stroke="black" d="M1201.11,-974.53C1141.46,-963.53 1069.6,-944.3 1069.6,-915.5 1069.6,-915.5 1069.6,-915.5 1069.6,-565.5 1069.6,-527.09 922.66,-292.51 892.6,-268.6 883.58,-261.42 873.05,-255.7 862.16,-251.14"/>
<polygon fill="black" stroke="black" points="863.11,-247.76 852.52,-247.43 860.59,-254.29 863.11,-247.76"/>
<text text-anchor="middle" x="1135.1" y="-606.3" font-family="Times-Roman" font-size="14.00">preprocessed_data</text>
</g>
<!-- v1 -->
<g id="node3" class="node">
<title>v1</title>
<ellipse fill="black" stroke="black" cx="127.6" cy="-1059.6" rx="3.6" ry="3.6"/>
<text text-anchor="middle" x="62" y="-1067" font-family="Times-Roman" font-size="14.00">Channel.fromPath</text>
</g>
<!-- v1&#45;&gt;v6 -->
<g id="edge2" class="edge">
<title>v1&#45;&gt;v6</title>
<path fill="none" stroke="black" d="M131.33,-1058.37C188.71,-1054.85 893.63,-1011.65 1169.72,-994.73"/>
<polygon fill="black" stroke="black" points="1169.99,-998.22 1179.76,-994.12 1169.56,-991.24 1169.99,-998.22"/>
<text text-anchor="middle" x="731.1" y="-1026.8" font-family="Times-Roman" font-size="14.00">data_ch</text>
</g>
<!-- v26 -->
<g id="node33" class="node">
<title>v26</title>
<ellipse fill="none" stroke="black" cx="242.6" cy="-377.8" rx="90.18" ry="18"/>
<text text-anchor="middle" x="242.6" y="-374.1" font-family="Times-Roman" font-size="14.00">PKN_EVALUATION</text>
</g>
<!-- v1&#45;&gt;v26 -->
<g id="edge43" class="edge">
<title>v1&#45;&gt;v26</title>
<path fill="none" stroke="black" d="M124.25,-1057.48C109.32,-1052.28 49.6,-1028.91 49.6,-988 49.6,-988 49.6,-988 49.6,-739.5 49.6,-655.93 125.6,-651.07 125.6,-567.5 125.6,-567.5 125.6,-567.5 125.6,-449.4 125.6,-422.57 148.44,-405.66 173.94,-395.15"/>
<polygon fill="black" stroke="black" points="175.3,-398.38 183.41,-391.56 172.82,-391.83 175.3,-398.38"/>
<text text-anchor="middle" x="77.1" y="-736.8" font-family="Times-Roman" font-size="14.00">data_ch</text>
</g>
<!-- v2 -->
<g id="node4" class="node">
<title>v2</title>
<ellipse fill="black" stroke="black" cx="1714.6" cy="-1059.6" rx="3.6" ry="3.6"/>
<text text-anchor="middle" x="1649" y="-1044.8" font-family="Times-Roman" font-size="14.00">Channel.fromPath</text>
</g>
<!-- v3 -->
<g id="node5" class="node">
<title>v3</title>
<ellipse fill="black" stroke="black" cx="1714.6" cy="-987" rx="1.8" ry="1.8"/>
</g>
<!-- v2&#45;&gt;v3 -->
<g id="edge3" class="edge">
<title>v2&#45;&gt;v3</title>
<path fill="none" stroke="black" d="M1714.6,-1055.92C1714.6,-1046.68 1714.6,-1015.8 1714.6,-999.05"/>
<polygon fill="black" stroke="black" points="1718.1,-998.96 1714.6,-988.96 1711.1,-998.96 1718.1,-998.96"/>
<text text-anchor="middle" x="1764.6" y="-1026.8" font-family="Times-Roman" font-size="14.00">name_map_ch</text>
</g>
<!-- v4 -->
<g id="node6" class="node">
<title>v4</title>
<ellipse fill="none" stroke="black" cx="1310.6" cy="-145.6" rx="94.78" ry="18"/>
<text text-anchor="middle" x="1310.6" y="-141.9" font-family="Times-Roman" font-size="14.00">LOG_PARAMETERS</text>
</g>
<!-- v4&#45;&gt;v47 -->
<g id="edge4" class="edge">
<title>v4&#45;&gt;v47</title>
<path fill="none" stroke="black" d="M1243,-132.9C1230.9,-130.99 1218.39,-129.14 1206.6,-127.6 994.39,-99.9 744.38,-78.07 609.6,-67.18"/>
<polygon fill="black" stroke="black" points="609.55,-63.67 599.3,-66.36 608.99,-70.65 609.55,-63.67"/>
</g>
<!-- v48 -->
<g id="node49" class="node">
<title>v48</title>
<ellipse fill="black" stroke="black" cx="511.6" cy="-1.8" rx="1.8" ry="1.8"/>
</g>
<!-- v47&#45;&gt;v48 -->
<g id="edge85" class="edge">
<title>v47&#45;&gt;v48</title>
<path fill="none" stroke="black" d="M511.6,-40.56C511.6,-31.87 511.6,-21.56 511.6,-13.9"/>
<polygon fill="black" stroke="black" points="515.1,-13.76 511.6,-3.76 508.1,-13.76 515.1,-13.76"/>
</g>
<!-- v5 -->
<g id="node8" class="node">
<title>v5</title>
<ellipse fill="black" stroke="black" cx="728.6" cy="-1059.6" rx="3.6" ry="3.6"/>
</g>
<!-- v5&#45;&gt;v6 -->
<g id="edge5" class="edge">
<title>v5&#45;&gt;v6</title>
<path fill="none" stroke="black" d="M732.15,-1058.37C753.59,-1056.99 867.89,-1049.37 960.6,-1038 1041.67,-1028.06 1133.8,-1013.24 1198.13,-1002.31"/>
<polygon fill="black" stroke="black" points="1198.94,-1005.72 1208.21,-1000.59 1197.76,-998.82 1198.94,-1005.72"/>
<text text-anchor="middle" x="1100.1" y="-1026.8" font-family="Times-Roman" font-size="14.00">run_id_ch</text>
</g>
<!-- v5&#45;&gt;v47 -->
<g id="edge83" class="edge">
<title>v5&#45;&gt;v47</title>
<path fill="none" stroke="black" d="M725.04,-1058.43C711,-1057.68 658.28,-1053.88 618.6,-1038 442.92,-967.69 382.37,-951.67 261.6,-806 239.21,-779 258.1,-755.99 231.6,-733 207.01,-711.67 188.99,-730.94 160.6,-715 65.27,-661.48 5.6,-633.32 5.6,-524 5.6,-524 5.6,-524 5.6,-144.6 5.6,-91.71 62.49,-108.23 113.6,-94.6 167.38,-80.26 310.15,-70.14 409.2,-64.59"/>
<polygon fill="black" stroke="black" points="409.45,-68.08 419.24,-64.03 409.06,-61.09 409.45,-68.08"/>
<text text-anchor="middle" x="45.1" y="-562.8" font-family="Times-Roman" font-size="14.00">run_id_ch</text>
</g>
<!-- v5&#45;&gt;v31 -->
<g id="edge53" class="edge">
<title>v5&#45;&gt;v31</title>
<path fill="none" stroke="black" d="M732.4,-1058.69C772.57,-1059.58 1123.37,-1065.43 1397.6,-1005 1496.27,-983.26 1591.6,-987.53 1591.6,-886.5 1591.6,-886.5 1591.6,-886.5 1591.6,-304.2 1591.6,-274.47 1569.61,-256.95 1541.22,-246.71"/>
<polygon fill="black" stroke="black" points="1541.97,-243.27 1531.37,-243.51 1539.8,-249.93 1541.97,-243.27"/>
<text text-anchor="middle" x="1625.1" y="-649.8" font-family="Times-Roman" font-size="14.00">run_id_ch</text>
</g>
<!-- v5&#45;&gt;v41 -->
<g id="edge70" class="edge">
<title>v5&#45;&gt;v41</title>
<path fill="none" stroke="black" d="M732.01,-1058.42C752.39,-1057.31 858.19,-1050.99 887.6,-1038 919.04,-1024.11 946.6,-1022.37 946.6,-988 946.6,-988 946.6,-988 946.6,-884.5 946.6,-819.06 957.92,-653.38 980.6,-592 1027.45,-465.23 1143.6,-470.45 1143.6,-335.3 1143.6,-335.3 1143.6,-335.3 1143.6,-231.6 1143.6,-199.22 1115.45,-178.69 1084.85,-165.94"/>
<polygon fill="black" stroke="black" points="1085.9,-162.59 1075.31,-162.22 1083.36,-169.11 1085.9,-162.59"/>
<text text-anchor="middle" x="1014.1" y="-606.3" font-family="Times-Roman" font-size="14.00">run_id_ch</text>
</g>
<!-- v5&#45;&gt;v14 -->
<g id="edge19" class="edge">
<title>v5&#45;&gt;v14</title>
<path fill="none" stroke="black" d="M725.51,-1057.4C711.72,-1051.86 656.6,-1027.21 656.6,-988 656.6,-988 656.6,-988 656.6,-768.5 656.6,-754.11 658.67,-738.23 660.92,-725.19"/>
<polygon fill="black" stroke="black" points="664.43,-725.47 662.82,-715 657.55,-724.19 664.43,-725.47"/>
<text text-anchor="middle" x="690.1" y="-881.8" font-family="Times-Roman" font-size="14.00">run_id_ch</text>
</g>
<!-- v12 -->
<g id="node17" class="node">
<title>v12</title>
<ellipse fill="none" stroke="black" cx="555.6" cy="-842" rx="68.49" ry="18"/>
<text text-anchor="middle" x="555.6" y="-838.3" font-family="Times-Roman" font-size="14.00">CLUSTERING</text>
</g>
<!-- v5&#45;&gt;v12 -->
<g id="edge16" class="edge">
<title>v5&#45;&gt;v12</title>
<path fill="none" stroke="black" d="M725,-1058.57C712.52,-1058.3 670.43,-1056.03 642.6,-1038 601.64,-1011.47 595.49,-995.57 575.6,-951 564.05,-925.11 559.17,-892.87 557.11,-870.38"/>
<polygon fill="black" stroke="black" points="560.58,-869.89 556.3,-860.2 553.6,-870.44 560.58,-869.89"/>
<text text-anchor="middle" x="609.1" y="-939.8" font-family="Times-Roman" font-size="14.00">run_id_ch</text>
</g>
<!-- v15 -->
<g id="node19" class="node">
<title>v15</title>
<ellipse fill="none" stroke="black" cx="681.6" cy="-610" rx="120.48" ry="18"/>
<text text-anchor="middle" x="681.6" y="-606.3" font-family="Times-Roman" font-size="14.00">NETWORK_GENERATION</text>
</g>
<!-- v5&#45;&gt;v15 -->
<g id="edge22" class="edge">
<title>v5&#45;&gt;v15</title>
<path fill="none" stroke="black" d="M731.74,-1057.42C745.71,-1051.93 801.6,-1027.49 801.6,-988 801.6,-988 801.6,-988 801.6,-696 801.6,-664.32 773.41,-643.39 744.36,-630.22"/>
<polygon fill="black" stroke="black" points="745.5,-626.9 734.93,-626.21 742.77,-633.34 745.5,-626.9"/>
<text text-anchor="middle" x="835.1" y="-838.3" font-family="Times-Roman" font-size="14.00">run_id_ch</text>
</g>
<!-- v5&#45;&gt;v38 -->
<g id="edge64" class="edge">
<title>v5&#45;&gt;v38</title>
<path fill="none" stroke="black" d="M732.11,-1058.77C756.23,-1059.71 896.6,-1062.03 896.6,-988 896.6,-988 896.6,-988 896.6,-884.5 896.6,-778.5 870.82,-749.3 894.6,-646 902.58,-611.33 919.04,-607.98 929.6,-574 938.73,-544.64 939.76,-535.31 934.6,-505 915.47,-392.71 909.45,-355.33 835.6,-268.6 831.76,-264.09 827.2,-259.91 822.4,-256.13"/>
<polygon fill="black" stroke="black" points="824.33,-253.21 814.18,-250.16 820.21,-258.87 824.33,-253.21"/>
<text text-anchor="middle" x="928.1" y="-649.8" font-family="Times-Roman" font-size="14.00">run_id_ch</text>
</g>
<!-- v20 -->
<g id="node27" class="node">
<title>v20</title>
<ellipse fill="none" stroke="black" cx="309.6" cy="-523" rx="117.78" ry="18"/>
<text text-anchor="middle" x="309.6" y="-519.3" font-family="Times-Roman" font-size="14.00">SUBNETWORK_GRAPHS</text>
</g>
<!-- v5&#45;&gt;v20 -->
<g id="edge37" class="edge">
<title>v5&#45;&gt;v20</title>
<path fill="none" stroke="black" d="M724.81,-1058.65C685.01,-1059.11 344.33,-1062.39 307.6,-1038 287.06,-1024.37 283.6,-1012.65 283.6,-988 283.6,-988 283.6,-988 283.6,-609 283.6,-588.81 290.39,-567.05 297.03,-550.61"/>
<polygon fill="black" stroke="black" points="300.38,-551.68 301.09,-541.11 293.94,-548.93 300.38,-551.68"/>
<text text-anchor="middle" x="317.1" y="-794.8" font-family="Times-Roman" font-size="14.00">run_id_ch</text>
</g>
<!-- v5&#45;&gt;v26 -->
<g id="edge44" class="edge">
<title>v5&#45;&gt;v26</title>
<path fill="none" stroke="black" d="M724.99,-1058.55C676.87,-1057.79 163.6,-1048.3 163.6,-988 163.6,-988 163.6,-988 163.6,-449.4 163.6,-428.06 179.82,-411.56 197.57,-399.9"/>
<polygon fill="black" stroke="black" points="199.61,-402.75 206.34,-394.56 195.98,-396.77 199.61,-402.75"/>
<text text-anchor="middle" x="197.1" y="-736.8" font-family="Times-Roman" font-size="14.00">run_id_ch</text>
</g>
<!-- v11&#45;&gt;v12 -->
<g id="edge15" class="edge">
<title>v11&#45;&gt;v12</title>
<path fill="none" stroke="black" d="M731.97,-910.83C732.71,-904.24 733.62,-887.1 724.6,-878 711.05,-864.32 668.51,-855.56 629.51,-850.22"/>
<polygon fill="black" stroke="black" points="629.53,-846.69 619.16,-848.87 628.62,-853.63 629.53,-846.69"/>
</g>
<!-- v33 -->
<g id="node40" class="node">
<title>v33</title>
<ellipse fill="black" stroke="black" cx="1195.6" cy="-145.6" rx="1.8" ry="1.8"/>
</g>
<!-- v31&#45;&gt;v33 -->
<g id="edge55" class="edge">
<title>v31&#45;&gt;v33</title>
<path fill="none" stroke="black" d="M1402.65,-214.22C1392.53,-202.92 1377.81,-188.97 1361.6,-181.6 1298.47,-152.9 1265.5,-200.21 1206.6,-163.6 1203.88,-161.91 1201.7,-159.27 1200.03,-156.57"/>
<polygon fill="black" stroke="black" points="1203.19,-155.06 1195.85,-147.42 1196.82,-157.97 1203.19,-155.06"/>
</g>
<!-- v32 -->
<g id="node41" class="node">
<title>v32</title>
<ellipse fill="black" stroke="black" cx="1425.6" cy="-145.6" rx="1.8" ry="1.8"/>
</g>
<!-- v31&#45;&gt;v32 -->
<g id="edge56" class="edge">
<title>v31&#45;&gt;v32</title>
<path fill="none" stroke="black" d="M1418.42,-214.4C1420.21,-197.52 1422.88,-172.26 1424.41,-157.82"/>
<polygon fill="black" stroke="black" points="1427.91,-158 1425.49,-147.68 1420.95,-157.26 1427.91,-158"/>
</g>
<!-- v41&#45;&gt;v47 -->
<g id="edge72" class="edge">
<title>v41&#45;&gt;v47</title>
<path fill="none" stroke="black" d="M923.73,-130.08C830.2,-114.09 681,-88.57 590.1,-73.02"/>
<polygon fill="black" stroke="black" points="590.57,-69.56 580.12,-71.32 589.39,-76.46 590.57,-69.56"/>
</g>
<!-- v42 -->
<g id="node45" class="node">
<title>v42</title>
<ellipse fill="black" stroke="black" cx="1008.6" cy="-58.6" rx="1.8" ry="1.8"/>
</g>
<!-- v41&#45;&gt;v42 -->
<g id="edge73" class="edge">
<title>v41&#45;&gt;v42</title>
<path fill="none" stroke="black" d="M1008.6,-127.4C1008.6,-110.52 1008.6,-85.26 1008.6,-70.82"/>
<polygon fill="black" stroke="black" points="1012.1,-70.68 1008.6,-60.68 1005.1,-70.68 1012.1,-70.68"/>
</g>
<!-- v14&#45;&gt;v15 -->
<g id="edge20" class="edge">
<title>v14&#45;&gt;v15</title>
<path fill="none" stroke="black" d="M664.09,-678.8C664.88,-667.16 667.36,-651.55 670.45,-638.24"/>
<polygon fill="black" stroke="black" points="673.93,-638.73 673.02,-628.18 667.15,-636.99 673.93,-638.73"/>
</g>
<!-- v14&#45;&gt;v15 -->
<g id="edge21" class="edge">
<title>v14&#45;&gt;v15</title>
<path fill="none" stroke="black" d="M675.18,-678.8C678.5,-667.16 681.52,-651.55 683.14,-638.24"/>
<polygon fill="black" stroke="black" points="686.63,-638.47 684.11,-628.18 679.67,-637.79 686.63,-638.47"/>
</g>
<!-- v14&#45;&gt;v20 -->
<g id="edge36" class="edge">
<title>v14&#45;&gt;v20</title>
<path fill="none" stroke="black" d="M592.46,-685.33C541.41,-675.72 473.37,-658.29 419.6,-628 383.34,-607.58 349.86,-572.63 329.58,-548.94"/>
<polygon fill="black" stroke="black" points="332.09,-546.49 322.98,-541.08 326.73,-550.99 332.09,-546.49"/>
<text text-anchor="middle" x="486.1" y="-606.3" font-family="Times-Roman" font-size="14.00">preprocessing_files</text>
</g>
<!-- v10 -->
<g id="node16" class="node">
<title>v10</title>
<ellipse fill="black" stroke="black" cx="711.6" cy="-987" rx="3.6" ry="3.6"/>
<text text-anchor="middle" x="661" y="-994.4" font-family="Times-Roman" font-size="14.00">Channel.from</text>
</g>
<!-- v10&#45;&gt;v11 -->
<g id="edge14" class="edge">
<title>v10&#45;&gt;v11</title>
<path fill="none" stroke="black" d="M710.98,-983.15C709.4,-975.29 705.84,-952.75 712.6,-936 714.47,-931.37 717.9,-927.16 721.34,-923.77"/>
<polygon fill="black" stroke="black" points="723.64,-926.41 729.01,-917.28 719.12,-921.06 723.64,-926.41"/>
<text text-anchor="middle" x="750.1" y="-939.8" font-family="Times-Roman" font-size="14.00">cluster_ids</text>
</g>
<!-- v13 -->
<g id="node18" class="node">
<title>v13</title>
<ellipse fill="none" stroke="black" cx="549.6" cy="-769.5" rx="3.5" ry="3.5"/>
<text text-anchor="middle" x="523.6" y="-776.8" font-family="Times-Roman" font-size="14.00">collect</text>
</g>
<!-- v12&#45;&gt;v13 -->
<g id="edge17" class="edge">
<title>v12&#45;&gt;v13</title>
<path fill="none" stroke="black" d="M554.15,-823.93C553.08,-811.38 551.65,-794.59 550.68,-783.2"/>
<polygon fill="black" stroke="black" points="554.16,-782.83 549.83,-773.16 547.19,-783.42 554.16,-782.83"/>
</g>
<!-- v45 -->
<g id="node47" class="node">
<title>v45</title>
<ellipse fill="none" stroke="black" cx="367.6" cy="-740.5" rx="3.5" ry="3.5"/>
<text text-anchor="middle" x="341.6" y="-747.8" font-family="Times-Roman" font-size="14.00">collect</text>
</g>
<!-- v12&#45;&gt;v45 -->
<g id="edge77" class="edge">
<title>v12&#45;&gt;v45</title>
<path fill="none" stroke="black" d="M526.64,-825.67C484.63,-803.44 408.64,-763.22 379.46,-747.78"/>
<polygon fill="black" stroke="black" points="380.75,-744.5 370.27,-742.91 377.47,-750.69 380.75,-744.5"/>
</g>
<!-- v13&#45;&gt;v14 -->
<g id="edge18" class="edge">
<title>v13&#45;&gt;v14</title>
<path fill="none" stroke="black" d="M547.93,-766.33C543.54,-760.38 532.6,-743.53 540.6,-733 547.09,-724.46 565.97,-717.45 587.2,-712.01"/>
<polygon fill="black" stroke="black" points="588.18,-715.38 597.08,-709.62 586.54,-708.57 588.18,-715.38"/>
<text text-anchor="middle" x="591.6" y="-736.8" font-family="Times-Roman" font-size="14.00">clustered_data</text>
</g>
<!-- v15&#45;&gt;v47 -->
<g id="edge79" class="edge">
<title>v15&#45;&gt;v47</title>
<path fill="none" stroke="black" d="M592.91,-597.81C560.84,-592.18 529.55,-584.32 517.6,-574 480.98,-542.38 507.8,-511.31 479.6,-472 433.52,-407.77 403.9,-408.46 341.6,-359.8 331.09,-351.59 323.56,-353.73 317.6,-341.8 314.62,-335.84 317.2,-333.45 317.6,-326.8 318.94,-304.59 323.6,-299.35 323.6,-277.1 323.6,-277.1 323.6,-277.1 323.6,-144.6 323.6,-99.88 368.31,-78.56 414.12,-68.46"/>
<polygon fill="black" stroke="black" points="415.1,-71.83 424.2,-66.41 413.71,-64.97 415.1,-71.83"/>
<text text-anchor="middle" x="375.1" y="-330.6" font-family="Times-Roman" font-size="14.00">filtered_modules</text>
</g>
<!-- v15&#45;&gt;v47 -->
<g id="edge80" class="edge">
<title>v15&#45;&gt;v47</title>
<path fill="none" stroke="black" d="M597.67,-596.97C582.42,-591.8 567.57,-584.45 555.6,-574 534.44,-555.53 461.66,-369.23 455.6,-341.8 452.19,-326.34 454.6,-322.03 454.6,-306.2 454.6,-306.2 454.6,-306.2 454.6,-144.6 454.6,-121.09 469.83,-99.17 484.55,-83.48"/>
<polygon fill="black" stroke="black" points="487.11,-85.86 491.66,-76.3 482.14,-80.94 487.11,-85.86"/>
<text text-anchor="middle" x="501.6" y="-330.6" font-family="Times-Roman" font-size="14.00">network_files</text>
</g>
<!-- v15&#45;&gt;v47 -->
<g id="edge81" class="edge">
<title>v15&#45;&gt;v47</title>
<path fill="none" stroke="black" d="M633.13,-593.37C602.86,-580.23 569.6,-558.05 569.6,-524 569.6,-524 569.6,-524 569.6,-144.6 569.6,-120.96 554.1,-99.04 539.12,-83.39"/>
<polygon fill="black" stroke="black" points="541.46,-80.77 531.89,-76.23 536.53,-85.75 541.46,-80.77"/>
<text text-anchor="middle" x="631.1" y="-330.6" font-family="Times-Roman" font-size="14.00">coherence_scores</text>
</g>
<!-- v15&#45;&gt;v31 -->
<g id="edge33" class="edge">
<title>v15&#45;&gt;v31</title>
<path fill="none" stroke="black" d="M782.79,-600.21C834.54,-594.66 898.33,-586.19 954.6,-574 1092.34,-544.15 1257.6,-621.43 1257.6,-480.5 1257.6,-480.5 1257.6,-480.5 1257.6,-333.3 1257.6,-303.33 1254.98,-289.36 1276.6,-268.6 1284.99,-260.55 1294.93,-254.26 1305.6,-249.37"/>
<polygon fill="black" stroke="black" points="1307.23,-252.48 1315.13,-245.43 1304.56,-246.02 1307.23,-252.48"/>
</g>
<!-- v15&#45;&gt;v41 -->
<g id="edge34" class="edge">
<title>v15&#45;&gt;v41</title>
<path fill="none" stroke="black" d="M784.77,-600.67C826.96,-595.39 869.6,-587.01 885.6,-574 949.51,-522.03 992.33,-259.77 1004.82,-173.88"/>
<polygon fill="black" stroke="black" points="1008.3,-174.25 1006.26,-163.86 1001.37,-173.26 1008.3,-174.25"/>
</g>
<!-- v15&#45;&gt;v41 -->
<g id="edge68" class="edge">
<title>v15&#45;&gt;v41</title>
<path fill="none" stroke="black" d="M782.62,-600.2C831.98,-594.53 885.26,-585.96 906.6,-574 923.38,-564.6 925.33,-557.85 934.6,-541 1003,-416.69 1009.4,-240.55 1009.16,-173.73"/>
<polygon fill="black" stroke="black" points="1012.66,-173.58 1009.07,-163.61 1005.66,-173.64 1012.66,-173.58"/>
<text text-anchor="middle" x="1051.1" y="-374.1" font-family="Times-Roman" font-size="14.00">filtered_modules</text>
</g>
<!-- v34 -->
<g id="node20" class="node">
<title>v34</title>
<ellipse fill="none" stroke="black" cx="849.6" cy="-479.5" rx="3.5" ry="3.5"/>
<text text-anchor="middle" x="818.6" y="-486.8" font-family="Times-Roman" font-size="14.00">ifEmpty</text>
</g>
<!-- v15&#45;&gt;v34 -->
<g id="edge23" class="edge">
<title>v15&#45;&gt;v34</title>
<path fill="none" stroke="black" d="M749.19,-595.1C763.48,-590.06 777.8,-583.22 789.6,-574 818.07,-551.75 812.74,-535.19 832.6,-505 835.59,-500.46 838.98,-495.52 841.95,-491.28"/>
<polygon fill="black" stroke="black" points="845.05,-492.96 847.97,-482.77 839.34,-488.91 845.05,-492.96"/>
</g>
<!-- v35 -->
<g id="node21" class="node">
<title>v35</title>
<ellipse fill="none" stroke="black" cx="663.6" cy="-421.3" rx="3.5" ry="3.5"/>
<text text-anchor="middle" x="632.6" y="-428.6" font-family="Times-Roman" font-size="14.00">ifEmpty</text>
</g>
<!-- v15&#45;&gt;v35 -->
<g id="edge24" class="edge">
<title>v15&#45;&gt;v35</title>
<path fill="none" stroke="black" d="M679.94,-591.77C676.36,-554.64 667.99,-467.79 664.83,-435.07"/>
<polygon fill="black" stroke="black" points="668.29,-434.52 663.85,-424.9 661.33,-435.19 668.29,-434.52"/>
</g>
<!-- v36 -->
<g id="node22" class="node">
<title>v36</title>
<ellipse fill="none" stroke="black" cx="726.6" cy="-334.3" rx="3.5" ry="3.5"/>
<text text-anchor="middle" x="750.6" y="-341.6" font-family="Times-Roman" font-size="14.00">ifEmpty</text>
</g>
<!-- v15&#45;&gt;v36 -->
<g id="edge25" class="edge">
<title>v15&#45;&gt;v36</title>
<path fill="none" stroke="black" d="M684.41,-591.88C692.77,-541.07 717.28,-391.96 724.55,-347.78"/>
<polygon fill="black" stroke="black" points="728.02,-348.24 726.19,-337.8 721.11,-347.1 728.02,-348.24"/>
</g>
<!-- v23 -->
<g id="node23" class="node">
<title>v23</title>
<ellipse fill="none" stroke="black" cx="603.6" cy="-523" rx="3.5" ry="3.5"/>
<text text-anchor="middle" x="587.1" y="-530.3" font-family="Times-Roman" font-size="14.00">mix</text>
</g>
<!-- v15&#45;&gt;v23 -->
<g id="edge26" class="edge">
<title>v15&#45;&gt;v23</title>
<path fill="none" stroke="black" d="M651.78,-592.42C644.72,-586.86 637.6,-580.43 631.6,-574 620.29,-561.87 609.23,-546.3 604.14,-535.79"/>
<polygon fill="black" stroke="black" points="607.45,-534.64 601.27,-526.03 600.74,-536.61 607.45,-534.64"/>
</g>
<!-- v15&#45;&gt;v23 -->
<g id="edge27" class="edge">
<title>v15&#45;&gt;v23</title>
<path fill="none" stroke="black" d="M668.49,-592.06C662.42,-586.59 655.47,-580.3 649.6,-574 636.63,-560.09 624,-541.66 614.44,-531.51"/>
<polygon fill="black" stroke="black" points="616.51,-528.67 606.62,-524.88 611.99,-534.01 616.51,-528.67"/>
</g>
<!-- v15&#45;&gt;v38 -->
<g id="edge28" class="edge">
<title>v15&#45;&gt;v38</title>
<path fill="none" stroke="black" d="M693.38,-591.74C696.74,-586.26 700.14,-580.04 702.6,-574 748.03,-462.52 771.66,-319.66 780.02,-260.8"/>
<polygon fill="black" stroke="black" points="783.5,-261.2 781.41,-250.81 776.57,-260.24 783.5,-261.2"/>
</g>
<!-- v15&#45;&gt;v38 -->
<g id="edge62" class="edge">
<title>v15&#45;&gt;v38</title>
<path fill="none" stroke="black" d="M702.74,-592.11C708.66,-586.73 714.79,-580.48 719.6,-574 729.32,-560.92 729.97,-556.3 735.6,-541 744.16,-517.73 743.53,-511.04 749.6,-487 751.65,-478.88 765.27,-421.85 767.6,-413.8 769.94,-405.7 771.57,-403.98 773.6,-395.8 779.47,-372.19 778.78,-365.83 782.6,-341.8 784.93,-327.15 786.19,-323.57 787.6,-308.8 789.3,-291.01 789.87,-286.43 788.6,-268.6 788.42,-266.03 788.16,-263.36 787.86,-260.69"/>
<polygon fill="black" stroke="black" points="791.31,-260.09 786.53,-250.64 784.37,-261.01 791.31,-260.09"/>
<text text-anchor="middle" x="825.1" y="-417.6" font-family="Times-Roman" font-size="14.00">filtered_modules</text>
</g>
<!-- v19 -->
<g id="node25" class="node">
<title>v19</title>
<ellipse fill="black" stroke="black" cx="843.6" cy="-523" rx="1.8" ry="1.8"/>
</g>
<!-- v15&#45;&gt;v19 -->
<g id="edge29" class="edge">
<title>v15&#45;&gt;v19</title>
<path fill="none" stroke="black" d="M777.51,-599.07C794.67,-593.72 811.29,-585.76 824.6,-574 835.95,-563.97 840.55,-546.42 842.39,-535.01"/>
<polygon fill="black" stroke="black" points="845.9,-535.19 843.56,-524.86 838.94,-534.4 845.9,-535.19"/>
</g>
<!-- v18 -->
<g id="node26" class="node">
<title>v18</title>
<ellipse fill="black" stroke="black" cx="865.6" cy="-523" rx="1.8" ry="1.8"/>
</g>
<!-- v15&#45;&gt;v18 -->
<g id="edge30" class="edge">
<title>v15&#45;&gt;v18</title>
<path fill="none" stroke="black" d="M769.1,-597.59C801.11,-591.91 832.46,-584.07 844.6,-574 856.42,-564.2 861.7,-546.58 863.98,-535.1"/>
<polygon fill="black" stroke="black" points="867.49,-535.28 865.52,-524.87 860.57,-534.23 867.49,-535.28"/>
</g>
<!-- v15&#45;&gt;v20 -->
<g id="edge31" class="edge">
<title>v15&#45;&gt;v20</title>
<path fill="none" stroke="black" d="M583.43,-599.57C539.59,-594.11 487.56,-585.9 441.6,-574 412.15,-566.37 380.22,-554.38 355.14,-544.06"/>
<polygon fill="black" stroke="black" points="356.47,-540.82 345.89,-540.2 353.77,-547.28 356.47,-540.82"/>
</g>
<!-- v17 -->
<g id="node28" class="node">
<title>v17</title>
<ellipse fill="black" stroke="black" cx="887.6" cy="-523" rx="1.8" ry="1.8"/>
</g>
<!-- v15&#45;&gt;v17 -->
<g id="edge32" class="edge">
<title>v15&#45;&gt;v17</title>
<path fill="none" stroke="black" d="M776.63,-598.84C813.53,-593.26 850.34,-585.17 864.6,-574 877.01,-564.28 882.97,-546.33 885.65,-534.79"/>
<polygon fill="black" stroke="black" points="889.11,-535.35 887.49,-524.88 882.22,-534.07 889.11,-535.35"/>
</g>
<!-- v16 -->
<g id="node29" class="node">
<title>v16</title>
<ellipse fill="black" stroke="black" cx="631.6" cy="-523" rx="1.8" ry="1.8"/>
</g>
<!-- v15&#45;&gt;v16 -->
<g id="edge35" class="edge">
<title>v15&#45;&gt;v16</title>
<path fill="none" stroke="black" d="M665.13,-592.07C660.36,-586.59 655.41,-580.3 651.6,-574 643.97,-561.4 638.16,-545.38 634.82,-534.92"/>
<polygon fill="black" stroke="black" points="638.16,-533.89 631.95,-525.31 631.45,-535.89 638.16,-533.89"/>
</g>
<!-- v15&#45;&gt;v26 -->
<g id="edge42" class="edge">
<title>v15&#45;&gt;v26</title>
<path fill="none" stroke="black" d="M595.28,-597.39C544.99,-590.04 489.55,-580.7 479.6,-574 449.63,-553.82 463.7,-528.91 436.6,-505 422.28,-492.37 410.56,-501.02 397.6,-487 374.07,-461.53 396.16,-437.24 370.6,-413.8 358.97,-403.13 344.4,-395.67 329.3,-390.46"/>
<polygon fill="black" stroke="black" points="329.91,-386.98 319.32,-387.35 327.82,-393.67 329.91,-386.98"/>
<text text-anchor="middle" x="438.6" y="-475.8" font-family="Times-Roman" font-size="14.00">viewer_files</text>
</g>
<!-- v34&#45;&gt;v38 -->
<g id="edge57" class="edge">
<title>v34&#45;&gt;v38</title>
<path fill="none" stroke="black" d="M852.04,-476.75C862.04,-469.35 898.9,-439.76 886.6,-413.8 881.19,-402.38 871.97,-406.06 864.6,-395.8 829.35,-346.73 848.62,-319.85 816.6,-268.6 814.36,-265.01 811.72,-261.48 808.91,-258.11"/>
<polygon fill="black" stroke="black" points="811.49,-255.74 802.21,-250.62 806.27,-260.41 811.49,-255.74"/>
</g>
<!-- v35&#45;&gt;v38 -->
<g id="edge58" class="edge">
<title>v35&#45;&gt;v38</title>
<path fill="none" stroke="black" d="M664.47,-417.55C669.58,-401.74 696.91,-321.21 739.6,-268.6 742.9,-264.54 746.74,-260.64 750.77,-257.02"/>
<polygon fill="black" stroke="black" points="753.21,-259.53 758.62,-250.42 748.71,-254.17 753.21,-259.53"/>
</g>
<!-- v36&#45;&gt;v38 -->
<g id="edge59" class="edge">
<title>v36&#45;&gt;v38</title>
<path fill="none" stroke="black" d="M727.17,-330.67C729.25,-321.53 736.95,-290.59 750.6,-268.6 752.83,-265.01 755.47,-261.47 758.27,-258.1"/>
<polygon fill="black" stroke="black" points="760.91,-260.4 764.97,-250.61 755.69,-255.73 760.91,-260.4"/>
</g>
<!-- v24 -->
<g id="node32" class="node">
<title>v24</title>
<ellipse fill="none" stroke="black" cx="533.6" cy="-450.4" rx="3.5" ry="3.5"/>
<text text-anchor="middle" x="507.6" y="-457.7" font-family="Times-Roman" font-size="14.00">collect</text>
</g>
<!-- v23&#45;&gt;v24 -->
<g id="edge40" class="edge">
<title>v23&#45;&gt;v24</title>
<path fill="none" stroke="black" d="M601.58,-519.96C593.11,-511.42 560.09,-478.12 543.39,-461.27"/>
<polygon fill="black" stroke="black" points="545.58,-458.51 536.05,-453.87 540.61,-463.44 545.58,-458.51"/>
</g>
<!-- v38&#45;&gt;v47 -->
<g id="edge82" class="edge">
<title>v38&#45;&gt;v47</title>
<path fill="none" stroke="black" d="M761.52,-214.86C725.39,-187.85 650.92,-133.73 583.6,-94.6 574.86,-89.52 565.27,-84.5 556.02,-79.92"/>
<polygon fill="black" stroke="black" points="557.46,-76.72 546.93,-75.49 554.39,-83.02 557.46,-76.72"/>
<text text-anchor="middle" x="755.1" y="-141.9" font-family="Times-Roman" font-size="14.00">enrichment_results</text>
</g>
<!-- v38&#45;&gt;v41 -->
<g id="edge65" class="edge">
<title>v38&#45;&gt;v41</title>
<path fill="none" stroke="black" d="M825.66,-215.71C862.44,-201.82 916.02,-181.57 955.7,-166.58"/>
<polygon fill="black" stroke="black" points="957.1,-169.8 965.22,-162.99 954.62,-163.25 957.1,-169.8"/>
</g>
<!-- v22 -->
<g id="node30" class="node">
<title>v22</title>
<ellipse fill="black" stroke="black" cx="309.6" cy="-450.4" rx="1.8" ry="1.8"/>
</g>
<!-- v20&#45;&gt;v22 -->
<g id="edge38" class="edge">
<title>v20&#45;&gt;v22</title>
<path fill="none" stroke="black" d="M309.6,-504.91C309.6,-491.74 309.6,-473.92 309.6,-462.54"/>
<polygon fill="black" stroke="black" points="313.1,-462.22 309.6,-452.22 306.1,-462.22 313.1,-462.22"/>
</g>
<!-- v21 -->
<g id="node31" class="node">
<title>v21</title>
<ellipse fill="black" stroke="black" cx="239.6" cy="-450.4" rx="1.8" ry="1.8"/>
</g>
<!-- v20&#45;&gt;v21 -->
<g id="edge39" class="edge">
<title>v20&#45;&gt;v21</title>
<path fill="none" stroke="black" d="M292.65,-504.91C278.43,-490.56 258.72,-470.68 247.77,-459.64"/>
<polygon fill="black" stroke="black" points="249.94,-456.86 240.42,-452.22 244.97,-461.79 249.94,-456.86"/>
</g>
<!-- v24&#45;&gt;v26 -->
<g id="edge41" class="edge">
<title>v24&#45;&gt;v26</title>
<path fill="none" stroke="black" d="M530.58,-448.43C516.85,-444.06 458.93,-425.81 410.6,-413.8 379.69,-406.12 345.29,-398.75 315.72,-392.77"/>
<polygon fill="black" stroke="black" points="316.38,-389.33 305.88,-390.8 315,-396.2 316.38,-389.33"/>
</g>
<!-- v44 -->
<g id="node35" class="node">
<title>v44</title>
<ellipse fill="none" stroke="black" cx="139.6" cy="-276.1" rx="3.5" ry="3.5"/>
<text text-anchor="middle" x="108.6" y="-283.4" font-family="Times-Roman" font-size="14.00">ifEmpty</text>
</g>
<!-- v26&#45;&gt;v44 -->
<g id="edge46" class="edge">
<title>v26&#45;&gt;v44</title>
<path fill="none" stroke="black" d="M193.99,-362.51C182.89,-357.41 171.92,-350.65 163.6,-341.8 149.9,-327.23 143.87,-304.16 141.32,-289.86"/>
<polygon fill="black" stroke="black" points="144.75,-289.09 139.85,-279.7 137.82,-290.09 144.75,-289.09"/>
</g>
<!-- v29 -->
<g id="node36" class="node">
<title>v29</title>
<ellipse fill="none" stroke="black" cx="948.6" cy="-305.2" rx="3.5" ry="3.5"/>
<text text-anchor="middle" x="917.6" y="-312.5" font-family="Times-Roman" font-size="14.00">ifEmpty</text>
</g>
<!-- v26&#45;&gt;v29 -->
<g id="edge47" class="edge">
<title>v26&#45;&gt;v29</title>
<path fill="none" stroke="black" d="M329.83,-372.96C427.82,-368.09 591.49,-358.27 731.6,-341.8 809.26,-332.67 901.57,-315.36 935.37,-308.8"/>
<polygon fill="black" stroke="black" points="936.16,-312.21 945.3,-306.86 934.82,-305.35 936.16,-312.21"/>
</g>
<!-- v28 -->
<g id="node37" class="node">
<title>v28</title>
<ellipse fill="black" stroke="black" cx="207.6" cy="-305.2" rx="1.8" ry="1.8"/>
</g>
<!-- v26&#45;&gt;v28 -->
<g id="edge48" class="edge">
<title>v26&#45;&gt;v28</title>
<path fill="none" stroke="black" d="M234.13,-359.71C227.38,-346.1 218.17,-327.52 212.56,-316.21"/>
<polygon fill="black" stroke="black" points="215.59,-314.43 208.01,-307.02 209.31,-317.54 215.59,-314.43"/>
</g>
<!-- v27 -->
<g id="node38" class="node">
<title>v27</title>
<ellipse fill="black" stroke="black" cx="229.6" cy="-305.2" rx="1.8" ry="1.8"/>
</g>
<!-- v26&#45;&gt;v27 -->
<g id="edge49" class="edge">
<title>v26&#45;&gt;v27</title>
<path fill="none" stroke="black" d="M239.45,-359.71C237,-346.4 233.67,-328.32 231.58,-316.96"/>
<polygon fill="black" stroke="black" points="235,-316.22 229.75,-307.02 228.12,-317.49 235,-316.22"/>
</g>
<!-- v37 -->
<g id="node42" class="node">
<title>v37</title>
<ellipse fill="none" stroke="black" cx="291.6" cy="-305.2" rx="3.5" ry="3.5"/>
<text text-anchor="middle" x="260.6" y="-312.5" font-family="Times-Roman" font-size="14.00">ifEmpty</text>
</g>
<!-- v26&#45;&gt;v37 -->
<g id="edge60" class="edge">
<title>v26&#45;&gt;v37</title>
<path fill="none" stroke="black" d="M256.14,-359.97C260.56,-354.29 265.41,-347.86 269.6,-341.8 275.13,-333.8 280.9,-324.43 285.14,-317.31"/>
<polygon fill="black" stroke="black" points="288.26,-318.9 290.29,-308.5 282.22,-315.37 288.26,-318.9"/>
</g>
<!-- v39 -->
<g id="node43" class="node">
<title>v39</title>
<ellipse fill="none" stroke="black" cx="267.6" cy="-276.1" rx="3.5" ry="3.5"/>
<text text-anchor="middle" x="236.6" y="-283.4" font-family="Times-Roman" font-size="14.00">ifEmpty</text>
</g>
<!-- v26&#45;&gt;v39 -->
<g id="edge66" class="edge">
<title>v26&#45;&gt;v39</title>
<path fill="none" stroke="black" d="M246.95,-359.43C251.95,-339.5 260.03,-307.29 264.45,-289.65"/>
<polygon fill="black" stroke="black" points="267.9,-290.31 266.93,-279.76 261.11,-288.61 267.9,-290.31"/>
</g>
<!-- v43 -->
<g id="node46" class="node">
<title>v43</title>
<ellipse fill="none" stroke="black" cx="204.6" cy="-189.1" rx="3.5" ry="3.5"/>
<text text-anchor="middle" x="173.6" y="-196.4" font-family="Times-Roman" font-size="14.00">ifEmpty</text>
</g>
<!-- v26&#45;&gt;v43 -->
<g id="edge74" class="edge">
<title>v26&#45;&gt;v43</title>
<path fill="none" stroke="black" d="M226.33,-360.02C215.21,-347.19 201.6,-328.41 196.6,-308.8 186.96,-270.99 195.9,-224.34 201.25,-202.49"/>
<polygon fill="black" stroke="black" points="204.66,-203.31 203.82,-192.74 197.89,-201.52 204.66,-203.31"/>
</g>
<!-- v25 -->
<g id="node34" class="node">
<title>v25</title>
<ellipse fill="black" stroke="black" cx="262.6" cy="-450.4" rx="3.6" ry="3.6"/>
</g>
<!-- v25&#45;&gt;v26 -->
<g id="edge45" class="edge">
<title>v25&#45;&gt;v26</title>
<path fill="none" stroke="black" d="M261.84,-446.72C259.93,-439.98 254.77,-421.75 250.27,-405.88"/>
<polygon fill="black" stroke="black" points="253.54,-404.59 247.45,-395.93 246.81,-406.5 253.54,-404.59"/>
<text text-anchor="middle" x="312.1" y="-417.6" font-family="Times-Roman" font-size="14.00">regulator_types</text>
</g>
<!-- v44&#45;&gt;v47 -->
<g id="edge76" class="edge">
<title>v44&#45;&gt;v47</title>
<path fill="none" stroke="black" d="M140.48,-272.31C145.68,-256.28 173.68,-174.98 221.6,-127.6 243.52,-105.93 253.38,-104.41 282.6,-94.6 324.25,-80.62 372.06,-72.2 413.18,-67.14"/>
<polygon fill="black" stroke="black" points="413.69,-70.6 423.21,-65.95 412.86,-63.65 413.69,-70.6"/>
</g>
<!-- v29&#45;&gt;v31 -->
<g id="edge50" class="edge">
<title>v29&#45;&gt;v31</title>
<path fill="none" stroke="black" d="M951.84,-303.71C980.36,-299.41 1190.69,-267.68 1318.42,-248.41"/>
<polygon fill="black" stroke="black" points="1319.25,-251.83 1328.61,-246.87 1318.2,-244.9 1319.25,-251.83"/>
</g>
<!-- v30 -->
<g id="node39" class="node">
<title>v30</title>
<ellipse fill="black" stroke="black" cx="1289.6" cy="-305.2" rx="3.6" ry="3.6"/>
</g>
<!-- v30&#45;&gt;v31 -->
<g id="edge54" class="edge">
<title>v30&#45;&gt;v31</title>
<path fill="none" stroke="black" d="M1288.1,-301.64C1284.62,-295.31 1276.84,-278.69 1284.6,-268.6 1290.33,-261.15 1305.18,-254.95 1322.95,-249.95"/>
<polygon fill="black" stroke="black" points="1324.3,-253.22 1333.08,-247.3 1322.52,-246.45 1324.3,-253.22"/>
<text text-anchor="middle" x="1339.1" y="-272.4" font-family="Times-Roman" font-size="14.00">regulator_types</text>
</g>
<!-- v37&#45;&gt;v38 -->
<g id="edge61" class="edge">
<title>v37&#45;&gt;v38</title>
<path fill="none" stroke="black" d="M295,-303.71C325.72,-299.3 557.03,-266.11 690.08,-247.02"/>
<polygon fill="black" stroke="black" points="690.87,-250.44 700.28,-245.56 689.88,-243.51 690.87,-250.44"/>
</g>
<!-- v39&#45;&gt;v41 -->
<g id="edge67" class="edge">
<title>v39&#45;&gt;v41</title>
<path fill="none" stroke="black" d="M270.9,-274.53C311.96,-267.41 725.06,-195.77 914.53,-162.91"/>
<polygon fill="black" stroke="black" points="915.23,-166.34 924.49,-161.19 914.03,-159.45 915.23,-166.34"/>
</g>
<!-- v40 -->
<g id="node44" class="node">
<title>v40</title>
<ellipse fill="black" stroke="black" cx="1251.6" cy="-232.6" rx="3.6" ry="3.6"/>
</g>
<!-- v40&#45;&gt;v41 -->
<g id="edge71" class="edge">
<title>v40&#45;&gt;v41</title>
<path fill="none" stroke="black" d="M1251.28,-228.76C1250.16,-220.11 1245.52,-193.87 1229.6,-181.6 1215.78,-170.95 1184.46,-163.47 1149.62,-158.24"/>
<polygon fill="black" stroke="black" points="1150.11,-154.77 1139.71,-156.82 1149.12,-161.7 1150.11,-154.77"/>
<text text-anchor="middle" x="1296.1" y="-185.4" font-family="Times-Roman" font-size="14.00">regulator_types</text>
</g>
<!-- v43&#45;&gt;v47 -->
<g id="edge75" class="edge">
<title>v43&#45;&gt;v47</title>
<path fill="none" stroke="black" d="M206.29,-185.86C215.35,-174.06 259.48,-118.78 309.6,-94.6 340.54,-79.67 376.86,-71.03 410.11,-66.05"/>
<polygon fill="black" stroke="black" points="410.9,-69.47 420.32,-64.61 409.93,-62.54 410.9,-69.47"/>
</g>
<!-- v45&#45;&gt;v47 -->
<g id="edge78" class="edge">
<title>v45&#45;&gt;v47</title>
<path fill="none" stroke="black" d="M364.06,-739.13C331.65,-735.52 87.6,-703.85 87.6,-567.5 87.6,-567.5 87.6,-567.5 87.6,-144.6 87.6,-80 279.2,-63.84 404.8,-60.19"/>
<polygon fill="black" stroke="black" points="404.95,-63.69 414.86,-59.92 404.77,-56.69 404.95,-63.69"/>
</g>
<!-- v46 -->
<g id="node48" class="node">
<title>v46</title>
<ellipse fill="black" stroke="black" cx="1448.6" cy="-145.6" rx="3.6" ry="3.6"/>
</g>
<!-- v46&#45;&gt;v47 -->
<g id="edge84" class="edge">
<title>v46&#45;&gt;v47</title>
<path fill="none" stroke="black" d="M1447.66,-142.1C1446.05,-138.23 1442.38,-130.88 1436.6,-127.6 1366.81,-88.01 845,-68.85 617.32,-62.3"/>
<polygon fill="black" stroke="black" points="617.13,-58.8 607.03,-62.01 616.93,-65.79 617.13,-58.8"/>
<text text-anchor="middle" x="1413.1" y="-98.4" font-family="Times-Roman" font-size="14.00">regulator_types</text>
</g>
</g>
</svg>
