<?xml version="1.0" encoding="UTF-8" standalone="no"?>
<!DOCTYPE svg PUBLIC "-//W3C//DTD SVG 1.1//EN"
 "http://www.w3.org/Graphics/SVG/1.1/DTD/svg11.dtd">
<!-- Generated by graphviz version 2.44.0 (0)
 -->
<!-- Title: pipeline_dag_20260207_020005 Pages: 1 -->
<svg width="1644pt" height="1086pt"
 viewBox="0.00 0.00 1644.00 1086.20" xmlns="http://www.w3.org/2000/svg" xmlns:xlink="http://www.w3.org/1999/xlink">
<g id="graph0" class="graph" transform="scale(1 1) rotate(0) translate(4 1082.2)">
<title>pipeline_dag_20260207_020005</title>
<polygon fill="white" stroke="transparent" points="-4,4 -4,-1082.2 1640,-1082.2 1640,4 -4,4"/>
<!-- v0 -->
<g id="node1" class="node">
<title>v0</title>
<ellipse fill="black" stroke="black" cx="1465" cy="-1059.6" rx="3.6" ry="3.6"/>
<text text-anchor="middle" x="1399.4" y="-1067" font-family="Times-Roman" font-size="14.00">Channel.fromPath</text>
</g>
<!-- v6 -->
<g id="node2" class="node">
<title>v6</title>
<ellipse fill="none" stroke="black" cx="1241" cy="-987" rx="108.58" ry="18"/>
<text text-anchor="middle" x="1241" y="-983.3" font-family="Times-Roman" font-size="14.00">PREPROCESSING_TFA</text>
</g>
<!-- v0&#45;&gt;v6 -->
<g id="edge1" class="edge">
<title>v0&#45;&gt;v6</title>
<path fill="none" stroke="black" d="M1461.83,-1057.6C1444.35,-1052.09 1358.3,-1024.97 1298.92,-1006.26"/>
<polygon fill="black" stroke="black" points="1299.86,-1002.88 1289.27,-1003.21 1297.76,-1009.56 1299.86,-1002.88"/>
<text text-anchor="middle" x="1428" y="-1026.8" font-family="Times-Roman" font-size="14.00">input_ch</text>
</g>
<!-- v31 -->
<g id="node10" class="node">
<title>v31</title>
<ellipse fill="none" stroke="black" cx="1220" cy="-232.6" rx="143.77" ry="18"/>
<text text-anchor="middle" x="1220" y="-228.9" font-family="Times-Roman" font-size="14.00">MODULE_VIEWER_HEATMAPS</text>
</g>
<!-- v0&#45;&gt;v31 -->
<g id="edge51" class="edge">
<title>v0&#45;&gt;v31</title>
<path fill="none" stroke="black" d="M1467.04,-1056.62C1474.94,-1048.75 1503,-1018.62 1503,-988 1503,-988 1503,-988 1503,-609 1503,-443.13 1477.88,-374.23 1350,-268.6 1340.85,-261.04 1330.21,-255.1 1319.04,-250.44"/>
<polygon fill="black" stroke="black" points="1320.14,-247.12 1309.55,-246.82 1317.65,-253.66 1320.14,-247.12"/>
<text text-anchor="middle" x="1533" y="-649.8" font-family="Times-Roman" font-size="14.00">input_ch</text>
</g>
<!-- v47 -->
<g id="node7" class="node">
<title>v47</title>
<ellipse fill="none" stroke="black" cx="854" cy="-58.6" rx="96.68" ry="18"/>
<text text-anchor="middle" x="854" y="-54.9" font-family="Times-Roman" font-size="14.00">SUMMARY_REPORT</text>
</g>
<!-- v6&#45;&gt;v47 -->
<g id="edge12" class="edge">
<title>v6&#45;&gt;v47</title>
<path fill="none" stroke="black" d="M1321.13,-974.7C1353.34,-965.2 1383,-947.7 1383,-915.5 1383,-915.5 1383,-915.5 1383,-420.3 1383,-354.45 1421,-342.95 1421,-277.1 1421,-277.1 1421,-277.1 1421,-144.6 1421,-98.17 1119.77,-74.26 956.43,-64.72"/>
<polygon fill="black" stroke="black" points="956.55,-61.22 946.36,-64.14 956.14,-68.21 956.55,-61.22"/>
</g>
<!-- v11 -->
<g id="node9" class="node">
<title>v11</title>
<ellipse fill="none" stroke="black" cx="1107" cy="-914.5" rx="3.5" ry="3.5"/>
<text text-anchor="middle" x="1073.5" y="-921.8" font-family="Times-Roman" font-size="14.00">combine</text>
</g>
<!-- v6&#45;&gt;v11 -->
<g id="edge6" class="edge">
<title>v6&#45;&gt;v11</title>
<path fill="none" stroke="black" d="M1217.9,-969.28C1202.77,-958.83 1182.31,-945.58 1163,-936 1148.83,-928.97 1131.63,-923.03 1120.07,-919.38"/>
<polygon fill="black" stroke="black" points="1120.72,-915.93 1110.13,-916.38 1118.69,-922.63 1120.72,-915.93"/>
</g>
<!-- v6&#45;&gt;v31 -->
<g id="edge7" class="edge">
<title>v6&#45;&gt;v31</title>
<path fill="none" stroke="black" d="M1253.96,-968.98C1281.84,-930.61 1345,-833.53 1345,-741.5 1345,-741.5 1345,-741.5 1345,-304.2 1345,-287.2 1343.43,-280.2 1331,-268.6 1323.74,-261.83 1315.18,-256.37 1306.09,-251.96"/>
<polygon fill="black" stroke="black" points="1307.41,-248.72 1296.84,-247.9 1304.59,-255.13 1307.41,-248.72"/>
</g>
<!-- v9 -->
<g id="node11" class="node">
<title>v9</title>
<ellipse fill="black" stroke="black" cx="1309" cy="-914.5" rx="1.8" ry="1.8"/>
</g>
<!-- v6&#45;&gt;v9 -->
<g id="edge8" class="edge">
<title>v6&#45;&gt;v9</title>
<path fill="none" stroke="black" d="M1268.76,-969.49C1276.24,-964.21 1283.93,-957.91 1290,-951 1296.54,-943.56 1301.66,-933.47 1304.93,-925.95"/>
<polygon fill="black" stroke="black" points="1308.26,-927.06 1308.67,-916.47 1301.75,-924.49 1308.26,-927.06"/>
</g>
<!-- v41 -->
<g id="node12" class="node">
<title>v41</title>
<ellipse fill="none" stroke="black" cx="364" cy="-145.6" rx="167.07" ry="18"/>
<text text-anchor="middle" x="364" y="-141.9" font-family="Times-Roman" font-size="14.00">MODULE_OVERVIEW_INTERACTIVE</text>
</g>
<!-- v6&#45;&gt;v41 -->
<g id="edge9" class="edge">
<title>v6&#45;&gt;v41</title>
<path fill="none" stroke="black" d="M1225.76,-969.1C1215.19,-955.6 1203,-935.66 1203,-915.5 1203,-915.5 1203,-915.5 1203,-739.5 1203,-608.82 1216.04,-570.87 1175,-446.8 1161.13,-404.87 1158.25,-391.01 1127,-359.8 1105.47,-338.29 1094.15,-340.55 1067,-326.8 995.3,-290.48 975.13,-286.06 903,-250.6 856.26,-227.62 845.07,-220.9 799,-196.6 786.51,-190.01 784.55,-185.57 771,-181.6 672.17,-152.67 642.59,-172.55 540,-163.6 524.55,-162.25 508.35,-160.77 492.29,-159.27"/>
<polygon fill="black" stroke="black" points="492.6,-155.78 482.31,-158.33 491.94,-162.75 492.6,-155.78"/>
</g>
<!-- v6&#45;&gt;v41 -->
<g id="edge68" class="edge">
<title>v6&#45;&gt;v41</title>
<path fill="none" stroke="black" d="M1241,-968.9C1241,-954.63 1241,-933.74 1241,-915.5 1241,-915.5 1241,-915.5 1241,-696 1241,-641.47 1231.44,-628.42 1228,-574 1226.6,-551.82 1227,-546.23 1227,-524 1227,-524 1227,-524 1227,-420.3 1227,-349.49 1160.08,-360.87 1098,-326.8 967.44,-255.15 941.4,-213.85 796,-181.6 684.65,-156.9 653.66,-173.08 540,-163.6 524.42,-162.3 508.07,-160.84 491.88,-159.35"/>
<polygon fill="black" stroke="black" points="492.11,-155.85 481.83,-158.41 491.46,-162.82 492.11,-155.85"/>
<text text-anchor="middle" x="1279.5" y="-562.8" font-family="Times-Roman" font-size="14.00">expression_file</text>
</g>
<!-- v8 -->
<g id="node13" class="node">
<title>v8</title>
<ellipse fill="black" stroke="black" cx="1331" cy="-914.5" rx="1.8" ry="1.8"/>
</g>
<!-- v6&#45;&gt;v8 -->
<g id="edge10" class="edge">
<title>v6&#45;&gt;v8</title>
<path fill="none" stroke="black" d="M1279.71,-970.07C1289.6,-964.89 1299.75,-958.51 1308,-951 1315.89,-943.82 1322.23,-933.36 1326.24,-925.65"/>
<polygon fill="black" stroke="black" points="1329.45,-927.04 1330.58,-916.51 1323.13,-924.04 1329.45,-927.04"/>
</g>
<!-- v14 -->
<g id="node14" class="node">
<title>v14</title>
<ellipse fill="none" stroke="black" cx="797" cy="-697" rx="96.68" ry="18"/>
<text text-anchor="middle" x="797" y="-693.3" font-family="Times-Roman" font-size="14.00">POST_CLUSTERING</text>
</g>
<!-- v6&#45;&gt;v14 -->
<g id="edge11" class="edge">
<title>v6&#45;&gt;v14</title>
<path fill="none" stroke="black" d="M1204.83,-969.88C1192.16,-964.09 1177.88,-957.41 1165,-951 1152.36,-944.71 1149.72,-942.12 1137,-936 1118.7,-927.2 1107.32,-934.15 1095,-918 1069.42,-884.47 1101.75,-861.26 1082,-824 1053.7,-770.62 1035.12,-759.86 981,-733 954.55,-719.88 923.72,-711.66 894.94,-706.52"/>
<polygon fill="black" stroke="black" points="895.3,-703.03 884.86,-704.82 894.14,-709.93 895.3,-703.03"/>
</g>
<!-- v7 -->
<g id="node15" class="node">
<title>v7</title>
<ellipse fill="black" stroke="black" cx="1353" cy="-914.5" rx="1.8" ry="1.8"/>
</g>
<!-- v6&#45;&gt;v7 -->
<g id="edge13" class="edge">
<title>v6&#45;&gt;v7</title>
<path fill="none" stroke="black" d="M1291.29,-970.93C1303.7,-965.8 1316.45,-959.23 1327,-951 1335.85,-944.09 1343.11,-933.41 1347.69,-925.57"/>
<polygon fill="black" stroke="black" points="1350.89,-927 1352.52,-916.53 1344.72,-923.7 1350.89,-927"/>
</g>
<!-- v38 -->
<g id="node24" class="node">
<title>v38</title>
<ellipse fill="none" stroke="black" cx="478" cy="-232.6" rx="119.68" ry="18"/>
<text text-anchor="middle" x="478" y="-228.9" font-family="Times-Roman" font-size="14.00">ENRICHMENT_ANALYSIS</text>
</g>
<!-- v6&#45;&gt;v38 -->
<g id="edge62" class="edge">
<title>v6&#45;&gt;v38</title>
<path fill="none" stroke="black" d="M1194.49,-970.66C1177.27,-964.78 1157.65,-957.84 1140,-951 929.78,-869.58 834.35,-889 691,-715 690.66,-714.58 582,-422.84 582,-422.3 582,-422.3 582,-422.3 582,-304.2 582,-280.22 562.85,-263.83 540.98,-252.91"/>
<polygon fill="black" stroke="black" points="542.38,-249.7 531.83,-248.71 539.45,-256.07 542.38,-249.7"/>
<text text-anchor="middle" x="724.5" y="-606.3" font-family="Times-Roman" font-size="14.00">preprocessed_data</text>
</g>
<!-- v1 -->
<g id="node3" class="node">
<title>v1</title>
<ellipse fill="black" stroke="black" cx="1192" cy="-1059.6" rx="3.6" ry="3.6"/>
<text text-anchor="middle" x="1126.4" y="-1067" font-family="Times-Roman" font-size="14.00">Channel.fromPath</text>
</g>
<!-- v1&#45;&gt;v6 -->
<g id="edge2" class="edge">
<title>v1&#45;&gt;v6</title>
<path fill="none" stroke="black" d="M1193.63,-1056.25C1198.27,-1049.57 1211.94,-1029.86 1223.42,-1013.34"/>
<polygon fill="black" stroke="black" points="1226.33,-1015.28 1229.15,-1005.07 1220.58,-1011.29 1226.33,-1015.28"/>
<text text-anchor="middle" x="1243.5" y="-1026.8" font-family="Times-Roman" font-size="14.00">data_ch</text>
</g>
<!-- v26 -->
<g id="node33" class="node">
<title>v26</title>
<ellipse fill="none" stroke="black" cx="700" cy="-377.8" rx="90.18" ry="18"/>
<text text-anchor="middle" x="700" y="-374.1" font-family="Times-Roman" font-size="14.00">PKN_EVALUATION</text>
</g>
<!-- v1&#45;&gt;v26 -->
<g id="edge43" class="edge">
<title>v1&#45;&gt;v26</title>
<path fill="none" stroke="black" d="M1189.99,-1056.15C1184.33,-1049.48 1167.53,-1030.94 1149,-1023 1086.88,-996.36 1053.17,-1044.04 998,-1005 970.09,-985.25 986.94,-961.35 964,-936 939.75,-909.21 912.54,-924.59 895,-893 848.81,-809.78 942.22,-765.72 903,-679 888.85,-647.72 870.35,-651.14 845,-628 827.82,-612.32 826.11,-605.27 807,-592 764.72,-562.63 730.23,-584.69 703,-541 694.54,-527.42 695.45,-519.11 703,-505 709.81,-492.28 718.82,-496.11 730,-487 758.56,-463.75 774.79,-462.78 789,-428.8 795.34,-413.63 785.4,-402.89 770.14,-395.36"/>
<polygon fill="black" stroke="black" points="771.19,-392 760.62,-391.28 768.44,-398.44 771.19,-392"/>
<text text-anchor="middle" x="940.5" y="-736.8" font-family="Times-Roman" font-size="14.00">data_ch</text>
</g>
<!-- v2 -->
<g id="node4" class="node">
<title>v2</title>
<ellipse fill="black" stroke="black" cx="1536" cy="-1059.6" rx="3.6" ry="3.6"/>
<text text-anchor="middle" x="1470.4" y="-1044.8" font-family="Times-Roman" font-size="14.00">Channel.fromPath</text>
</g>
<!-- v3 -->
<g id="node5" class="node">
<title>v3</title>
<ellipse fill="black" stroke="black" cx="1536" cy="-987" rx="1.8" ry="1.8"/>
</g>
<!-- v2&#45;&gt;v3 -->
<g id="edge3" class="edge">
<title>v2&#45;&gt;v3</title>
<path fill="none" stroke="black" d="M1536,-1055.92C1536,-1046.68 1536,-1015.8 1536,-999.05"/>
<polygon fill="black" stroke="black" points="1539.5,-998.96 1536,-988.96 1532.5,-998.96 1539.5,-998.96"/>
<text text-anchor="middle" x="1586" y="-1026.8" font-family="Times-Roman" font-size="14.00">name_map_ch</text>
</g>
<!-- v4 -->
<g id="node6" class="node">
<title>v4</title>
<ellipse fill="none" stroke="black" cx="996" cy="-145.6" rx="94.78" ry="18"/>
<text text-anchor="middle" x="996" y="-141.9" font-family="Times-Roman" font-size="14.00">LOG_PARAMETERS</text>
</g>
<!-- v4&#45;&gt;v47 -->
<g id="edge4" class="edge">
<title>v4&#45;&gt;v47</title>
<path fill="none" stroke="black" d="M968.62,-128.21C946.23,-114.81 914.38,-95.74 889.93,-81.11"/>
<polygon fill="black" stroke="black" points="891.67,-78.07 881.29,-75.94 888.08,-84.08 891.67,-78.07"/>
</g>
<!-- v48 -->
<g id="node49" class="node">
<title>v48</title>
<ellipse fill="black" stroke="black" cx="854" cy="-1.8" rx="1.8" ry="1.8"/>
</g>
<!-- v47&#45;&gt;v48 -->
<g id="edge84" class="edge">
<title>v47&#45;&gt;v48</title>
<path fill="none" stroke="black" d="M854,-40.56C854,-31.87 854,-21.56 854,-13.9"/>
<polygon fill="black" stroke="black" points="857.5,-13.76 854,-3.76 850.5,-13.76 857.5,-13.76"/>
</g>
<!-- v5 -->
<g id="node8" class="node">
<title>v5</title>
<ellipse fill="black" stroke="black" cx="811" cy="-1059.6" rx="3.6" ry="3.6"/>
</g>
<!-- v5&#45;&gt;v6 -->
<g id="edge5" class="edge">
<title>v5&#45;&gt;v6</title>
<path fill="none" stroke="black" d="M814.53,-1058.55C836.82,-1058.2 960.31,-1055.5 1059,-1038 1101.76,-1030.42 1149.03,-1017.28 1184.68,-1006.38"/>
<polygon fill="black" stroke="black" points="1185.89,-1009.67 1194.41,-1003.37 1183.82,-1002.98 1185.89,-1009.67"/>
<text text-anchor="middle" x="1157.5" y="-1026.8" font-family="Times-Roman" font-size="14.00">run_id_ch</text>
</g>
<!-- v5&#45;&gt;v47 -->
<g id="edge82" class="edge">
<title>v5&#45;&gt;v47</title>
<path fill="none" stroke="black" d="M814.61,-1058.6C852.64,-1058.62 1179.96,-1058.19 1275,-1038 1366.47,-1018.57 1421,-980.01 1421,-886.5 1421,-886.5 1421,-886.5 1421,-609 1421,-486.19 1459,-458.11 1459,-335.3 1459,-335.3 1459,-335.3 1459,-144.6 1459,-112.77 1445.39,-116.63 1331,-94.6 1205.39,-70.41 1058.23,-62.66 960.94,-60.32"/>
<polygon fill="black" stroke="black" points="960.88,-56.82 950.8,-60.09 960.72,-63.82 960.88,-56.82"/>
<text text-anchor="middle" x="1456.5" y="-562.8" font-family="Times-Roman" font-size="14.00">run_id_ch</text>
</g>
<!-- v5&#45;&gt;v31 -->
<g id="edge52" class="edge">
<title>v5&#45;&gt;v31</title>
<path fill="none" stroke="black" d="M814.68,-1058.48C850.72,-1057.05 1139,-1040.84 1139,-886.5 1139,-886.5 1139,-886.5 1139,-739.5 1139,-704.57 1135.89,-695.92 1135,-661 1132.53,-564.19 1155.47,-541.66 1175,-446.8 1188.8,-379.8 1205.56,-301.07 1214.21,-260.61"/>
<polygon fill="black" stroke="black" points="1217.66,-261.23 1216.33,-250.72 1210.81,-259.77 1217.66,-261.23"/>
<text text-anchor="middle" x="1168.5" y="-649.8" font-family="Times-Roman" font-size="14.00">run_id_ch</text>
</g>
<!-- v5&#45;&gt;v41 -->
<g id="edge69" class="edge">
<title>v5&#45;&gt;v41</title>
<path fill="none" stroke="black" d="M807.34,-1058.61C762.43,-1058.75 316.92,-1059.56 187,-1038 111.83,-1025.52 23,-1064.2 23,-988 23,-988 23,-988 23,-376.8 23,-288.33 -3.06,-241.55 62,-181.6 73.91,-170.63 143.79,-162.13 213.34,-156.26"/>
<polygon fill="black" stroke="black" points="213.91,-159.73 223.59,-155.41 213.33,-152.75 213.91,-159.73"/>
<text text-anchor="middle" x="56.5" y="-606.3" font-family="Times-Roman" font-size="14.00">run_id_ch</text>
</g>
<!-- v5&#45;&gt;v14 -->
<g id="edge19" class="edge">
<title>v5&#45;&gt;v14</title>
<path fill="none" stroke="black" d="M808.47,-1056.73C798.71,-1049.25 764,-1020.39 764,-988 764,-988 764,-988 764,-768.5 764,-752.62 770.95,-736.47 778.47,-723.64"/>
<polygon fill="black" stroke="black" points="781.59,-725.26 783.96,-714.93 775.66,-721.53 781.59,-725.26"/>
<text text-anchor="middle" x="797.5" y="-881.8" font-family="Times-Roman" font-size="14.00">run_id_ch</text>
</g>
<!-- v12 -->
<g id="node17" class="node">
<title>v12</title>
<ellipse fill="none" stroke="black" cx="1005" cy="-842" rx="68.49" ry="18"/>
<text text-anchor="middle" x="1005" y="-838.3" font-family="Times-Roman" font-size="14.00">CLUSTERING</text>
</g>
<!-- v5&#45;&gt;v12 -->
<g id="edge16" class="edge">
<title>v5&#45;&gt;v12</title>
<path fill="none" stroke="black" d="M814.42,-1058.26C824.35,-1057.11 853.62,-1052.61 872,-1038 913.71,-1004.85 904.95,-980 935,-936 951.21,-912.27 971.01,-886.2 985.41,-867.72"/>
<polygon fill="black" stroke="black" points="988.21,-869.83 991.62,-859.8 982.7,-865.51 988.21,-869.83"/>
<text text-anchor="middle" x="968.5" y="-939.8" font-family="Times-Roman" font-size="14.00">run_id_ch</text>
</g>
<!-- v15 -->
<g id="node19" class="node">
<title>v15</title>
<ellipse fill="none" stroke="black" cx="516" cy="-610" rx="120.48" ry="18"/>
<text text-anchor="middle" x="516" y="-606.3" font-family="Times-Roman" font-size="14.00">NETWORK_GENERATION</text>
</g>
<!-- v5&#45;&gt;v15 -->
<g id="edge22" class="edge">
<title>v5&#45;&gt;v15</title>
<path fill="none" stroke="black" d="M807.43,-1058.69C769.93,-1059.59 450,-1064.95 450,-988 450,-988 450,-988 450,-696 450,-671.54 467.27,-649.86 484.14,-634.52"/>
<polygon fill="black" stroke="black" points="486.5,-637.1 491.8,-627.93 481.94,-631.8 486.5,-637.1"/>
<text text-anchor="middle" x="483.5" y="-838.3" font-family="Times-Roman" font-size="14.00">run_id_ch</text>
</g>
<!-- v5&#45;&gt;v38 -->
<g id="edge63" class="edge">
<title>v5&#45;&gt;v38</title>
<path fill="none" stroke="black" d="M807.27,-1058.63C752.72,-1059.03 118,-1062.07 118,-988 118,-988 118,-988 118,-652.5 118,-516.91 101.98,-449.1 204,-359.8 265.5,-305.97 353.85,-270.87 413.45,-251.67"/>
<polygon fill="black" stroke="black" points="414.65,-254.96 423.13,-248.61 412.54,-248.29 414.65,-254.96"/>
<text text-anchor="middle" x="151.5" y="-649.8" font-family="Times-Roman" font-size="14.00">run_id_ch</text>
</g>
<!-- v20 -->
<g id="node27" class="node">
<title>v20</title>
<ellipse fill="none" stroke="black" cx="830" cy="-523" rx="117.78" ry="18"/>
<text text-anchor="middle" x="830" y="-519.3" font-family="Times-Roman" font-size="14.00">SUBNETWORK_GRAPHS</text>
</g>
<!-- v5&#45;&gt;v20 -->
<g id="edge37" class="edge">
<title>v5&#45;&gt;v20</title>
<path fill="none" stroke="black" d="M811.85,-1056.1C818.47,-1036.78 863.36,-909.78 928,-824 941.06,-806.67 946.93,-804.41 964,-791 995.12,-766.56 1038,-781.07 1038,-741.5 1038,-741.5 1038,-741.5 1038,-609 1038,-563.84 995.47,-542.14 948.87,-531.92"/>
<polygon fill="black" stroke="black" points="949.37,-528.45 938.87,-529.91 947.99,-535.31 949.37,-528.45"/>
<text text-anchor="middle" x="997.5" y="-794.8" font-family="Times-Roman" font-size="14.00">run_id_ch</text>
</g>
<!-- v5&#45;&gt;v26 -->
<g id="edge44" class="edge">
<title>v5&#45;&gt;v26</title>
<path fill="none" stroke="black" d="M807.24,-1058.45C774.91,-1057.02 545,-1044.86 545,-988 545,-988 545,-988 545,-884.5 545,-855.57 534.58,-849.54 521,-824 471.46,-730.83 418.17,-728.82 387,-628 367.33,-564.38 342.19,-480.41 409,-413.8 422.85,-400 524.93,-390.15 604.33,-384.49"/>
<polygon fill="black" stroke="black" points="604.65,-387.98 614.38,-383.79 604.16,-380.99 604.65,-387.98"/>
<text text-anchor="middle" x="499.5" y="-736.8" font-family="Times-Roman" font-size="14.00">run_id_ch</text>
</g>
<!-- v11&#45;&gt;v12 -->
<g id="edge15" class="edge">
<title>v11&#45;&gt;v12</title>
<path fill="none" stroke="black" d="M1104.48,-911.76C1095.16,-905.32 1061.9,-882.33 1036.38,-864.69"/>
<polygon fill="black" stroke="black" points="1038.28,-861.75 1028.07,-858.94 1034.3,-867.51 1038.28,-861.75"/>
</g>
<!-- v33 -->
<g id="node40" class="node">
<title>v33</title>
<ellipse fill="black" stroke="black" cx="1208" cy="-145.6" rx="1.8" ry="1.8"/>
</g>
<!-- v31&#45;&gt;v33 -->
<g id="edge54" class="edge">
<title>v31&#45;&gt;v33</title>
<path fill="none" stroke="black" d="M1217.57,-214.4C1215.19,-197.52 1211.62,-172.26 1209.58,-157.82"/>
<polygon fill="black" stroke="black" points="1213.02,-157.09 1208.15,-147.68 1206.09,-158.07 1213.02,-157.09"/>
</g>
<!-- v32 -->
<g id="node41" class="node">
<title>v32</title>
<ellipse fill="black" stroke="black" cx="1233" cy="-145.6" rx="1.8" ry="1.8"/>
</g>
<!-- v31&#45;&gt;v32 -->
<g id="edge55" class="edge">
<title>v31&#45;&gt;v32</title>
<path fill="none" stroke="black" d="M1222.63,-214.4C1225.21,-197.52 1229.08,-172.26 1231.28,-157.82"/>
<polygon fill="black" stroke="black" points="1234.78,-158.1 1232.83,-147.68 1227.86,-157.04 1234.78,-158.1"/>
</g>
<!-- v41&#45;&gt;v47 -->
<g id="edge71" class="edge">
<title>v41&#45;&gt;v47</title>
<path fill="none" stroke="black" d="M416.9,-128.43C454.54,-117.47 506.48,-103.41 553,-94.6 620.43,-81.83 697.3,-72.98 756.48,-67.38"/>
<polygon fill="black" stroke="black" points="756.94,-70.85 766.57,-66.44 756.29,-63.88 756.94,-70.85"/>
</g>
<!-- v42 -->
<g id="node45" class="node">
<title>v42</title>
<ellipse fill="black" stroke="black" cx="364" cy="-58.6" rx="1.8" ry="1.8"/>
</g>
<!-- v41&#45;&gt;v42 -->
<g id="edge72" class="edge">
<title>v41&#45;&gt;v42</title>
<path fill="none" stroke="black" d="M364,-127.4C364,-110.52 364,-85.26 364,-70.82"/>
<polygon fill="black" stroke="black" points="367.5,-70.68 364,-60.68 360.5,-70.68 367.5,-70.68"/>
</g>
<!-- v14&#45;&gt;v15 -->
<g id="edge20" class="edge">
<title>v14&#45;&gt;v15</title>
<path fill="none" stroke="black" d="M744.78,-681.77C695.72,-667.51 622.67,-645.46 572.33,-629.77"/>
<polygon fill="black" stroke="black" points="573.17,-626.36 562.58,-626.72 571.08,-633.04 573.17,-626.36"/>
</g>
<!-- v14&#45;&gt;v15 -->
<g id="edge21" class="edge">
<title>v14&#45;&gt;v15</title>
<path fill="none" stroke="black" d="M752.39,-680.9C706.2,-666.38 633.71,-644.42 581.13,-629"/>
<polygon fill="black" stroke="black" points="581.81,-625.55 571.22,-626.1 579.84,-632.27 581.81,-625.55"/>
</g>
<!-- v14&#45;&gt;v20 -->
<g id="edge36" class="edge">
<title>v14&#45;&gt;v20</title>
<path fill="none" stroke="black" d="M800.28,-678.88C806.02,-649 817.89,-587.11 824.77,-551.27"/>
<polygon fill="black" stroke="black" points="828.28,-551.53 826.73,-541.05 821.41,-550.21 828.28,-551.53"/>
<text text-anchor="middle" x="883.5" y="-606.3" font-family="Times-Roman" font-size="14.00">preprocessing_files</text>
</g>
<!-- v10 -->
<g id="node16" class="node">
<title>v10</title>
<ellipse fill="black" stroke="black" cx="1011" cy="-987" rx="3.6" ry="3.6"/>
<text text-anchor="middle" x="960.4" y="-994.4" font-family="Times-Roman" font-size="14.00">Channel.from</text>
</g>
<!-- v10&#45;&gt;v11 -->
<g id="edge14" class="edge">
<title>v10&#45;&gt;v11</title>
<path fill="none" stroke="black" d="M1010.04,-983.34C1007.29,-975.17 1000.3,-950.21 1012,-936 1022.19,-923.64 1069.52,-918.34 1093.3,-916.42"/>
<polygon fill="black" stroke="black" points="1093.76,-919.9 1103.48,-915.7 1093.26,-912.92 1093.76,-919.9"/>
<text text-anchor="middle" x="1049.5" y="-939.8" font-family="Times-Roman" font-size="14.00">cluster_ids</text>
</g>
<!-- v13 -->
<g id="node18" class="node">
<title>v13</title>
<ellipse fill="none" stroke="black" cx="844" cy="-769.5" rx="3.5" ry="3.5"/>
<text text-anchor="middle" x="818" y="-776.8" font-family="Times-Roman" font-size="14.00">collect</text>
</g>
<!-- v12&#45;&gt;v13 -->
<g id="edge17" class="edge">
<title>v12&#45;&gt;v13</title>
<path fill="none" stroke="black" d="M971.25,-826.22C935.43,-810.54 880.72,-786.58 856.4,-775.93"/>
<polygon fill="black" stroke="black" points="857.68,-772.67 847.12,-771.86 854.87,-779.08 857.68,-772.67"/>
</g>
<!-- v45 -->
<g id="node47" class="node">
<title>v45</title>
<ellipse fill="none" stroke="black" cx="1089" cy="-740.5" rx="3.5" ry="3.5"/>
<text text-anchor="middle" x="1063" y="-747.8" font-family="Times-Roman" font-size="14.00">collect</text>
</g>
<!-- v12&#45;&gt;v45 -->
<g id="edge76" class="edge">
<title>v12&#45;&gt;v45</title>
<path fill="none" stroke="black" d="M1019.25,-824.12C1036.78,-803.36 1065.98,-768.77 1080.4,-751.68"/>
<polygon fill="black" stroke="black" points="1083.21,-753.78 1086.99,-743.89 1077.86,-749.27 1083.21,-753.78"/>
</g>
<!-- v13&#45;&gt;v14 -->
<g id="edge18" class="edge">
<title>v13&#45;&gt;v14</title>
<path fill="none" stroke="black" d="M840.56,-768.18C831.68,-767.14 807.96,-763.01 798,-748 793.59,-741.36 792.22,-733.05 792.27,-725.13"/>
<polygon fill="black" stroke="black" points="795.76,-725.34 793.02,-715.11 788.78,-724.82 795.76,-725.34"/>
<text text-anchor="middle" x="849" y="-736.8" font-family="Times-Roman" font-size="14.00">clustered_data</text>
</g>
<!-- v15&#45;&gt;v47 -->
<g id="edge78" class="edge">
<title>v15&#45;&gt;v47</title>
<path fill="none" stroke="black" d="M602.44,-597.48C618.25,-595.53 634.61,-593.62 650,-592 725.98,-584.02 943.44,-601.57 990,-541 999.75,-528.31 992.35,-520.83 990,-505 977.41,-420.06 892.08,-169.43 863.39,-86.55"/>
<polygon fill="black" stroke="black" points="866.61,-85.16 860.03,-76.86 860,-87.46 866.61,-85.16"/>
<text text-anchor="middle" x="1005.5" y="-330.6" font-family="Times-Roman" font-size="14.00">filtered_modules</text>
</g>
<!-- v15&#45;&gt;v47 -->
<g id="edge79" class="edge">
<title>v15&#45;&gt;v47</title>
<path fill="none" stroke="black" d="M398.12,-606.31C321.9,-602.64 230.99,-594.05 198,-574 164.12,-553.41 0,-316.75 0,-277.1 0,-277.1 0,-277.1 0,-144.6 0,-107.25 524.07,-76.26 751.13,-64.58"/>
<polygon fill="black" stroke="black" points="751.58,-68.06 761.39,-64.06 751.22,-61.07 751.58,-68.06"/>
<text text-anchor="middle" x="74" y="-330.6" font-family="Times-Roman" font-size="14.00">network_files</text>
</g>
<!-- v15&#45;&gt;v47 -->
<g id="edge80" class="edge">
<title>v15&#45;&gt;v47</title>
<path fill="none" stroke="black" d="M601.2,-597.28C727.75,-579.67 951.22,-547.73 957,-541 967.42,-528.85 962.58,-520 957,-505 923.57,-415.16 849.43,-431.64 816,-341.8 798.68,-295.25 831.96,-147.92 847.08,-86.69"/>
<polygon fill="black" stroke="black" points="850.56,-87.18 849.59,-76.63 843.77,-85.49 850.56,-87.18"/>
<text text-anchor="middle" x="877.5" y="-330.6" font-family="Times-Roman" font-size="14.00">coherence_scores</text>
</g>
<!-- v15&#45;&gt;v31 -->
<g id="edge33" class="edge">
<title>v15&#45;&gt;v31</title>
<path fill="none" stroke="black" d="M600.96,-597.2C617.21,-595.23 634.11,-593.38 650,-592 691.78,-588.36 988.82,-591.36 1027,-574 1055.04,-561.25 1075,-554.8 1075,-524 1075,-524 1075,-524 1075,-420.3 1075,-348.54 1142.64,-287.71 1185.52,-256.36"/>
<polygon fill="black" stroke="black" points="1187.64,-259.15 1193.74,-250.49 1183.57,-253.45 1187.64,-259.15"/>
</g>
<!-- v15&#45;&gt;v41 -->
<g id="edge34" class="edge">
<title>v15&#45;&gt;v41</title>
<path fill="none" stroke="black" d="M404.84,-603.13C323.58,-597.7 225.32,-588.28 212,-574 152.53,-510.23 156.18,-248.59 212,-181.6 218.59,-173.69 234.68,-167.39 254.05,-162.44"/>
<polygon fill="black" stroke="black" points="254.87,-165.84 263.79,-160.12 253.25,-159.03 254.87,-165.84"/>
</g>
<!-- v15&#45;&gt;v41 -->
<g id="edge67" class="edge">
<title>v15&#45;&gt;v41</title>
<path fill="none" stroke="black" d="M419.43,-599.17C335.07,-587.82 226,-565.19 226,-524 226,-524 226,-524 226,-231.6 226,-198.96 254.33,-178.45 285.33,-165.77"/>
<polygon fill="black" stroke="black" points="286.9,-168.92 295,-162.09 284.41,-162.38 286.9,-168.92"/>
<text text-anchor="middle" x="283.5" y="-374.1" font-family="Times-Roman" font-size="14.00">filtered_modules</text>
</g>
<!-- v34 -->
<g id="node20" class="node">
<title>v34</title>
<ellipse fill="none" stroke="black" cx="306" cy="-479.5" rx="3.5" ry="3.5"/>
<text text-anchor="middle" x="275" y="-486.8" font-family="Times-Roman" font-size="14.00">ifEmpty</text>
</g>
<!-- v15&#45;&gt;v34 -->
<g id="edge23" class="edge">
<title>v15&#45;&gt;v34</title>
<path fill="none" stroke="black" d="M416.38,-599.89C379.39,-594.55 343.19,-586.36 330,-574 307.42,-552.85 304.93,-513.57 305.29,-493.32"/>
<polygon fill="black" stroke="black" points="308.79,-493.46 305.75,-483.31 301.79,-493.14 308.79,-493.46"/>
</g>
<!-- v35 -->
<g id="node21" class="node">
<title>v35</title>
<ellipse fill="none" stroke="black" cx="353" cy="-421.3" rx="3.5" ry="3.5"/>
<text text-anchor="middle" x="322" y="-428.6" font-family="Times-Roman" font-size="14.00">ifEmpty</text>
</g>
<!-- v15&#45;&gt;v35 -->
<g id="edge24" class="edge">
<title>v15&#45;&gt;v35</title>
<path fill="none" stroke="black" d="M443.53,-595.61C429.92,-590.56 416.64,-583.59 406,-574 364.31,-536.42 355.41,-464.22 353.51,-435.02"/>
<polygon fill="black" stroke="black" points="357.01,-434.73 353.04,-424.91 350.01,-435.06 357.01,-434.73"/>
</g>
<!-- v36 -->
<g id="node22" class="node">
<title>v36</title>
<ellipse fill="none" stroke="black" cx="369" cy="-334.3" rx="3.5" ry="3.5"/>
<text text-anchor="middle" x="338" y="-341.6" font-family="Times-Roman" font-size="14.00">ifEmpty</text>
</g>
<!-- v15&#45;&gt;v36 -->
<g id="edge25" class="edge">
<title>v15&#45;&gt;v36</title>
<path fill="none" stroke="black" d="M413.79,-600.45C372.4,-595.13 330.68,-586.79 315,-574 270.47,-537.7 276.54,-502.13 292,-446.8 296.61,-430.28 299.6,-425.65 312,-413.8 324.08,-402.26 333.93,-408.31 345,-395.8 357.26,-381.95 363.65,-361.08 366.67,-347.82"/>
<polygon fill="black" stroke="black" points="370.12,-348.42 368.61,-337.93 363.25,-347.07 370.12,-348.42"/>
</g>
<!-- v23 -->
<g id="node23" class="node">
<title>v23</title>
<ellipse fill="none" stroke="black" cx="533" cy="-523" rx="3.5" ry="3.5"/>
<text text-anchor="middle" x="516.5" y="-530.3" font-family="Times-Roman" font-size="14.00">mix</text>
</g>
<!-- v15&#45;&gt;v23 -->
<g id="edge26" class="edge">
<title>v15&#45;&gt;v23</title>
<path fill="none" stroke="black" d="M513.89,-591.8C515.44,-574.82 520.81,-549.37 526.1,-534.97"/>
<polygon fill="black" stroke="black" points="529.28,-536.43 530.43,-525.89 522.97,-533.41 529.28,-536.43"/>
</g>
<!-- v15&#45;&gt;v23 -->
<g id="edge27" class="edge">
<title>v15&#45;&gt;v23</title>
<path fill="none" stroke="black" d="M524.99,-591.8C530.08,-575.31 534.76,-550.83 535.46,-536.24"/>
<polygon fill="black" stroke="black" points="538.95,-535.91 534.88,-526.13 531.96,-536.31 538.95,-535.91"/>
</g>
<!-- v15&#45;&gt;v38 -->
<g id="edge28" class="edge">
<title>v15&#45;&gt;v38</title>
<path fill="none" stroke="black" d="M502.84,-591.94C493.59,-578.82 482.01,-559.81 477,-541 472.88,-525.54 472.01,-520.2 477,-505 490.1,-465.06 519.9,-468.74 533,-428.8 535.08,-422.47 533.81,-420.42 533,-413.8 524.94,-347.8 521.05,-330.58 497,-268.6 495.86,-265.67 494.53,-262.67 493.1,-259.72"/>
<polygon fill="black" stroke="black" points="496.09,-257.89 488.37,-250.63 489.88,-261.12 496.09,-257.89"/>
</g>
<!-- v15&#45;&gt;v38 -->
<g id="edge61" class="edge">
<title>v15&#45;&gt;v38</title>
<path fill="none" stroke="black" d="M495.91,-592.03C490.3,-586.65 484.51,-580.42 480,-574 439.21,-516.02 429.01,-498.08 414,-428.8 412.59,-422.28 410.72,-419.6 414,-413.8 421.66,-400.27 434.37,-408.01 444,-395.8 468.91,-364.21 461.86,-348.39 469,-308.8 471.85,-293.02 474.02,-275.22 475.52,-260.89"/>
<polygon fill="black" stroke="black" points="479.03,-261.01 476.54,-250.71 472.06,-260.31 479.03,-261.01"/>
<text text-anchor="middle" x="471.5" y="-417.6" font-family="Times-Roman" font-size="14.00">filtered_modules</text>
</g>
<!-- v19 -->
<g id="node25" class="node">
<title>v19</title>
<ellipse fill="black" stroke="black" cx="488" cy="-523" rx="1.8" ry="1.8"/>
</g>
<!-- v15&#45;&gt;v19 -->
<g id="edge29" class="edge">
<title>v15&#45;&gt;v19</title>
<path fill="none" stroke="black" d="M510.33,-591.8C504.71,-574.74 496.28,-549.14 491.55,-534.77"/>
<polygon fill="black" stroke="black" points="494.81,-533.49 488.36,-525.08 488.16,-535.68 494.81,-533.49"/>
</g>
<!-- v18 -->
<g id="node26" class="node">
<title>v18</title>
<ellipse fill="black" stroke="black" cx="510" cy="-523" rx="1.8" ry="1.8"/>
</g>
<!-- v15&#45;&gt;v18 -->
<g id="edge30" class="edge">
<title>v15&#45;&gt;v18</title>
<path fill="none" stroke="black" d="M514.79,-591.8C513.59,-574.92 511.81,-549.66 510.79,-535.22"/>
<polygon fill="black" stroke="black" points="514.27,-534.81 510.08,-525.08 507.29,-535.3 514.27,-534.81"/>
</g>
<!-- v15&#45;&gt;v20 -->
<g id="edge31" class="edge">
<title>v15&#45;&gt;v20</title>
<path fill="none" stroke="black" d="M578.18,-594.57C603.62,-588.49 633.29,-581.17 660,-574 696.75,-564.13 737.68,-552.13 770.17,-542.35"/>
<polygon fill="black" stroke="black" points="771.4,-545.64 779.97,-539.4 769.38,-538.94 771.4,-545.64"/>
</g>
<!-- v17 -->
<g id="node28" class="node">
<title>v17</title>
<ellipse fill="black" stroke="black" cx="556" cy="-523" rx="1.8" ry="1.8"/>
</g>
<!-- v15&#45;&gt;v17 -->
<g id="edge32" class="edge">
<title>v15&#45;&gt;v17</title>
<path fill="none" stroke="black" d="M535.19,-591.99C540.09,-586.7 544.85,-580.53 548,-574 553.95,-561.67 555.62,-545.83 556.02,-535.32"/>
<polygon fill="black" stroke="black" points="559.52,-535.33 556.06,-525.32 552.52,-535.3 559.52,-535.33"/>
</g>
<!-- v16 -->
<g id="node29" class="node">
<title>v16</title>
<ellipse fill="black" stroke="black" cx="578" cy="-523" rx="1.8" ry="1.8"/>
</g>
<!-- v15&#45;&gt;v16 -->
<g id="edge35" class="edge">
<title>v15&#45;&gt;v16</title>
<path fill="none" stroke="black" d="M546.15,-592.45C553.2,-587.34 560.08,-581.15 565,-574 572.92,-562.49 576.01,-546.48 577.22,-535.7"/>
<polygon fill="black" stroke="black" points="580.74,-535.6 577.98,-525.37 573.76,-535.09 580.74,-535.6"/>
</g>
<!-- v15&#45;&gt;v26 -->
<g id="edge42" class="edge">
<title>v15&#45;&gt;v26</title>
<path fill="none" stroke="black" d="M556.05,-592.83C565.6,-587.75 575.26,-581.47 583,-574 641.91,-517.13 629.28,-482.39 674,-413.8 676.06,-410.63 678.31,-407.37 680.59,-404.17"/>
<polygon fill="black" stroke="black" points="683.53,-406.09 686.61,-395.95 677.88,-401.95 683.53,-406.09"/>
<text text-anchor="middle" x="685" y="-475.8" font-family="Times-Roman" font-size="14.00">viewer_files</text>
</g>
<!-- v34&#45;&gt;v38 -->
<g id="edge56" class="edge">
<title>v34&#45;&gt;v38</title>
<path fill="none" stroke="black" d="M306.78,-475.98C309.75,-466.73 321.15,-434.05 340,-413.8 350.34,-402.7 358.08,-406.33 369,-395.8 391.54,-374.06 438.26,-299.32 462.56,-259.33"/>
<polygon fill="black" stroke="black" points="465.62,-261.02 467.81,-250.66 459.64,-257.4 465.62,-261.02"/>
</g>
<!-- v35&#45;&gt;v38 -->
<g id="edge57" class="edge">
<title>v35&#45;&gt;v38</title>
<path fill="none" stroke="black" d="M355.96,-418.93C358.96,-417.56 363.76,-415.43 368,-413.8 391.21,-404.85 403.32,-413.3 421,-395.8 430.92,-385.98 456.76,-303.95 469.97,-260.45"/>
<polygon fill="black" stroke="black" points="473.35,-261.38 472.89,-250.79 466.65,-259.35 473.35,-261.38"/>
</g>
<!-- v36&#45;&gt;v38 -->
<g id="edge58" class="edge">
<title>v36&#45;&gt;v38</title>
<path fill="none" stroke="black" d="M369.23,-330.69C370.21,-321.1 374.86,-287.39 393,-268.6 398.89,-262.49 406.01,-257.41 413.58,-253.2"/>
<polygon fill="black" stroke="black" points="415.28,-256.26 422.64,-248.63 412.13,-250.01 415.28,-256.26"/>
</g>
<!-- v24 -->
<g id="node32" class="node">
<title>v24</title>
<ellipse fill="none" stroke="black" cx="614" cy="-450.4" rx="3.5" ry="3.5"/>
<text text-anchor="middle" x="588" y="-457.7" font-family="Times-Roman" font-size="14.00">collect</text>
</g>
<!-- v23&#45;&gt;v24 -->
<g id="edge40" class="edge">
<title>v23&#45;&gt;v24</title>
<path fill="none" stroke="black" d="M534.5,-519.4C536.58,-515.91 540.61,-509.6 545,-505 563.2,-485.95 588.47,-468.07 602.84,-458.55"/>
<polygon fill="black" stroke="black" points="604.9,-461.38 611.4,-453.01 601.1,-455.5 604.9,-461.38"/>
</g>
<!-- v38&#45;&gt;v47 -->
<g id="edge81" class="edge">
<title>v38&#45;&gt;v47</title>
<path fill="none" stroke="black" d="M493.74,-214.73C519.94,-186.83 570.62,-133.51 581,-127.6 636.56,-96 706.65,-78.94 761.9,-69.81"/>
<polygon fill="black" stroke="black" points="762.71,-73.22 772.03,-68.19 761.61,-66.31 762.71,-73.22"/>
<text text-anchor="middle" x="647.5" y="-141.9" font-family="Times-Roman" font-size="14.00">enrichment_results</text>
</g>
<!-- v38&#45;&gt;v41 -->
<g id="edge64" class="edge">
<title>v38&#45;&gt;v41</title>
<path fill="none" stroke="black" d="M455.48,-214.81C438.18,-201.91 414.1,-183.96 394.99,-169.7"/>
<polygon fill="black" stroke="black" points="396.98,-166.82 386.87,-163.65 392.79,-172.43 396.98,-166.82"/>
</g>
<!-- v22 -->
<g id="node30" class="node">
<title>v22</title>
<ellipse fill="black" stroke="black" cx="817" cy="-450.4" rx="1.8" ry="1.8"/>
</g>
<!-- v20&#45;&gt;v22 -->
<g id="edge38" class="edge">
<title>v20&#45;&gt;v22</title>
<path fill="none" stroke="black" d="M826.85,-504.91C824.4,-491.6 821.07,-473.52 818.98,-462.16"/>
<polygon fill="black" stroke="black" points="822.4,-461.42 817.15,-452.22 815.52,-462.69 822.4,-461.42"/>
</g>
<!-- v21 -->
<g id="node31" class="node">
<title>v21</title>
<ellipse fill="black" stroke="black" cx="842" cy="-450.4" rx="1.8" ry="1.8"/>
</g>
<!-- v20&#45;&gt;v21 -->
<g id="edge39" class="edge">
<title>v20&#45;&gt;v21</title>
<path fill="none" stroke="black" d="M832.9,-504.91C835.17,-491.6 838.24,-473.52 840.17,-462.16"/>
<polygon fill="black" stroke="black" points="843.63,-462.67 841.86,-452.22 836.73,-461.5 843.63,-462.67"/>
</g>
<!-- v24&#45;&gt;v26 -->
<g id="edge41" class="edge">
<title>v24&#45;&gt;v26</title>
<path fill="none" stroke="black" d="M614.69,-446.83C616.53,-440.48 622.05,-423.83 632,-413.8 637.59,-408.17 644.28,-403.26 651.24,-399.04"/>
<polygon fill="black" stroke="black" points="653.13,-402 660.16,-394.07 649.72,-395.88 653.13,-402"/>
</g>
<!-- v44 -->
<g id="node35" class="node">
<title>v44</title>
<ellipse fill="none" stroke="black" cx="728" cy="-276.1" rx="3.5" ry="3.5"/>
<text text-anchor="middle" x="697" y="-283.4" font-family="Times-Roman" font-size="14.00">ifEmpty</text>
</g>
<!-- v26&#45;&gt;v44 -->
<g id="edge46" class="edge">
<title>v26&#45;&gt;v44</title>
<path fill="none" stroke="black" d="M706.92,-359.5C709.03,-353.9 711.25,-347.64 713,-341.8 718.37,-323.91 722.95,-302.75 725.59,-289.63"/>
<polygon fill="black" stroke="black" points="729.07,-290.08 727.54,-279.6 722.2,-288.75 729.07,-290.08"/>
</g>
<!-- v29 -->
<g id="node36" class="node">
<title>v29</title>
<ellipse fill="none" stroke="black" cx="799" cy="-305.2" rx="3.5" ry="3.5"/>
<text text-anchor="middle" x="768" y="-312.5" font-family="Times-Roman" font-size="14.00">ifEmpty</text>
</g>
<!-- v26&#45;&gt;v29 -->
<g id="edge47" class="edge">
<title>v26&#45;&gt;v29</title>
<path fill="none" stroke="black" d="M733.97,-361.09C744.35,-355.62 755.52,-349.02 765,-341.8 774.83,-334.31 784.41,-323.92 790.88,-316.3"/>
<polygon fill="black" stroke="black" points="793.75,-318.31 797.35,-308.35 788.32,-313.89 793.75,-318.31"/>
</g>
<!-- v28 -->
<g id="node37" class="node">
<title>v28</title>
<ellipse fill="black" stroke="black" cx="676" cy="-305.2" rx="1.8" ry="1.8"/>
</g>
<!-- v26&#45;&gt;v28 -->
<g id="edge48" class="edge">
<title>v26&#45;&gt;v28</title>
<path fill="none" stroke="black" d="M694.19,-359.71C689.61,-346.25 683.38,-327.92 679.53,-316.59"/>
<polygon fill="black" stroke="black" points="682.81,-315.36 676.28,-307.02 676.18,-317.62 682.81,-315.36"/>
</g>
<!-- v27 -->
<g id="node38" class="node">
<title>v27</title>
<ellipse fill="black" stroke="black" cx="698" cy="-305.2" rx="1.8" ry="1.8"/>
</g>
<!-- v26&#45;&gt;v27 -->
<g id="edge49" class="edge">
<title>v26&#45;&gt;v27</title>
<path fill="none" stroke="black" d="M699.52,-359.71C699.14,-346.54 698.64,-328.72 698.32,-317.34"/>
<polygon fill="black" stroke="black" points="701.81,-316.92 698.02,-307.02 694.81,-317.12 701.81,-316.92"/>
</g>
<!-- v37 -->
<g id="node42" class="node">
<title>v37</title>
<ellipse fill="none" stroke="black" cx="614" cy="-305.2" rx="3.5" ry="3.5"/>
<text text-anchor="middle" x="583" y="-312.5" font-family="Times-Roman" font-size="14.00">ifEmpty</text>
</g>
<!-- v26&#45;&gt;v37 -->
<g id="edge59" class="edge">
<title>v26&#45;&gt;v37</title>
<path fill="none" stroke="black" d="M660.16,-361.53C650.12,-356.36 639.95,-349.81 632,-341.8 625.47,-335.22 620.84,-325.79 617.92,-318.28"/>
<polygon fill="black" stroke="black" points="621.22,-317.11 614.69,-308.77 614.59,-319.36 621.22,-317.11"/>
</g>
<!-- v39 -->
<g id="node43" class="node">
<title>v39</title>
<ellipse fill="none" stroke="black" cx="639" cy="-276.1" rx="3.5" ry="3.5"/>
<text text-anchor="middle" x="608" y="-283.4" font-family="Times-Roman" font-size="14.00">ifEmpty</text>
</g>
<!-- v26&#45;&gt;v39 -->
<g id="edge65" class="edge">
<title>v26&#45;&gt;v39</title>
<path fill="none" stroke="black" d="M689.65,-359.89C677.16,-339.47 656.51,-305.71 645.84,-288.28"/>
<polygon fill="black" stroke="black" points="648.67,-286.19 640.46,-279.49 642.7,-289.85 648.67,-286.19"/>
</g>
<!-- v43 -->
<g id="node46" class="node">
<title>v43</title>
<ellipse fill="none" stroke="black" cx="766" cy="-189.1" rx="3.5" ry="3.5"/>
<text text-anchor="middle" x="735" y="-196.4" font-family="Times-Roman" font-size="14.00">ifEmpty</text>
</g>
<!-- v26&#45;&gt;v43 -->
<g id="edge73" class="edge">
<title>v26&#45;&gt;v43</title>
<path fill="none" stroke="black" d="M716.44,-360.1C721.08,-354.63 725.74,-348.29 729,-341.8 752.95,-294.14 761.94,-230.13 764.82,-203.05"/>
<polygon fill="black" stroke="black" points="768.34,-203.04 765.8,-192.75 761.37,-202.38 768.34,-203.04"/>
</g>
<!-- v25 -->
<g id="node34" class="node">
<title>v25</title>
<ellipse fill="black" stroke="black" cx="679" cy="-450.4" rx="3.6" ry="3.6"/>
</g>
<!-- v25&#45;&gt;v26 -->
<g id="edge45" class="edge">
<title>v25&#45;&gt;v26</title>
<path fill="none" stroke="black" d="M678.64,-446.74C677.93,-440.74 676.66,-425.71 680,-413.8 680.84,-410.8 682,-407.78 683.33,-404.84"/>
<polygon fill="black" stroke="black" points="686.5,-406.34 688.03,-395.86 680.3,-403.09 686.5,-406.34"/>
<text text-anchor="middle" x="734.5" y="-417.6" font-family="Times-Roman" font-size="14.00">regulator_types</text>
</g>
<!-- v44&#45;&gt;v47 -->
<g id="edge75" class="edge">
<title>v44&#45;&gt;v47</title>
<path fill="none" stroke="black" d="M728.3,-272.44C730.12,-257.12 740.81,-179.1 775,-127.6 786.74,-109.92 804.3,-94.17 819.89,-82.29"/>
<polygon fill="black" stroke="black" points="822.32,-84.84 828.3,-76.1 818.17,-79.21 822.32,-84.84"/>
</g>
<!-- v29&#45;&gt;v31 -->
<g id="edge50" class="edge">
<title>v29&#45;&gt;v31</title>
<path fill="none" stroke="black" d="M802.64,-303.59C830.61,-298.9 1013.36,-268.25 1127.57,-249.1"/>
<polygon fill="black" stroke="black" points="1128.44,-252.5 1137.72,-247.4 1127.28,-245.6 1128.44,-252.5"/>
</g>
<!-- v30 -->
<g id="node39" class="node">
<title>v30</title>
<ellipse fill="black" stroke="black" cx="1221" cy="-305.2" rx="3.6" ry="3.6"/>
</g>
<!-- v30&#45;&gt;v31 -->
<g id="edge53" class="edge">
<title>v30&#45;&gt;v31</title>
<path fill="none" stroke="black" d="M1220.96,-301.52C1220.87,-294.85 1220.61,-276.9 1220.39,-261.13"/>
<polygon fill="black" stroke="black" points="1223.88,-260.68 1220.24,-250.73 1216.88,-260.78 1223.88,-260.68"/>
<text text-anchor="middle" x="1274.5" y="-272.4" font-family="Times-Roman" font-size="14.00">regulator_types</text>
</g>
<!-- v37&#45;&gt;v38 -->
<g id="edge60" class="edge">
<title>v37&#45;&gt;v38</title>
<path fill="none" stroke="black" d="M613.34,-301.51C611.56,-294.88 606.06,-277.65 595,-268.6 585.64,-260.94 574.64,-254.96 563.21,-250.29"/>
<polygon fill="black" stroke="black" points="564.11,-246.89 553.52,-246.66 561.66,-253.45 564.11,-246.89"/>
</g>
<!-- v39&#45;&gt;v41 -->
<g id="edge66" class="edge">
<title>v39&#45;&gt;v41</title>
<path fill="none" stroke="black" d="M638.43,-272.57C636.19,-263.3 627.16,-230.86 607,-214.6 573.06,-187.23 528.78,-170.87 487.34,-161.09"/>
<polygon fill="black" stroke="black" points="487.95,-157.64 477.43,-158.86 486.42,-164.47 487.95,-157.64"/>
</g>
<!-- v40 -->
<g id="node44" class="node">
<title>v40</title>
<ellipse fill="black" stroke="black" cx="71" cy="-232.6" rx="3.6" ry="3.6"/>
</g>
<!-- v40&#45;&gt;v41 -->
<g id="edge70" class="edge">
<title>v40&#45;&gt;v41</title>
<path fill="none" stroke="black" d="M69.98,-228.89C67.07,-220.58 59.65,-195.25 72,-181.6 82.27,-170.26 146.92,-161.87 212.78,-156.15"/>
<polygon fill="black" stroke="black" points="213.26,-159.62 222.93,-155.29 212.67,-152.64 213.26,-159.62"/>
<text text-anchor="middle" x="126.5" y="-185.4" font-family="Times-Roman" font-size="14.00">regulator_types</text>
</g>
<!-- v43&#45;&gt;v47 -->
<g id="edge74" class="edge">
<title>v43&#45;&gt;v47</title>
<path fill="none" stroke="black" d="M767.18,-185.66C772.56,-174.62 795.68,-128.34 821,-94.6 823.72,-90.97 826.78,-87.3 829.9,-83.78"/>
<polygon fill="black" stroke="black" points="832.53,-86.09 836.74,-76.37 827.39,-81.34 832.53,-86.09"/>
</g>
<!-- v45&#45;&gt;v47 -->
<g id="edge77" class="edge">
<title>v45&#45;&gt;v47</title>
<path fill="none" stroke="black" d="M1089.42,-736.96C1092.6,-717.26 1113,-587.07 1113,-480.5 1113,-480.5 1113,-480.5 1113,-376.8 1113,-317.1 1077.38,-309.39 1067,-250.6 1064.22,-234.84 1062.47,-229.94 1067,-214.6 1074.65,-188.71 1092.35,-189.49 1100,-163.6 1104.53,-148.26 1109.69,-140.33 1100,-127.6 1080.23,-101.62 1001.7,-83.02 938.62,-71.91"/>
<polygon fill="black" stroke="black" points="939.08,-68.44 928.64,-70.19 937.9,-75.34 939.08,-68.44"/>
</g>
<!-- v46 -->
<g id="node48" class="node">
<title>v46</title>
<ellipse fill="black" stroke="black" cx="1152" cy="-145.6" rx="3.6" ry="3.6"/>
</g>
<!-- v46&#45;&gt;v47 -->
<g id="edge83" class="edge">
<title>v46&#45;&gt;v47</title>
<path fill="none" stroke="black" d="M1151.7,-141.74C1150.63,-133.02 1146.11,-106.63 1130,-94.6 1103.4,-74.74 1025.8,-66.12 959.64,-62.39"/>
<polygon fill="black" stroke="black" points="959.72,-58.89 949.55,-61.86 959.35,-65.88 959.72,-58.89"/>
<text text-anchor="middle" x="1195.5" y="-98.4" font-family="Times-Roman" font-size="14.00">regulator_types</text>
</g>
</g>
</svg>
