<?xml version="1.0" encoding="UTF-8" standalone="no"?>
<!DOCTYPE svg PUBLIC "-//W3C//DTD SVG 1.1//EN"
 "http://www.w3.org/Graphics/SVG/1.1/DTD/svg11.dtd">
<!-- Generated by graphviz version 2.44.0 (0)
 -->
<!-- Title: pipeline_dag_20260303_102246 Pages: 1 -->
<svg width="1685pt" height="1086pt"
 viewBox="0.00 0.00 1685.06 1086.20" xmlns="http://www.w3.org/2000/svg" xmlns:xlink="http://www.w3.org/1999/xlink">
<g id="graph0" class="graph" transform="scale(1 1) rotate(0) translate(4 1082.2)">
<title>pipeline_dag_20260303_102246</title>
<polygon fill="white" stroke="transparent" points="-4,4 -4,-1082.2 1681.06,-1082.2 1681.06,4 -4,4"/>
<!-- v0 -->
<g id="node1" class="node">
<title>v0</title>
<ellipse fill="black" stroke="black" cx="361" cy="-1059.6" rx="3.6" ry="3.6"/>
<text text-anchor="middle" x="295.4" y="-1067" font-family="Times-Roman" font-size="14.00">Channel.fromPath</text>
</g>
<!-- v6 -->
<g id="node2" class="node">
<title>v6</title>
<ellipse fill="none" stroke="black" cx="722" cy="-987" rx="108.58" ry="18"/>
<text text-anchor="middle" x="722" y="-983.3" font-family="Times-Roman" font-size="14.00">PREPROCESSING_TFA</text>
</g>
<!-- v0&#45;&gt;v6 -->
<g id="edge1" class="edge">
<title>v0&#45;&gt;v6</title>
<path fill="none" stroke="black" d="M364.57,-1057.9C390.18,-1052.89 547.48,-1022.13 644.68,-1003.12"/>
<polygon fill="black" stroke="black" points="645.62,-1006.5 654.77,-1001.15 644.28,-999.63 645.62,-1006.5"/>
<text text-anchor="middle" x="572" y="-1026.8" font-family="Times-Roman" font-size="14.00">input_ch</text>
</g>
<!-- v31 -->
<g id="node12" class="node">
<title>v31</title>
<ellipse fill="none" stroke="black" cx="284" cy="-232.6" rx="143.77" ry="18"/>
<text text-anchor="middle" x="284" y="-228.9" font-family="Times-Roman" font-size="14.00">MODULE_VIEWER_HEATMAPS</text>
</g>
<!-- v0&#45;&gt;v31 -->
<g id="edge52" class="edge">
<title>v0&#45;&gt;v31</title>
<path fill="none" stroke="black" d="M357.35,-1058.62C327.67,-1058.71 125.6,-1058.58 69,-1038 33.41,-1025.06 0,-1025.87 0,-988 0,-988 0,-988 0,-565.5 0,-504.75 62.72,-299.09 98,-268.6 109.34,-258.8 136.2,-251.55 166.08,-246.26"/>
<polygon fill="black" stroke="black" points="167.04,-249.65 176.32,-244.54 165.88,-242.75 167.04,-249.65"/>
<text text-anchor="middle" x="30" y="-649.8" font-family="Times-Roman" font-size="14.00">input_ch</text>
</g>
<!-- v49 -->
<g id="node9" class="node">
<title>v49</title>
<ellipse fill="none" stroke="black" cx="814" cy="-58.6" rx="96.68" ry="18"/>
<text text-anchor="middle" x="814" y="-54.9" font-family="Times-Roman" font-size="14.00">SUMMARY_REPORT</text>
</g>
<!-- v6&#45;&gt;v49 -->
<g id="edge13" class="edge">
<title>v6&#45;&gt;v49</title>
<path fill="none" stroke="black" d="M705.73,-968.96C694.66,-955.54 682,-935.76 682,-915.5 682,-915.5 682,-915.5 682,-652.5 682,-624.9 688.76,-610.19 668,-592 636.43,-564.34 509.21,-604.14 480,-574 410.93,-502.73 442.92,-212.7 494,-127.6 506.22,-107.25 514.09,-103.75 536,-94.6 567.54,-81.43 648.23,-72.17 714.6,-66.5"/>
<polygon fill="black" stroke="black" points="715.03,-69.98 724.7,-65.65 714.45,-63 715.03,-69.98"/>
</g>
<!-- v11 -->
<g id="node11" class="node">
<title>v11</title>
<ellipse fill="none" stroke="black" cx="477" cy="-914.5" rx="3.5" ry="3.5"/>
<text text-anchor="middle" x="443.5" y="-921.8" font-family="Times-Roman" font-size="14.00">combine</text>
</g>
<!-- v6&#45;&gt;v11 -->
<g id="edge7" class="edge">
<title>v6&#45;&gt;v11</title>
<path fill="none" stroke="black" d="M654.6,-972.86C630.93,-967.31 604.42,-960.02 581,-951 567.83,-945.93 566.12,-941.21 553,-936 531.76,-927.58 505.85,-921.41 490.43,-918.15"/>
<polygon fill="black" stroke="black" points="490.76,-914.65 480.27,-916.1 489.38,-921.51 490.76,-914.65"/>
</g>
<!-- v6&#45;&gt;v31 -->
<g id="edge8" class="edge">
<title>v6&#45;&gt;v31</title>
<path fill="none" stroke="black" d="M663.78,-971.8C647.95,-966.57 631.25,-959.73 617,-951 548.4,-908.97 545.65,-880.12 488,-824 464.57,-801.2 457.92,-796.3 435,-773 410.3,-747.89 399.29,-745.1 381,-715 359.68,-679.92 357.16,-668.42 350,-628 340.47,-574.17 355.38,-559.29 349,-505 344.6,-467.54 330,-460.01 330,-422.3 330,-422.3 330,-422.3 330,-304.2 330,-287.04 320.34,-270.78 309.88,-258.2"/>
<polygon fill="black" stroke="black" points="312.25,-255.61 302.98,-250.5 307.04,-260.28 312.25,-255.61"/>
</g>
<!-- v6&#45;&gt;v31 -->
<g id="edge53" class="edge">
<title>v6&#45;&gt;v31</title>
<path fill="none" stroke="black" d="M685.74,-969.89C665.37,-958.13 644,-939.96 644,-915.5 644,-915.5 644,-915.5 644,-797.5 644,-740.16 623.41,-727.61 593,-679 565.93,-635.72 561.46,-618.78 518,-592 489.92,-574.7 471.85,-594.49 446,-574 386.6,-526.9 368,-498.11 368,-422.3 368,-422.3 368,-422.3 368,-304.2 368,-282.92 352,-266.76 333.97,-255.32"/>
<polygon fill="black" stroke="black" points="335.41,-252.11 325.02,-250.07 331.88,-258.15 335.41,-252.11"/>
<text text-anchor="middle" x="612.5" y="-606.3" font-family="Times-Roman" font-size="14.00">expression_file</text>
</g>
<!-- v9 -->
<g id="node13" class="node">
<title>v9</title>
<ellipse fill="black" stroke="black" cx="712" cy="-914.5" rx="1.8" ry="1.8"/>
</g>
<!-- v6&#45;&gt;v9 -->
<g id="edge9" class="edge">
<title>v6&#45;&gt;v9</title>
<path fill="none" stroke="black" d="M719.58,-968.93C717.69,-955.64 715.13,-937.59 713.52,-926.25"/>
<polygon fill="black" stroke="black" points="716.99,-925.73 712.12,-916.32 710.06,-926.71 716.99,-925.73"/>
</g>
<!-- v43 -->
<g id="node14" class="node">
<title>v43</title>
<ellipse fill="none" stroke="black" cx="1431" cy="-145.6" rx="167.07" ry="18"/>
<text text-anchor="middle" x="1431" y="-141.9" font-family="Times-Roman" font-size="14.00">MODULE_OVERVIEW_INTERACTIVE</text>
</g>
<!-- v6&#45;&gt;v43 -->
<g id="edge10" class="edge">
<title>v6&#45;&gt;v43</title>
<path fill="none" stroke="black" d="M740.71,-969.07C746.9,-963.39 753.8,-956.97 760,-951 944.92,-772.87 989.91,-726.91 1167,-541 1177.68,-529.79 1355,-350.78 1355,-335.3 1355,-335.3 1355,-335.3 1355,-231.6 1355,-206.95 1362.88,-200.25 1379,-181.6 1382.83,-177.17 1387.35,-173.06 1392.09,-169.32"/>
<polygon fill="black" stroke="black" points="1394.2,-172.12 1400.22,-163.4 1390.07,-166.46 1394.2,-172.12"/>
</g>
<!-- v6&#45;&gt;v43 -->
<g id="edge72" class="edge">
<title>v6&#45;&gt;v43</title>
<path fill="none" stroke="black" d="M752.07,-969.56C761.55,-964.01 771.92,-957.55 781,-951 831.09,-914.88 840.8,-902.08 886,-860 915.67,-832.38 1393,-375.83 1393,-335.3 1393,-335.3 1393,-335.3 1393,-231.6 1393,-210.52 1402.86,-188.86 1412.54,-172.68"/>
<polygon fill="black" stroke="black" points="1415.74,-174.16 1418.13,-163.83 1409.83,-170.41 1415.74,-174.16"/>
<text text-anchor="middle" x="1243.5" y="-562.8" font-family="Times-Roman" font-size="14.00">expression_file</text>
</g>
<!-- v8 -->
<g id="node15" class="node">
<title>v8</title>
<ellipse fill="black" stroke="black" cx="734" cy="-914.5" rx="1.8" ry="1.8"/>
</g>
<!-- v6&#45;&gt;v8 -->
<g id="edge11" class="edge">
<title>v6&#45;&gt;v8</title>
<path fill="none" stroke="black" d="M724.9,-968.93C727.17,-955.64 730.24,-937.59 732.17,-926.25"/>
<polygon fill="black" stroke="black" points="735.63,-926.77 733.86,-916.32 728.73,-925.59 735.63,-926.77"/>
</g>
<!-- v14 -->
<g id="node16" class="node">
<title>v14</title>
<ellipse fill="none" stroke="black" cx="487" cy="-697" rx="96.68" ry="18"/>
<text text-anchor="middle" x="487" y="-693.3" font-family="Times-Roman" font-size="14.00">POST_CLUSTERING</text>
</g>
<!-- v6&#45;&gt;v14 -->
<g id="edge12" class="edge">
<title>v6&#45;&gt;v14</title>
<path fill="none" stroke="black" d="M735.15,-969.09C738.69,-963.61 742.08,-957.32 744,-951 749.18,-933.99 752.18,-927.27 745,-911 717.07,-847.68 676.8,-856.99 630,-806 602.35,-775.87 606.57,-757.73 574,-733 565.55,-726.58 555.76,-721.17 545.87,-716.65"/>
<polygon fill="black" stroke="black" points="546.96,-713.31 536.39,-712.6 544.21,-719.75 546.96,-713.31"/>
</g>
<!-- v7 -->
<g id="node17" class="node">
<title>v7</title>
<ellipse fill="black" stroke="black" cx="614" cy="-914.5" rx="1.8" ry="1.8"/>
</g>
<!-- v6&#45;&gt;v7 -->
<g id="edge14" class="edge">
<title>v6&#45;&gt;v7</title>
<path fill="none" stroke="black" d="M664.79,-971.56C652.62,-966.53 640.57,-959.84 631,-951 623.88,-944.43 619.44,-934.25 616.88,-926.47"/>
<polygon fill="black" stroke="black" points="620.19,-925.28 614.2,-916.54 613.43,-927.11 620.19,-925.28"/>
</g>
<!-- v38 -->
<g id="node26" class="node">
<title>v38</title>
<ellipse fill="none" stroke="black" cx="1207" cy="-232.6" rx="119.68" ry="18"/>
<text text-anchor="middle" x="1207" y="-228.9" font-family="Times-Roman" font-size="14.00">ENRICHMENT_ANALYSIS</text>
</g>
<!-- v6&#45;&gt;v38 -->
<g id="edge64" class="edge">
<title>v6&#45;&gt;v38</title>
<path fill="none" stroke="black" d="M828.21,-983.15C908.23,-979.42 1010.22,-970.83 1047,-951 1093.13,-926.13 1094.94,-904.88 1122,-860 1188.66,-749.45 1135.45,-675.39 1234,-592 1260.83,-569.3 1289.16,-601.53 1311,-574 1354.56,-519.08 1263.15,-331.4 1232,-268.6 1230.43,-265.43 1228.58,-262.23 1226.61,-259.12"/>
<polygon fill="black" stroke="black" points="1229.4,-257 1220.88,-250.71 1223.62,-260.94 1229.4,-257"/>
<text text-anchor="middle" x="1299.5" y="-606.3" font-family="Times-Roman" font-size="14.00">preprocessed_data</text>
</g>
<!-- v1 -->
<g id="node3" class="node">
<title>v1</title>
<ellipse fill="black" stroke="black" cx="1524" cy="-1059.6" rx="3.6" ry="3.6"/>
<text text-anchor="middle" x="1458.4" y="-1067" font-family="Times-Roman" font-size="14.00">Channel.fromPath</text>
</g>
<!-- v1&#45;&gt;v6 -->
<g id="edge2" class="edge">
<title>v1&#45;&gt;v6</title>
<path fill="none" stroke="black" d="M1520.42,-1058.29C1476.11,-1054.38 1031.34,-1015.23 825.51,-997.11"/>
<polygon fill="black" stroke="black" points="825.56,-993.6 815.3,-996.21 824.95,-1000.58 825.56,-993.6"/>
<text text-anchor="middle" x="1314.5" y="-1026.8" font-family="Times-Roman" font-size="14.00">data_ch</text>
</g>
<!-- v26 -->
<g id="node35" class="node">
<title>v26</title>
<ellipse fill="none" stroke="black" cx="971" cy="-377.8" rx="90.18" ry="18"/>
<text text-anchor="middle" x="971" y="-374.1" font-family="Times-Roman" font-size="14.00">PKN_EVALUATION</text>
</g>
<!-- v1&#45;&gt;v26 -->
<g id="edge44" class="edge">
<title>v1&#45;&gt;v26</title>
<path fill="none" stroke="black" d="M1524.78,-1055.79C1529.21,-1039.55 1551,-956.06 1551,-886.5 1551,-886.5 1551,-886.5 1551,-739.5 1551,-670.42 1543.25,-647.41 1502,-592 1460.83,-536.69 1312.32,-438.65 1248,-413.8 1192.04,-392.18 1125.44,-383.28 1071.57,-379.86"/>
<polygon fill="black" stroke="black" points="1071.5,-376.35 1061.32,-379.26 1071.1,-383.34 1071.5,-376.35"/>
<text text-anchor="middle" x="1578.5" y="-736.8" font-family="Times-Roman" font-size="14.00">data_ch</text>
</g>
<!-- v2 -->
<g id="node4" class="node">
<title>v2</title>
<ellipse fill="black" stroke="black" cx="1464" cy="-305.2" rx="3.6" ry="3.6"/>
<text text-anchor="middle" x="1398.4" y="-312.6" font-family="Times-Roman" font-size="14.00">Channel.fromPath</text>
</g>
<!-- v41 -->
<g id="node5" class="node">
<title>v41</title>
<ellipse fill="none" stroke="black" cx="1464" cy="-232.6" rx="3.5" ry="3.5"/>
<text text-anchor="middle" x="1433" y="-239.9" font-family="Times-Roman" font-size="14.00">ifEmpty</text>
</g>
<!-- v2&#45;&gt;v41 -->
<g id="edge3" class="edge">
<title>v2&#45;&gt;v41</title>
<path fill="none" stroke="black" d="M1464,-301.52C1464,-292.61 1464,-263.58 1464,-246.49"/>
<polygon fill="black" stroke="black" points="1467.5,-246.28 1464,-236.28 1460.5,-246.28 1467.5,-246.28"/>
<text text-anchor="middle" x="1514" y="-272.4" font-family="Times-Roman" font-size="14.00">name_map_ch</text>
</g>
<!-- v41&#45;&gt;v43 -->
<g id="edge70" class="edge">
<title>v41&#45;&gt;v43</title>
<path fill="none" stroke="black" d="M1462.99,-228.88C1460.17,-221.36 1452.02,-199.6 1445,-181.6 1443.93,-178.86 1442.8,-176 1441.67,-173.14"/>
<polygon fill="black" stroke="black" points="1444.85,-171.66 1437.9,-163.67 1438.35,-174.25 1444.85,-171.66"/>
</g>
<!-- v3 -->
<g id="node6" class="node">
<title>v3</title>
<ellipse fill="black" stroke="black" cx="1587" cy="-305.2" rx="3.6" ry="3.6"/>
<text text-anchor="middle" x="1521.4" y="-290.4" font-family="Times-Roman" font-size="14.00">Channel.fromPath</text>
</g>
<!-- v40 -->
<g id="node7" class="node">
<title>v40</title>
<ellipse fill="none" stroke="black" cx="1562" cy="-232.6" rx="3.5" ry="3.5"/>
<text text-anchor="middle" x="1531" y="-239.9" font-family="Times-Roman" font-size="14.00">ifEmpty</text>
</g>
<!-- v3&#45;&gt;v40 -->
<g id="edge4" class="edge">
<title>v3&#45;&gt;v40</title>
<path fill="none" stroke="black" d="M1586.05,-301.52C1582.86,-292.52 1572.41,-263.01 1566.39,-245.99"/>
<polygon fill="black" stroke="black" points="1569.59,-244.54 1562.95,-236.28 1562.99,-246.88 1569.59,-244.54"/>
<text text-anchor="middle" x="1604" y="-272.4" font-family="Times-Roman" font-size="14.00">pkn_ch</text>
</g>
<!-- v40&#45;&gt;v43 -->
<g id="edge69" class="edge">
<title>v40&#45;&gt;v43</title>
<path fill="none" stroke="black" d="M1559.26,-229.82C1547.39,-222.12 1499.42,-190.99 1465.64,-169.08"/>
<polygon fill="black" stroke="black" points="1467.25,-165.95 1456.96,-163.44 1463.44,-171.82 1467.25,-165.95"/>
</g>
<!-- v4 -->
<g id="node8" class="node">
<title>v4</title>
<ellipse fill="none" stroke="black" cx="956" cy="-145.6" rx="94.78" ry="18"/>
<text text-anchor="middle" x="956" y="-141.9" font-family="Times-Roman" font-size="14.00">LOG_PARAMETERS</text>
</g>
<!-- v4&#45;&gt;v49 -->
<g id="edge5" class="edge">
<title>v4&#45;&gt;v49</title>
<path fill="none" stroke="black" d="M928.62,-128.21C906.23,-114.81 874.38,-95.74 849.93,-81.11"/>
<polygon fill="black" stroke="black" points="851.67,-78.07 841.29,-75.94 848.08,-84.08 851.67,-78.07"/>
</g>
<!-- v50 -->
<g id="node51" class="node">
<title>v50</title>
<ellipse fill="black" stroke="black" cx="814" cy="-1.8" rx="1.8" ry="1.8"/>
</g>
<!-- v49&#45;&gt;v50 -->
<g id="edge88" class="edge">
<title>v49&#45;&gt;v50</title>
<path fill="none" stroke="black" d="M814,-40.56C814,-31.87 814,-21.56 814,-13.9"/>
<polygon fill="black" stroke="black" points="817.5,-13.76 814,-3.76 810.5,-13.76 817.5,-13.76"/>
</g>
<!-- v5 -->
<g id="node10" class="node">
<title>v5</title>
<ellipse fill="black" stroke="black" cx="915" cy="-1059.6" rx="3.6" ry="3.6"/>
</g>
<!-- v5&#45;&gt;v6 -->
<g id="edge6" class="edge">
<title>v5&#45;&gt;v6</title>
<path fill="none" stroke="black" d="M911.97,-1057.49C896.47,-1051.82 824.85,-1025.62 774.13,-1007.07"/>
<polygon fill="black" stroke="black" points="775.2,-1003.73 764.61,-1003.59 772.8,-1010.31 775.2,-1003.73"/>
<text text-anchor="middle" x="890.5" y="-1026.8" font-family="Times-Roman" font-size="14.00">run_id_ch</text>
</g>
<!-- v5&#45;&gt;v49 -->
<g id="edge86" class="edge">
<title>v5&#45;&gt;v49</title>
<path fill="none" stroke="black" d="M918.9,-1058.59C957.14,-1058.42 1265.91,-1056.52 1356,-1038 1442.69,-1020.18 1513,-1004.01 1513,-915.5 1513,-915.5 1513,-915.5 1513,-739.5 1513,-464.35 1807.54,-315.98 1607,-127.6 1557.98,-81.55 1124.77,-66.21 920.16,-61.51"/>
<polygon fill="black" stroke="black" points="920.07,-58 909.99,-61.28 919.91,-65 920.07,-58"/>
<text text-anchor="middle" x="1586.5" y="-562.8" font-family="Times-Roman" font-size="14.00">run_id_ch</text>
</g>
<!-- v5&#45;&gt;v31 -->
<g id="edge54" class="edge">
<title>v5&#45;&gt;v31</title>
<path fill="none" stroke="black" d="M911.26,-1058.65C863.35,-1059.23 369.26,-1064.53 226,-1038 159.8,-1025.74 83,-1055.33 83,-988 83,-988 83,-988 83,-696 83,-610.94 66.39,-585.1 95,-505 131.62,-402.47 217.68,-302.93 259.85,-258.2"/>
<polygon fill="black" stroke="black" points="262.59,-260.4 266.95,-250.75 257.52,-255.57 262.59,-260.4"/>
<text text-anchor="middle" x="116.5" y="-649.8" font-family="Times-Roman" font-size="14.00">run_id_ch</text>
</g>
<!-- v5&#45;&gt;v43 -->
<g id="edge73" class="edge">
<title>v5&#45;&gt;v43</title>
<path fill="none" stroke="black" d="M918.5,-1058.71C945.54,-1059.46 1124.18,-1063.28 1266,-1038 1341.44,-1024.55 1431,-1064.63 1431,-988 1431,-988 1431,-988 1431,-231.6 1431,-212.35 1431,-190.65 1431,-174"/>
<polygon fill="black" stroke="black" points="1434.5,-173.86 1431,-163.86 1427.5,-173.86 1434.5,-173.86"/>
<text text-anchor="middle" x="1464.5" y="-606.3" font-family="Times-Roman" font-size="14.00">run_id_ch</text>
</g>
<!-- v5&#45;&gt;v14 -->
<g id="edge20" class="edge">
<title>v5&#45;&gt;v14</title>
<path fill="none" stroke="black" d="M911.29,-1058.6C872.3,-1058.58 536.68,-1057.82 439,-1038 376.7,-1025.36 305,-1051.57 305,-988 305,-988 305,-988 305,-841 305,-776.75 376,-736.97 429.31,-716.16"/>
<polygon fill="black" stroke="black" points="430.58,-719.42 438.71,-712.62 428.11,-712.87 430.58,-719.42"/>
<text text-anchor="middle" x="338.5" y="-881.8" font-family="Times-Roman" font-size="14.00">run_id_ch</text>
</g>
<!-- v12 -->
<g id="node19" class="node">
<title>v12</title>
<ellipse fill="none" stroke="black" cx="411" cy="-842" rx="68.49" ry="18"/>
<text text-anchor="middle" x="411" y="-838.3" font-family="Times-Roman" font-size="14.00">CLUSTERING</text>
</g>
<!-- v5&#45;&gt;v12 -->
<g id="edge17" class="edge">
<title>v5&#45;&gt;v12</title>
<path fill="none" stroke="black" d="M911.47,-1058.63C871.54,-1058.96 505.29,-1061.32 464,-1038 423.54,-1015.14 419.47,-995.48 406,-951 397.96,-924.45 400.87,-892.55 404.77,-870.34"/>
<polygon fill="black" stroke="black" points="408.25,-870.76 406.72,-860.27 401.38,-869.42 408.25,-870.76"/>
<text text-anchor="middle" x="439.5" y="-939.8" font-family="Times-Roman" font-size="14.00">run_id_ch</text>
</g>
<!-- v15 -->
<g id="node21" class="node">
<title>v15</title>
<ellipse fill="none" stroke="black" cx="848" cy="-610" rx="120.48" ry="18"/>
<text text-anchor="middle" x="848" y="-606.3" font-family="Times-Roman" font-size="14.00">NETWORK_GENERATION</text>
</g>
<!-- v5&#45;&gt;v15 -->
<g id="edge23" class="edge">
<title>v5&#45;&gt;v15</title>
<path fill="none" stroke="black" d="M918.44,-1057.97C944.68,-1052.95 1111.61,-1017.65 1085,-936 1042.71,-806.22 926.83,-685.15 874.39,-635.15"/>
<polygon fill="black" stroke="black" points="876.51,-632.34 866.84,-628.02 871.71,-637.43 876.51,-632.34"/>
<text text-anchor="middle" x="1084.5" y="-838.3" font-family="Times-Roman" font-size="14.00">run_id_ch</text>
</g>
<!-- v5&#45;&gt;v38 -->
<g id="edge65" class="edge">
<title>v5&#45;&gt;v38</title>
<path fill="none" stroke="black" d="M918.58,-1058.56C941.23,-1058.24 1066.71,-1055.71 1167,-1038 1249.61,-1023.41 1349,-1071.89 1349,-988 1349,-988 1349,-988 1349,-696 1349,-673.77 1342.22,-666.82 1350,-646 1353.64,-636.24 1361.45,-637.79 1365,-628 1370.45,-612.96 1367.3,-607.83 1365,-592 1349.54,-485.33 1335.38,-459.74 1295,-359.8 1277.99,-317.71 1277.25,-304.14 1249,-268.6 1245.91,-264.72 1242.34,-260.96 1238.6,-257.44"/>
<polygon fill="black" stroke="black" points="1240.63,-254.57 1230.81,-250.59 1236,-259.82 1240.63,-254.57"/>
<text text-anchor="middle" x="1383.5" y="-649.8" font-family="Times-Roman" font-size="14.00">run_id_ch</text>
</g>
<!-- v20 -->
<g id="node29" class="node">
<title>v20</title>
<ellipse fill="none" stroke="black" cx="222" cy="-523" rx="117.78" ry="18"/>
<text text-anchor="middle" x="222" y="-519.3" font-family="Times-Roman" font-size="14.00">SUBNETWORK_GRAPHS</text>
</g>
<!-- v5&#45;&gt;v20 -->
<g id="edge38" class="edge">
<title>v5&#45;&gt;v20</title>
<path fill="none" stroke="black" d="M911.32,-1058.66C854.74,-1059.51 165,-1068.27 165,-988 165,-988 165,-988 165,-609 165,-585.64 180.04,-563.85 194.66,-548.18"/>
<polygon fill="black" stroke="black" points="197.21,-550.58 201.74,-541.01 192.23,-545.67 197.21,-550.58"/>
<text text-anchor="middle" x="198.5" y="-794.8" font-family="Times-Roman" font-size="14.00">run_id_ch</text>
</g>
<!-- v5&#45;&gt;v26 -->
<g id="edge45" class="edge">
<title>v5&#45;&gt;v26</title>
<path fill="none" stroke="black" d="M918.76,-1058.55C953.14,-1057.95 1212,-1051.33 1212,-988 1212,-988 1212,-988 1212,-739.5 1212,-676.64 1159.11,-521.21 1120,-472 1111.95,-461.87 1049.2,-424.28 1007.74,-400.04"/>
<polygon fill="black" stroke="black" points="1009.39,-396.95 998.99,-394.94 1005.86,-403 1009.39,-396.95"/>
<text text-anchor="middle" x="1245.5" y="-736.8" font-family="Times-Roman" font-size="14.00">run_id_ch</text>
</g>
<!-- v11&#45;&gt;v12 -->
<g id="edge16" class="edge">
<title>v11&#45;&gt;v12</title>
<path fill="none" stroke="black" d="M475.1,-911.47C469.01,-904.97 449.5,-884.13 433.59,-867.13"/>
<polygon fill="black" stroke="black" points="435.98,-864.57 426.59,-859.66 430.87,-869.35 435.98,-864.57"/>
</g>
<!-- v33 -->
<g id="node42" class="node">
<title>v33</title>
<ellipse fill="black" stroke="black" cx="271" cy="-145.6" rx="1.8" ry="1.8"/>
</g>
<!-- v31&#45;&gt;v33 -->
<g id="edge56" class="edge">
<title>v31&#45;&gt;v33</title>
<path fill="none" stroke="black" d="M281.37,-214.4C278.79,-197.52 274.92,-172.26 272.72,-157.82"/>
<polygon fill="black" stroke="black" points="276.14,-157.04 271.17,-147.68 269.22,-158.1 276.14,-157.04"/>
</g>
<!-- v32 -->
<g id="node43" class="node">
<title>v32</title>
<ellipse fill="black" stroke="black" cx="296" cy="-145.6" rx="1.8" ry="1.8"/>
</g>
<!-- v31&#45;&gt;v32 -->
<g id="edge57" class="edge">
<title>v31&#45;&gt;v32</title>
<path fill="none" stroke="black" d="M286.43,-214.4C288.81,-197.52 292.38,-172.26 294.42,-157.82"/>
<polygon fill="black" stroke="black" points="297.91,-158.07 295.85,-147.68 290.98,-157.09 297.91,-158.07"/>
</g>
<!-- v43&#45;&gt;v49 -->
<g id="edge75" class="edge">
<title>v43&#45;&gt;v49</title>
<path fill="none" stroke="black" d="M1394.03,-127.93C1366.92,-116.5 1328.91,-102.09 1294,-94.6 1167.95,-67.55 1019.49,-60.4 921.41,-58.98"/>
<polygon fill="black" stroke="black" points="921.23,-55.47 911.19,-58.85 921.14,-62.47 921.23,-55.47"/>
</g>
<!-- v44 -->
<g id="node47" class="node">
<title>v44</title>
<ellipse fill="black" stroke="black" cx="1431" cy="-58.6" rx="1.8" ry="1.8"/>
</g>
<!-- v43&#45;&gt;v44 -->
<g id="edge76" class="edge">
<title>v43&#45;&gt;v44</title>
<path fill="none" stroke="black" d="M1431,-127.4C1431,-110.52 1431,-85.26 1431,-70.82"/>
<polygon fill="black" stroke="black" points="1434.5,-70.68 1431,-60.68 1427.5,-70.68 1434.5,-70.68"/>
</g>
<!-- v14&#45;&gt;v15 -->
<g id="edge21" class="edge">
<title>v14&#45;&gt;v15</title>
<path fill="none" stroke="black" d="M541.05,-682.06C602.62,-667.09 703.47,-643.32 772.7,-627.44"/>
<polygon fill="black" stroke="black" points="773.71,-630.8 782.67,-625.16 772.15,-623.98 773.71,-630.8"/>
</g>
<!-- v14&#45;&gt;v15 -->
<g id="edge22" class="edge">
<title>v14&#45;&gt;v15</title>
<path fill="none" stroke="black" d="M547.65,-682.91C612.02,-668.24 713.35,-644.42 780.28,-628.25"/>
<polygon fill="black" stroke="black" points="781.41,-631.58 790.3,-625.83 779.76,-624.78 781.41,-631.58"/>
</g>
<!-- v14&#45;&gt;v20 -->
<g id="edge37" class="edge">
<title>v14&#45;&gt;v20</title>
<path fill="none" stroke="black" d="M461.59,-679.51C413.73,-648.45 310.2,-581.25 256.25,-546.23"/>
<polygon fill="black" stroke="black" points="258.02,-543.2 247.72,-540.69 254.2,-549.08 258.02,-543.2"/>
<text text-anchor="middle" x="447.5" y="-606.3" font-family="Times-Roman" font-size="14.00">preprocessing_files</text>
</g>
<!-- v10 -->
<g id="node18" class="node">
<title>v10</title>
<ellipse fill="black" stroke="black" cx="477" cy="-987" rx="3.6" ry="3.6"/>
<text text-anchor="middle" x="426.4" y="-994.4" font-family="Times-Roman" font-size="14.00">Channel.from</text>
</g>
<!-- v10&#45;&gt;v11 -->
<g id="edge15" class="edge">
<title>v10&#45;&gt;v11</title>
<path fill="none" stroke="black" d="M477,-983.32C477,-974.42 477,-945.44 477,-928.37"/>
<polygon fill="black" stroke="black" points="480.5,-928.18 477,-918.18 473.5,-928.18 480.5,-928.18"/>
<text text-anchor="middle" x="514.5" y="-939.8" font-family="Times-Roman" font-size="14.00">cluster_ids</text>
</g>
<!-- v13 -->
<g id="node20" class="node">
<title>v13</title>
<ellipse fill="none" stroke="black" cx="448" cy="-769.5" rx="3.5" ry="3.5"/>
<text text-anchor="middle" x="422" y="-776.8" font-family="Times-Roman" font-size="14.00">collect</text>
</g>
<!-- v12&#45;&gt;v13 -->
<g id="edge18" class="edge">
<title>v12&#45;&gt;v13</title>
<path fill="none" stroke="black" d="M419.96,-823.93C426.76,-810.97 435.93,-793.5 441.9,-782.12"/>
<polygon fill="black" stroke="black" points="445.06,-783.64 446.6,-773.16 438.86,-780.39 445.06,-783.64"/>
</g>
<!-- v47 -->
<g id="node49" class="node">
<title>v47</title>
<ellipse fill="none" stroke="black" cx="266" cy="-740.5" rx="3.5" ry="3.5"/>
<text text-anchor="middle" x="240" y="-747.8" font-family="Times-Roman" font-size="14.00">collect</text>
</g>
<!-- v12&#45;&gt;v47 -->
<g id="edge80" class="edge">
<title>v12&#45;&gt;v47</title>
<path fill="none" stroke="black" d="M387.7,-825.01C355.91,-803.2 300.22,-764.98 276.83,-748.93"/>
<polygon fill="black" stroke="black" points="278.6,-745.9 268.37,-743.13 274.64,-751.67 278.6,-745.9"/>
</g>
<!-- v13&#45;&gt;v14 -->
<g id="edge19" class="edge">
<title>v13&#45;&gt;v14</title>
<path fill="none" stroke="black" d="M449.3,-766.15C452.92,-759.6 463.48,-740.52 472.5,-724.21"/>
<polygon fill="black" stroke="black" points="475.79,-725.49 477.57,-715.04 469.67,-722.1 475.79,-725.49"/>
<text text-anchor="middle" x="519" y="-736.8" font-family="Times-Roman" font-size="14.00">clustered_data</text>
</g>
<!-- v15&#45;&gt;v49 -->
<g id="edge82" class="edge">
<title>v15&#45;&gt;v49</title>
<path fill="none" stroke="black" d="M751.42,-599.25C707,-588.85 664,-567.55 664,-524 664,-524 664,-524 664,-420.3 664,-389.24 677.38,-382.1 699,-359.8 709.56,-348.91 717.28,-352.54 728,-341.8 741.14,-328.64 750,-324.8 750,-306.2 750,-306.2 750,-306.2 750,-144.6 750,-120.47 766.66,-98.83 782.98,-83.43"/>
<polygon fill="black" stroke="black" points="785.75,-85.65 790.89,-76.39 781.1,-80.42 785.75,-85.65"/>
<text text-anchor="middle" x="800.5" y="-330.6" font-family="Times-Roman" font-size="14.00">filtered_modules</text>
</g>
<!-- v15&#45;&gt;v49 -->
<g id="edge83" class="edge">
<title>v15&#45;&gt;v49</title>
<path fill="none" stroke="black" d="M755.05,-598.56C683.88,-590.22 596.74,-579.12 590,-574 500.51,-506.05 512.69,-451.85 490,-341.8 483.97,-312.57 508,-306.95 508,-277.1 508,-277.1 508,-277.1 508,-144.6 508,-100.42 627.89,-78.25 717.59,-67.84"/>
<polygon fill="black" stroke="black" points="717.99,-71.31 727.54,-66.72 717.21,-64.36 717.99,-71.31"/>
<text text-anchor="middle" x="536" y="-330.6" font-family="Times-Roman" font-size="14.00">network_files</text>
</g>
<!-- v15&#45;&gt;v49 -->
<g id="edge84" class="edge">
<title>v15&#45;&gt;v49</title>
<path fill="none" stroke="black" d="M756.26,-598.29C728.74,-593.07 698.98,-585.36 673,-574 638.3,-558.83 604,-561.87 604,-524 604,-524 604,-524 604,-144.6 604,-94.16 656.69,-72.93 709.29,-64.29"/>
<polygon fill="black" stroke="black" points="710.07,-67.72 719.44,-62.78 709.04,-60.79 710.07,-67.72"/>
<text text-anchor="middle" x="665.5" y="-330.6" font-family="Times-Roman" font-size="14.00">coherence_scores</text>
</g>
<!-- v15&#45;&gt;v31 -->
<g id="edge34" class="edge">
<title>v15&#45;&gt;v31</title>
<path fill="none" stroke="black" d="M755.59,-598.41C735.93,-596.23 715.28,-593.99 696,-592 653.81,-587.64 542.35,-595.85 506,-574 436.79,-532.4 406,-503.05 406,-422.3 406,-422.3 406,-422.3 406,-304.2 406,-279.14 386.48,-262.83 363.05,-252.28"/>
<polygon fill="black" stroke="black" points="364.13,-248.94 353.55,-248.38 361.47,-255.42 364.13,-248.94"/>
</g>
<!-- v15&#45;&gt;v43 -->
<g id="edge35" class="edge">
<title>v15&#45;&gt;v43</title>
<path fill="none" stroke="black" d="M833.19,-592.13C829.03,-586.65 824.86,-580.35 822,-574 798.62,-522.2 804.73,-503.47 809,-446.8 810.11,-432.01 807.07,-426.92 814,-413.8 822.22,-398.23 858.73,-371.38 872,-359.8 881.52,-351.49 886.84,-352.21 894,-341.8 936.49,-280 887.52,-227.27 947,-181.6 974.19,-160.72 1220.82,-166.25 1255,-163.6 1270.84,-162.37 1287.47,-160.95 1303.92,-159.45"/>
<polygon fill="black" stroke="black" points="1304.5,-162.91 1314.14,-158.51 1303.86,-155.94 1304.5,-162.91"/>
</g>
<!-- v15&#45;&gt;v43 -->
<g id="edge71" class="edge">
<title>v15&#45;&gt;v43</title>
<path fill="none" stroke="black" d="M782.64,-594.77C746.97,-582.74 710,-561.28 710,-524 710,-524 710,-524 710,-420.3 710,-393.41 692.11,-379.87 710,-359.8 733.22,-333.75 838.78,-363.64 866,-341.8 925.42,-294.11 863.06,-223.03 927,-181.6 957.63,-161.75 1218.6,-166.36 1255,-163.6 1270.97,-162.39 1287.74,-160.97 1304.32,-159.47"/>
<polygon fill="black" stroke="black" points="1304.97,-162.93 1314.61,-158.53 1304.34,-155.95 1304.97,-162.93"/>
<text text-anchor="middle" x="767.5" y="-374.1" font-family="Times-Roman" font-size="14.00">filtered_modules</text>
</g>
<!-- v34 -->
<g id="node22" class="node">
<title>v34</title>
<ellipse fill="none" stroke="black" cx="1107" cy="-479.5" rx="3.5" ry="3.5"/>
<text text-anchor="middle" x="1076" y="-486.8" font-family="Times-Roman" font-size="14.00">ifEmpty</text>
</g>
<!-- v15&#45;&gt;v34 -->
<g id="edge24" class="edge">
<title>v15&#45;&gt;v34</title>
<path fill="none" stroke="black" d="M957.58,-602.59C1005.92,-597.67 1055.86,-589.05 1074,-574 1098.56,-553.62 1104.85,-513.72 1106.46,-493.26"/>
<polygon fill="black" stroke="black" points="1109.97,-493.19 1106.98,-483.03 1102.98,-492.84 1109.97,-493.19"/>
</g>
<!-- v35 -->
<g id="node23" class="node">
<title>v35</title>
<ellipse fill="none" stroke="black" cx="1235" cy="-421.3" rx="3.5" ry="3.5"/>
<text text-anchor="middle" x="1259" y="-428.6" font-family="Times-Roman" font-size="14.00">ifEmpty</text>
</g>
<!-- v15&#45;&gt;v35 -->
<g id="edge25" class="edge">
<title>v15&#45;&gt;v35</title>
<path fill="none" stroke="black" d="M952.67,-601.14C1008.07,-595.6 1069.57,-586.85 1094,-574 1161.98,-538.24 1158.12,-502.51 1211,-446.8 1215.67,-441.88 1220.94,-436.48 1225.35,-432.01"/>
<polygon fill="black" stroke="black" points="1228.17,-434.14 1232.73,-424.57 1223.2,-429.21 1228.17,-434.14"/>
</g>
<!-- v36 -->
<g id="node24" class="node">
<title>v36</title>
<ellipse fill="none" stroke="black" cx="1089" cy="-334.3" rx="3.5" ry="3.5"/>
<text text-anchor="middle" x="1058" y="-341.6" font-family="Times-Roman" font-size="14.00">ifEmpty</text>
</g>
<!-- v15&#45;&gt;v36 -->
<g id="edge26" class="edge">
<title>v15&#45;&gt;v36</title>
<path fill="none" stroke="black" d="M903.86,-593.98C916.82,-588.92 930.02,-582.36 941,-574 985.28,-540.27 1002.01,-422.35 1011,-413.8 1030.87,-394.91 1050.54,-415.11 1070,-395.8 1082.79,-383.11 1087,-361.91 1088.36,-348.28"/>
<polygon fill="black" stroke="black" points="1091.87,-348.24 1088.99,-338.04 1084.88,-347.81 1091.87,-348.24"/>
</g>
<!-- v23 -->
<g id="node25" class="node">
<title>v23</title>
<ellipse fill="none" stroke="black" cx="859" cy="-523" rx="3.5" ry="3.5"/>
<text text-anchor="middle" x="842.5" y="-530.3" font-family="Times-Roman" font-size="14.00">mix</text>
</g>
<!-- v15&#45;&gt;v23 -->
<g id="edge27" class="edge">
<title>v15&#45;&gt;v23</title>
<path fill="none" stroke="black" d="M844.68,-591.8C845.03,-574.99 848.53,-549.88 852.75,-535.4"/>
<polygon fill="black" stroke="black" points="856.09,-536.48 856.57,-525.89 849.59,-533.87 856.09,-536.48"/>
</g>
<!-- v15&#45;&gt;v23 -->
<g id="edge28" class="edge">
<title>v15&#45;&gt;v23</title>
<path fill="none" stroke="black" d="M855.77,-591.8C859.7,-575.31 862.66,-550.83 862.33,-536.24"/>
<polygon fill="black" stroke="black" points="865.77,-535.61 861.03,-526.13 858.83,-536.49 865.77,-535.61"/>
</g>
<!-- v15&#45;&gt;v38 -->
<g id="edge29" class="edge">
<title>v15&#45;&gt;v38</title>
<path fill="none" stroke="black" d="M916.78,-595.2C932.49,-590.12 948.51,-583.24 962,-574 977.4,-563.45 977.69,-556.57 988,-541 1023.64,-487.21 1012,-459.06 1058,-413.8 1070.19,-401.81 1080.23,-408.2 1092,-395.8 1134.89,-350.59 1109.76,-315.32 1151,-268.6 1155.18,-263.86 1160.16,-259.54 1165.4,-255.68"/>
<polygon fill="black" stroke="black" points="1167.46,-258.51 1173.76,-249.99 1163.53,-252.72 1167.46,-258.51"/>
</g>
<!-- v15&#45;&gt;v38 -->
<g id="edge63" class="edge">
<title>v15&#45;&gt;v38</title>
<path fill="none" stroke="black" d="M928.78,-596.62C947.5,-591.48 966.7,-584.23 983,-574 999.29,-563.78 1000.28,-556.97 1011,-541 1046.49,-488.12 1030.73,-457.56 1077,-413.8 1091.16,-400.4 1102.65,-409 1117,-395.8 1158.64,-357.51 1185.51,-295.4 1198.27,-260.18"/>
<polygon fill="black" stroke="black" points="1201.63,-261.19 1201.64,-250.59 1195.03,-258.87 1201.63,-261.19"/>
<text text-anchor="middle" x="1134.5" y="-417.6" font-family="Times-Roman" font-size="14.00">filtered_modules</text>
</g>
<!-- v19 -->
<g id="node27" class="node">
<title>v19</title>
<ellipse fill="black" stroke="black" cx="907" cy="-523" rx="1.8" ry="1.8"/>
</g>
<!-- v15&#45;&gt;v19 -->
<g id="edge30" class="edge">
<title>v15&#45;&gt;v19</title>
<path fill="none" stroke="black" d="M868.07,-592.02C873.68,-586.63 879.47,-580.41 884,-574 892.69,-561.71 899.39,-545.62 903.26,-535.05"/>
<polygon fill="black" stroke="black" points="906.66,-535.92 906.59,-525.33 900.04,-533.66 906.66,-535.92"/>
</g>
<!-- v18 -->
<g id="node28" class="node">
<title>v18</title>
<ellipse fill="black" stroke="black" cx="932" cy="-523" rx="1.8" ry="1.8"/>
</g>
<!-- v15&#45;&gt;v18 -->
<g id="edge31" class="edge">
<title>v15&#45;&gt;v18</title>
<path fill="none" stroke="black" d="M878.7,-592.52C886.85,-587.27 895.25,-580.99 902,-574 913.47,-562.12 922.51,-545.08 927.55,-534.28"/>
<polygon fill="black" stroke="black" points="930.9,-535.36 931.69,-524.79 924.48,-532.56 930.9,-535.36"/>
</g>
<!-- v15&#45;&gt;v20 -->
<g id="edge32" class="edge">
<title>v15&#45;&gt;v20</title>
<path fill="none" stroke="black" d="M747.59,-600.02C639.7,-590.34 481.7,-576.02 468,-574 463.72,-573.37 370.22,-554.31 299.75,-539.91"/>
<polygon fill="black" stroke="black" points="300.03,-536.39 289.53,-537.82 298.63,-543.25 300.03,-536.39"/>
</g>
<!-- v17 -->
<g id="node30" class="node">
<title>v17</title>
<ellipse fill="black" stroke="black" cx="954" cy="-523" rx="1.8" ry="1.8"/>
</g>
<!-- v15&#45;&gt;v17 -->
<g id="edge33" class="edge">
<title>v15&#45;&gt;v17</title>
<path fill="none" stroke="black" d="M890.89,-593.13C901.42,-588.02 912.19,-581.65 921,-574 933.95,-562.75 943.91,-545.24 949.36,-534.21"/>
<polygon fill="black" stroke="black" points="952.68,-535.37 953.66,-524.82 946.32,-532.45 952.68,-535.37"/>
</g>
<!-- v16 -->
<g id="node31" class="node">
<title>v16</title>
<ellipse fill="black" stroke="black" cx="882" cy="-523" rx="1.8" ry="1.8"/>
</g>
<!-- v15&#45;&gt;v16 -->
<g id="edge36" class="edge">
<title>v15&#45;&gt;v16</title>
<path fill="none" stroke="black" d="M858.84,-591.98C862.09,-586.4 865.46,-580.07 868,-574 873.36,-561.19 877.33,-545.7 879.65,-535.39"/>
<polygon fill="black" stroke="black" points="883.15,-535.78 881.76,-525.28 876.3,-534.35 883.15,-535.78"/>
</g>
<!-- v15&#45;&gt;v26 -->
<g id="edge43" class="edge">
<title>v15&#45;&gt;v26</title>
<path fill="none" stroke="black" d="M839.17,-591.77C826.33,-564.07 806.58,-509.01 831,-472 857.89,-431.25 893.32,-458.59 932,-428.8 940.77,-422.05 948.66,-412.89 955.02,-404.26"/>
<polygon fill="black" stroke="black" points="957.99,-406.12 960.83,-395.91 952.24,-402.11 957.99,-406.12"/>
<text text-anchor="middle" x="872" y="-475.8" font-family="Times-Roman" font-size="14.00">viewer_files</text>
</g>
<!-- v34&#45;&gt;v38 -->
<g id="edge58" class="edge">
<title>v34&#45;&gt;v38</title>
<path fill="none" stroke="black" d="M1110.19,-477.87C1123.54,-475.02 1175.17,-462.11 1196,-428.8 1213.03,-401.57 1210.89,-307.91 1208.62,-260.93"/>
<polygon fill="black" stroke="black" points="1212.11,-260.66 1208.1,-250.86 1205.12,-261.02 1212.11,-260.66"/>
</g>
<!-- v35&#45;&gt;v38 -->
<g id="edge59" class="edge">
<title>v35&#45;&gt;v38</title>
<path fill="none" stroke="black" d="M1234.85,-417.77C1233.97,-403.2 1229.01,-328.41 1217,-268.6 1216.49,-266.05 1215.88,-263.42 1215.23,-260.8"/>
<polygon fill="black" stroke="black" points="1218.54,-259.64 1212.54,-250.91 1211.79,-261.48 1218.54,-259.64"/>
</g>
<!-- v36&#45;&gt;v38 -->
<g id="edge60" class="edge">
<title>v36&#45;&gt;v38</title>
<path fill="none" stroke="black" d="M1089.21,-330.67C1090.12,-321 1094.54,-287.08 1113,-268.6 1119.51,-262.09 1127.34,-256.77 1135.66,-252.43"/>
<polygon fill="black" stroke="black" points="1137.3,-255.53 1144.86,-248.1 1134.32,-249.2 1137.3,-255.53"/>
</g>
<!-- v24 -->
<g id="node34" class="node">
<title>v24</title>
<ellipse fill="none" stroke="black" cx="945" cy="-450.4" rx="3.5" ry="3.5"/>
<text text-anchor="middle" x="919" y="-457.7" font-family="Times-Roman" font-size="14.00">collect</text>
</g>
<!-- v23&#45;&gt;v24 -->
<g id="edge41" class="edge">
<title>v23&#45;&gt;v24</title>
<path fill="none" stroke="black" d="M860.32,-519.21C862.2,-515.49 865.99,-508.92 871,-505 888.28,-491.46 899.37,-500.09 917,-487 925.85,-480.43 933.41,-470.37 938.43,-462.62"/>
<polygon fill="black" stroke="black" points="941.45,-464.4 943.6,-454.03 935.45,-460.8 941.45,-464.4"/>
</g>
<!-- v38&#45;&gt;v49 -->
<g id="edge85" class="edge">
<title>v38&#45;&gt;v49</title>
<path fill="none" stroke="black" d="M1175.56,-214.97C1152.6,-202.22 1121.2,-183.47 1096,-163.6 1078.23,-149.59 1079.55,-138.99 1060,-127.6 1010.57,-98.8 948.43,-81.76 898.97,-71.93"/>
<polygon fill="black" stroke="black" points="899.42,-68.45 888.94,-70 898.1,-75.33 899.42,-68.45"/>
<text text-anchor="middle" x="1162.5" y="-141.9" font-family="Times-Roman" font-size="14.00">enrichment_results</text>
</g>
<!-- v38&#45;&gt;v43 -->
<g id="edge66" class="edge">
<title>v38&#45;&gt;v43</title>
<path fill="none" stroke="black" d="M1248.87,-215.71C1285.41,-201.85 1338.61,-181.66 1378.09,-166.68"/>
<polygon fill="black" stroke="black" points="1379.7,-169.81 1387.81,-162.99 1377.22,-163.26 1379.7,-169.81"/>
</g>
<!-- v22 -->
<g id="node32" class="node">
<title>v22</title>
<ellipse fill="black" stroke="black" cx="235" cy="-450.4" rx="1.8" ry="1.8"/>
</g>
<!-- v20&#45;&gt;v22 -->
<g id="edge39" class="edge">
<title>v20&#45;&gt;v22</title>
<path fill="none" stroke="black" d="M225.15,-504.91C227.6,-491.6 230.93,-473.52 233.02,-462.16"/>
<polygon fill="black" stroke="black" points="236.48,-462.69 234.85,-452.22 229.6,-461.42 236.48,-462.69"/>
</g>
<!-- v21 -->
<g id="node33" class="node">
<title>v21</title>
<ellipse fill="black" stroke="black" cx="210" cy="-450.4" rx="1.8" ry="1.8"/>
</g>
<!-- v20&#45;&gt;v21 -->
<g id="edge40" class="edge">
<title>v20&#45;&gt;v21</title>
<path fill="none" stroke="black" d="M219.1,-504.91C216.83,-491.6 213.76,-473.52 211.83,-462.16"/>
<polygon fill="black" stroke="black" points="215.27,-461.5 210.14,-452.22 208.37,-462.67 215.27,-461.5"/>
</g>
<!-- v24&#45;&gt;v26 -->
<g id="edge42" class="edge">
<title>v24&#45;&gt;v26</title>
<path fill="none" stroke="black" d="M946.61,-447.09C949.13,-443.39 954.03,-435.81 957,-428.8 960.09,-421.49 962.71,-413.3 964.82,-405.7"/>
<polygon fill="black" stroke="black" points="968.26,-406.39 967.37,-395.83 961.48,-404.63 968.26,-406.39"/>
</g>
<!-- v46 -->
<g id="node37" class="node">
<title>v46</title>
<ellipse fill="none" stroke="black" cx="839" cy="-276.1" rx="3.5" ry="3.5"/>
<text text-anchor="middle" x="808" y="-283.4" font-family="Times-Roman" font-size="14.00">ifEmpty</text>
</g>
<!-- v26&#45;&gt;v46 -->
<g id="edge47" class="edge">
<title>v26&#45;&gt;v46</title>
<path fill="none" stroke="black" d="M953.81,-359.82C943.27,-349.76 929.3,-337.03 916,-326.8 893.87,-309.79 865.92,-292.75 850.51,-283.72"/>
<polygon fill="black" stroke="black" points="852.18,-280.64 841.77,-278.66 848.67,-286.7 852.18,-280.64"/>
</g>
<!-- v29 -->
<g id="node38" class="node">
<title>v29</title>
<ellipse fill="none" stroke="black" cx="476" cy="-305.2" rx="3.5" ry="3.5"/>
<text text-anchor="middle" x="445" y="-312.5" font-family="Times-Roman" font-size="14.00">ifEmpty</text>
</g>
<!-- v26&#45;&gt;v29 -->
<g id="edge48" class="edge">
<title>v26&#45;&gt;v29</title>
<path fill="none" stroke="black" d="M897.37,-367.34C875.4,-364.69 851.24,-361.95 829,-359.8 720.77,-349.33 689.42,-372.14 585,-341.8 571.44,-337.86 570.16,-331.91 557,-326.8 533.95,-317.85 505.69,-311.68 489.37,-308.57"/>
<polygon fill="black" stroke="black" points="489.64,-305.06 479.17,-306.72 488.39,-311.94 489.64,-305.06"/>
</g>
<!-- v28 -->
<g id="node39" class="node">
<title>v28</title>
<ellipse fill="black" stroke="black" cx="1010" cy="-305.2" rx="1.8" ry="1.8"/>
</g>
<!-- v26&#45;&gt;v28 -->
<g id="edge49" class="edge">
<title>v26&#45;&gt;v28</title>
<path fill="none" stroke="black" d="M982.37,-359.59C985.92,-354 989.75,-347.71 993,-341.8 997.63,-333.4 1002.28,-323.54 1005.54,-316.33"/>
<polygon fill="black" stroke="black" points="1008.78,-317.66 1009.62,-307.1 1002.38,-314.83 1008.78,-317.66"/>
</g>
<!-- v27 -->
<g id="node40" class="node">
<title>v27</title>
<ellipse fill="black" stroke="black" cx="1032" cy="-305.2" rx="1.8" ry="1.8"/>
</g>
<!-- v26&#45;&gt;v27 -->
<g id="edge50" class="edge">
<title>v26&#45;&gt;v27</title>
<path fill="none" stroke="black" d="M991.9,-360.02C998.08,-354.55 1004.63,-348.22 1010,-341.8 1016.69,-333.8 1022.79,-323.58 1026.86,-316.15"/>
<polygon fill="black" stroke="black" points="1030.04,-317.63 1031.54,-307.14 1023.83,-314.4 1030.04,-317.63"/>
</g>
<!-- v37 -->
<g id="node44" class="node">
<title>v37</title>
<ellipse fill="none" stroke="black" cx="1057" cy="-305.2" rx="3.5" ry="3.5"/>
<text text-anchor="middle" x="1026" y="-312.5" font-family="Times-Roman" font-size="14.00">ifEmpty</text>
</g>
<!-- v26&#45;&gt;v37 -->
<g id="edge61" class="edge">
<title>v26&#45;&gt;v37</title>
<path fill="none" stroke="black" d="M1002.23,-360.75C1011.33,-355.36 1020.98,-348.89 1029,-341.8 1037.17,-334.58 1044.7,-324.74 1049.89,-317.23"/>
<polygon fill="black" stroke="black" points="1052.94,-318.98 1055.49,-308.7 1047.08,-315.14 1052.94,-318.98"/>
</g>
<!-- v39 -->
<g id="node45" class="node">
<title>v39</title>
<ellipse fill="none" stroke="black" cx="1012" cy="-276.1" rx="3.5" ry="3.5"/>
<text text-anchor="middle" x="981" y="-283.4" font-family="Times-Roman" font-size="14.00">ifEmpty</text>
</g>
<!-- v26&#45;&gt;v39 -->
<g id="edge67" class="edge">
<title>v26&#45;&gt;v39</title>
<path fill="none" stroke="black" d="M976.61,-359.82C981.86,-344.41 990.21,-321.17 999,-301.6 1001.01,-297.12 1003.48,-292.32 1005.73,-288.17"/>
<polygon fill="black" stroke="black" points="1008.84,-289.78 1010.68,-279.35 1002.73,-286.36 1008.84,-289.78"/>
</g>
<!-- v45 -->
<g id="node48" class="node">
<title>v45</title>
<ellipse fill="none" stroke="black" cx="797" cy="-189.1" rx="3.5" ry="3.5"/>
<text text-anchor="middle" x="766" y="-196.4" font-family="Times-Roman" font-size="14.00">ifEmpty</text>
</g>
<!-- v26&#45;&gt;v45 -->
<g id="edge77" class="edge">
<title>v26&#45;&gt;v45</title>
<path fill="none" stroke="black" d="M933.6,-361.4C901.02,-346.17 854.79,-319.9 827,-283.6 808.14,-258.96 800.93,-222.1 798.34,-202.85"/>
<polygon fill="black" stroke="black" points="801.8,-202.24 797.2,-192.7 794.84,-203.02 801.8,-202.24"/>
</g>
<!-- v25 -->
<g id="node36" class="node">
<title>v25</title>
<ellipse fill="black" stroke="black" cx="822" cy="-450.4" rx="3.6" ry="3.6"/>
</g>
<!-- v25&#45;&gt;v26 -->
<g id="edge46" class="edge">
<title>v25&#45;&gt;v26</title>
<path fill="none" stroke="black" d="M821.12,-446.8C819.13,-440.38 815.04,-423.58 823,-413.8 828.08,-407.56 861.91,-399.32 895.95,-392.4"/>
<polygon fill="black" stroke="black" points="896.88,-395.79 906,-390.4 895.51,-388.92 896.88,-395.79"/>
<text text-anchor="middle" x="877.5" y="-417.6" font-family="Times-Roman" font-size="14.00">regulator_types</text>
</g>
<!-- v46&#45;&gt;v49 -->
<g id="edge79" class="edge">
<title>v46&#45;&gt;v49</title>
<path fill="none" stroke="black" d="M838.75,-272.55C837.15,-256.45 828.2,-167.17 819,-94.6 818.68,-92.04 818.32,-89.38 817.96,-86.72"/>
<polygon fill="black" stroke="black" points="821.41,-86.09 816.55,-76.68 814.47,-87.06 821.41,-86.09"/>
</g>
<!-- v29&#45;&gt;v31 -->
<g id="edge51" class="edge">
<title>v29&#45;&gt;v31</title>
<path fill="none" stroke="black" d="M473.44,-302.28C465.49,-296.41 440.36,-278.48 417,-268.6 400.49,-261.62 382.22,-255.72 364.64,-250.87"/>
<polygon fill="black" stroke="black" points="365.53,-247.48 354.97,-248.28 363.72,-254.25 365.53,-247.48"/>
</g>
<!-- v30 -->
<g id="node41" class="node">
<title>v30</title>
<ellipse fill="black" stroke="black" cx="105" cy="-305.2" rx="3.6" ry="3.6"/>
</g>
<!-- v30&#45;&gt;v31 -->
<g id="edge55" class="edge">
<title>v30&#45;&gt;v31</title>
<path fill="none" stroke="black" d="M104.1,-301.58C102.05,-295.12 97.85,-278.23 106,-268.6 114.61,-258.42 137.01,-251.15 163.12,-245.97"/>
<polygon fill="black" stroke="black" points="164.09,-249.35 173.29,-244.09 162.82,-242.47 164.09,-249.35"/>
<text text-anchor="middle" x="160.5" y="-272.4" font-family="Times-Roman" font-size="14.00">regulator_types</text>
</g>
<!-- v37&#45;&gt;v38 -->
<g id="edge62" class="edge">
<title>v37&#45;&gt;v38</title>
<path fill="none" stroke="black" d="M1057.57,-301.49C1059.11,-294.82 1064.02,-277.49 1075,-268.6 1085.67,-259.95 1098.28,-253.43 1111.39,-248.51"/>
<polygon fill="black" stroke="black" points="1112.69,-251.76 1121.01,-245.2 1110.41,-245.14 1112.69,-251.76"/>
</g>
<!-- v39&#45;&gt;v43 -->
<g id="edge68" class="edge">
<title>v39&#45;&gt;v43</title>
<path fill="none" stroke="black" d="M1013.74,-272.76C1020.67,-263.6 1047.45,-229.97 1078,-214.6 1119.54,-193.7 1232.32,-174.09 1319.33,-161.35"/>
<polygon fill="black" stroke="black" points="1319.87,-164.81 1329.27,-159.91 1318.87,-157.88 1319.87,-164.81"/>
</g>
<!-- v42 -->
<g id="node46" class="node">
<title>v42</title>
<ellipse fill="black" stroke="black" cx="957" cy="-232.6" rx="3.6" ry="3.6"/>
</g>
<!-- v42&#45;&gt;v43 -->
<g id="edge74" class="edge">
<title>v42&#45;&gt;v43</title>
<path fill="none" stroke="black" d="M955.95,-228.85C952.93,-220.45 945.25,-194.88 958,-181.6 980.9,-157.75 1222.04,-166.19 1255,-163.6 1270.84,-162.36 1287.47,-160.92 1303.92,-159.42"/>
<polygon fill="black" stroke="black" points="1304.5,-162.88 1314.13,-158.48 1303.85,-155.91 1304.5,-162.88"/>
<text text-anchor="middle" x="1012.5" y="-185.4" font-family="Times-Roman" font-size="14.00">regulator_types</text>
</g>
<!-- v45&#45;&gt;v49 -->
<g id="edge78" class="edge">
<title>v45&#45;&gt;v49</title>
<path fill="none" stroke="black" d="M797.36,-185.42C799.01,-172.93 806.05,-119.72 810.42,-86.62"/>
<polygon fill="black" stroke="black" points="813.9,-87.04 811.74,-76.66 806.96,-86.12 813.9,-87.04"/>
</g>
<!-- v47&#45;&gt;v49 -->
<g id="edge81" class="edge">
<title>v47&#45;&gt;v49</title>
<path fill="none" stroke="black" d="M263.56,-737.42C246.64,-722.91 146,-634.42 95,-541 49.31,-457.3 34,-430.66 34,-335.3 34,-335.3 34,-335.3 34,-144.6 34,-77.71 493.13,-63.43 706.88,-60.4"/>
<polygon fill="black" stroke="black" points="707.23,-63.9 717.18,-60.26 707.14,-56.9 707.23,-63.9"/>
</g>
<!-- v48 -->
<g id="node50" class="node">
<title>v48</title>
<ellipse fill="black" stroke="black" cx="1242" cy="-145.6" rx="3.6" ry="3.6"/>
</g>
<!-- v48&#45;&gt;v49 -->
<g id="edge87" class="edge">
<title>v48&#45;&gt;v49</title>
<path fill="none" stroke="black" d="M1240.17,-142.24C1237.18,-138.55 1230.9,-131.46 1224,-127.6 1174.59,-100 1156.56,-105.39 1101,-94.6 1038.03,-82.38 966.41,-73.63 910.46,-67.94"/>
<polygon fill="black" stroke="black" points="910.5,-64.43 900.21,-66.92 909.81,-71.4 910.5,-64.43"/>
<text text-anchor="middle" x="1235.5" y="-98.4" font-family="Times-Roman" font-size="14.00">regulator_types</text>
</g>
</g>
</svg>
