<?xml version="1.0" encoding="UTF-8" standalone="no"?>
<!DOCTYPE svg PUBLIC "-//W3C//DTD SVG 1.1//EN"
 "http://www.w3.org/Graphics/SVG/1.1/DTD/svg11.dtd">
<!-- Generated by graphviz version 2.44.0 (0)
 -->
<!-- Title: pipeline_dag_20260114_193123 Pages: 1 -->
<svg width="1431pt" height="905pt"
 viewBox="0.00 0.00 1431.49 904.60" xmlns="http://www.w3.org/2000/svg" xmlns:xlink="http://www.w3.org/1999/xlink">
<g id="graph0" class="graph" transform="scale(1 1) rotate(0) translate(4 900.6)">
<title>pipeline_dag_20260114_193123</title>
<polygon fill="white" stroke="transparent" points="-4,4 -4,-900.6 1427.49,-900.6 1427.49,4 -4,4"/>
<!-- v3 -->
<g id="node1" class="node">
<title>v3</title>
<ellipse fill="black" stroke="black" cx="127.6" cy="-878" rx="3.6" ry="3.6"/>
<text text-anchor="middle" x="62" y="-885.4" font-family="Times-Roman" font-size="14.00">Channel.fromPath</text>
</g>
<!-- v15 -->
<g id="node2" class="node">
<title>v15</title>
<ellipse fill="none" stroke="black" cx="256.6" cy="-791" rx="108.58" ry="18"/>
<text text-anchor="middle" x="256.6" y="-787.3" font-family="Times-Roman" font-size="14.00">PREPROCESSING_TFA</text>
</g>
<!-- v3&#45;&gt;v15 -->
<g id="edge1" class="edge">
<title>v3&#45;&gt;v15</title>
<path fill="none" stroke="black" d="M130.29,-875.22C142.02,-867.5 189.5,-836.22 222.77,-814.29"/>
<polygon fill="black" stroke="black" points="224.89,-817.08 231.32,-808.66 221.04,-811.24 224.89,-817.08"/>
<text text-anchor="middle" x="230.6" y="-830.8" font-family="Times-Roman" font-size="14.00">input_ch</text>
</g>
<!-- v42 -->
<g id="node10" class="node">
<title>v42</title>
<ellipse fill="none" stroke="black" cx="295.6" cy="-58.6" rx="143.77" ry="18"/>
<text text-anchor="middle" x="295.6" y="-54.9" font-family="Times-Roman" font-size="14.00">MODULE_VIEWER_HEATMAPS</text>
</g>
<!-- v3&#45;&gt;v42 -->
<g id="edge51" class="edge">
<title>v3&#45;&gt;v42</title>
<path fill="none" stroke="black" d="M127.12,-874.37C125.25,-863.96 118.6,-824.65 118.6,-792 118.6,-792 118.6,-792 118.6,-130.2 118.6,-100.2 140.81,-82.59 169.5,-72.37"/>
<polygon fill="black" stroke="black" points="170.57,-75.7 179.02,-69.3 168.43,-69.03 170.57,-75.7"/>
<text text-anchor="middle" x="148.6" y="-453.8" font-family="Times-Roman" font-size="14.00">input_ch</text>
</g>
<!-- v21 -->
<g id="node9" class="node">
<title>v21</title>
<ellipse fill="none" stroke="black" cx="559.6" cy="-718.5" rx="3.5" ry="3.5"/>
<text text-anchor="middle" x="526.1" y="-725.8" font-family="Times-Roman" font-size="14.00">combine</text>
</g>
<!-- v15&#45;&gt;v21 -->
<g id="edge6" class="edge">
<title>v15&#45;&gt;v21</title>
<path fill="none" stroke="black" d="M334.11,-778.36C369.55,-772.42 411.95,-764.45 449.6,-755 485.55,-745.98 526.89,-731.5 547.12,-724.13"/>
<polygon fill="black" stroke="black" points="548.41,-727.38 556.58,-720.64 545.99,-720.82 548.41,-727.38"/>
</g>
<!-- v15&#45;&gt;v42 -->
<g id="edge7" class="edge">
<title>v15&#45;&gt;v42</title>
<path fill="none" stroke="black" d="M229.15,-773.58C212.17,-761.14 193.6,-742.32 193.6,-719.5 193.6,-719.5 193.6,-719.5 193.6,-130.2 193.6,-106.93 211.77,-90.72 232.78,-79.77"/>
<polygon fill="black" stroke="black" points="234.41,-82.87 241.91,-75.39 231.38,-76.55 234.41,-82.87"/>
</g>
<!-- v19 -->
<g id="node11" class="node">
<title>v19</title>
<ellipse fill="black" stroke="black" cx="289.6" cy="-718.5" rx="1.8" ry="1.8"/>
</g>
<!-- v15&#45;&gt;v19 -->
<g id="edge8" class="edge">
<title>v15&#45;&gt;v19</title>
<path fill="none" stroke="black" d="M267.83,-772.95C271.23,-767.37 274.8,-761.05 277.6,-755 281.33,-746.94 284.49,-737.38 286.63,-730.22"/>
<polygon fill="black" stroke="black" points="290.05,-730.98 289.37,-720.41 283.31,-729.1 290.05,-730.98"/>
</g>
<!-- v -->
<g id="node12" class="node">
<title>v</title>
<ellipse fill="none" stroke="black" cx="918.6" cy="-58.6" rx="27" ry="18"/>
<text text-anchor="middle" x="918.6" y="-54.9" font-family="Times-Roman" font-size="14.00">v</text>
</g>
<!-- v15&#45;&gt;v -->
<g id="edge9" class="edge">
<title>v15&#45;&gt;v</title>
<path fill="none" stroke="black" d="M280.51,-773.19C298.71,-761.54 319.6,-743.74 319.6,-719.5 319.6,-719.5 319.6,-719.5 319.6,-238.3 319.6,-121.94 750.74,-73.44 881.73,-62.24"/>
<polygon fill="black" stroke="black" points="882.02,-65.73 891.7,-61.41 881.44,-58.75 882.02,-65.73"/>
</g>
<!-- v15&#45;&gt;v -->
<g id="edge62" class="edge">
<title>v15&#45;&gt;v</title>
<path fill="none" stroke="black" d="M294.73,-773.99C315.74,-762.36 337.6,-744.3 337.6,-719.5 337.6,-719.5 337.6,-719.5 337.6,-238.3 337.6,-123.98 753.75,-75.17 881.65,-62.86"/>
<polygon fill="black" stroke="black" points="882.12,-66.34 891.74,-61.91 881.46,-59.37 882.12,-66.34"/>
</g>
<!-- v15&#45;&gt;v -->
<g id="edge68" class="edge">
<title>v15&#45;&gt;v</title>
<path fill="none" stroke="black" d="M308.08,-775.02C332.4,-763.44 355.6,-745.04 355.6,-719.5 355.6,-719.5 355.6,-719.5 355.6,-238.3 355.6,-126.14 756.13,-77.04 881.78,-63.6"/>
<polygon fill="black" stroke="black" points="882.47,-67.05 892.05,-62.52 881.73,-60.09 882.47,-67.05"/>
</g>
<!-- v18 -->
<g id="node14" class="node">
<title>v18</title>
<ellipse fill="black" stroke="black" cx="223.6" cy="-718.5" rx="1.8" ry="1.8"/>
</g>
<!-- v15&#45;&gt;v18 -->
<g id="edge10" class="edge">
<title>v15&#45;&gt;v18</title>
<path fill="none" stroke="black" d="M248.61,-772.93C242.25,-759.34 233.56,-740.79 228.28,-729.5"/>
<polygon fill="black" stroke="black" points="231.39,-727.9 223.98,-720.32 225.05,-730.86 231.39,-727.9"/>
</g>
<!-- v24 -->
<g id="node15" class="node">
<title>v24</title>
<ellipse fill="none" stroke="black" cx="665.6" cy="-501" rx="96.68" ry="18"/>
<text text-anchor="middle" x="665.6" y="-497.3" font-family="Times-Roman" font-size="14.00">POST_CLUSTERING</text>
</g>
<!-- v15&#45;&gt;v24 -->
<g id="edge11" class="edge">
<title>v15&#45;&gt;v24</title>
<path fill="none" stroke="black" d="M325.07,-777.03C340.71,-771.91 356.55,-764.82 369.6,-755 437.56,-703.85 410.74,-651.19 474.6,-595 513.95,-560.38 568.47,-535.54 609.19,-520.29"/>
<polygon fill="black" stroke="black" points="610.52,-523.53 618.7,-516.8 608.11,-516.95 610.52,-523.53"/>
</g>
<!-- v17 -->
<g id="node16" class="node">
<title>v17</title>
<ellipse fill="black" stroke="black" cx="245.6" cy="-718.5" rx="1.8" ry="1.8"/>
</g>
<!-- v15&#45;&gt;v17 -->
<g id="edge12" class="edge">
<title>v15&#45;&gt;v17</title>
<path fill="none" stroke="black" d="M253.94,-772.93C251.86,-759.64 249.05,-741.59 247.28,-730.25"/>
<polygon fill="black" stroke="black" points="250.73,-729.66 245.73,-720.32 243.81,-730.74 250.73,-729.66"/>
</g>
<!-- v16 -->
<g id="node17" class="node">
<title>v16</title>
<ellipse fill="black" stroke="black" cx="267.6" cy="-718.5" rx="1.8" ry="1.8"/>
</g>
<!-- v15&#45;&gt;v16 -->
<g id="edge13" class="edge">
<title>v15&#45;&gt;v16</title>
<path fill="none" stroke="black" d="M259.26,-772.93C261.34,-759.64 264.15,-741.59 265.92,-730.25"/>
<polygon fill="black" stroke="black" points="269.39,-730.74 267.47,-720.32 262.47,-729.66 269.39,-730.74"/>
</g>
<!-- v4 -->
<g id="node3" class="node">
<title>v4</title>
<ellipse fill="black" stroke="black" cx="338.6" cy="-878" rx="3.6" ry="3.6"/>
<text text-anchor="middle" x="273" y="-885.4" font-family="Times-Roman" font-size="14.00">Channel.fromPath</text>
</g>
<!-- v4&#45;&gt;v15 -->
<g id="edge2" class="edge">
<title>v4&#45;&gt;v15</title>
<path fill="none" stroke="black" d="M336.57,-874.9C328.85,-866.89 300.67,-837.68 279.94,-816.19"/>
<polygon fill="black" stroke="black" points="282.42,-813.73 272.96,-808.96 277.38,-818.59 282.42,-813.73"/>
<text text-anchor="middle" x="330.1" y="-830.8" font-family="Times-Roman" font-size="14.00">data_ch</text>
</g>
<!-- v36 -->
<g id="node34" class="node">
<title>v36</title>
<ellipse fill="none" stroke="black" cx="755.6" cy="-195.8" rx="90.18" ry="18"/>
<text text-anchor="middle" x="755.6" y="-192.1" font-family="Times-Roman" font-size="14.00">PKN_EVALUATION</text>
</g>
<!-- v4&#45;&gt;v36 -->
<g id="edge43" class="edge">
<title>v4&#45;&gt;v36</title>
<path fill="none" stroke="black" d="M340.43,-874.71C349.97,-862.53 393.6,-803.83 393.6,-748.5 393.6,-748.5 393.6,-748.5 393.6,-572.5 393.6,-456.96 391.99,-411.21 466.6,-323 520.83,-258.89 613.81,-226.3 679.65,-210.47"/>
<polygon fill="black" stroke="black" points="680.62,-213.84 689.57,-208.17 679.03,-207.02 680.62,-213.84"/>
<text text-anchor="middle" x="422.1" y="-540.8" font-family="Times-Roman" font-size="14.00">data_ch</text>
</g>
<!-- v5 -->
<g id="node4" class="node">
<title>v5</title>
<ellipse fill="black" stroke="black" cx="1212.6" cy="-878" rx="3.6" ry="3.6"/>
<text text-anchor="middle" x="1147" y="-885.4" font-family="Times-Roman" font-size="14.00">Channel.fromPath</text>
</g>
<!-- v6 -->
<g id="node5" class="node">
<title>v6</title>
<ellipse fill="black" stroke="black" cx="1212.6" cy="-791" rx="1.8" ry="1.8"/>
</g>
<!-- v5&#45;&gt;v6 -->
<g id="edge3" class="edge">
<title>v5&#45;&gt;v6</title>
<path fill="none" stroke="black" d="M1212.6,-874.17C1212.6,-863.19 1212.6,-823.02 1212.6,-803.2"/>
<polygon fill="black" stroke="black" points="1216.1,-802.96 1212.6,-792.96 1209.1,-802.96 1216.1,-802.96"/>
<text text-anchor="middle" x="1262.6" y="-830.8" font-family="Times-Roman" font-size="14.00">name_map_ch</text>
</g>
<!-- v12 -->
<g id="node6" class="node">
<title>v12</title>
<ellipse fill="none" stroke="black" cx="1328.6" cy="-878" rx="94.78" ry="18"/>
<text text-anchor="middle" x="1328.6" y="-874.3" font-family="Times-Roman" font-size="14.00">LOG_PARAMETERS</text>
</g>
<!-- v13 -->
<g id="node7" class="node">
<title>v13</title>
<ellipse fill="black" stroke="black" cx="1328.6" cy="-791" rx="1.8" ry="1.8"/>
</g>
<!-- v12&#45;&gt;v13 -->
<g id="edge4" class="edge">
<title>v12&#45;&gt;v13</title>
<path fill="none" stroke="black" d="M1328.6,-859.8C1328.6,-842.92 1328.6,-817.66 1328.6,-803.22"/>
<polygon fill="black" stroke="black" points="1332.1,-803.08 1328.6,-793.08 1325.1,-803.08 1332.1,-803.08"/>
</g>
<!-- v14 -->
<g id="node8" class="node">
<title>v14</title>
<ellipse fill="black" stroke="black" cx="739.6" cy="-878" rx="3.6" ry="3.6"/>
</g>
<!-- v14&#45;&gt;v15 -->
<g id="edge5" class="edge">
<title>v14&#45;&gt;v15</title>
<path fill="none" stroke="black" d="M736.03,-876.89C709.88,-875.99 545.12,-869.39 414.6,-842 394.76,-837.84 348.89,-823.11 311.66,-810.71"/>
<polygon fill="black" stroke="black" points="312.51,-807.3 301.91,-807.45 310.29,-813.94 312.51,-807.3"/>
<text text-anchor="middle" x="448.1" y="-830.8" font-family="Times-Roman" font-size="14.00">run_id_ch</text>
</g>
<!-- v14&#45;&gt;v42 -->
<g id="edge52" class="edge">
<title>v14&#45;&gt;v42</title>
<path fill="none" stroke="black" d="M735.92,-877.01C716.43,-876.94 623.78,-874.82 558.6,-842 512.24,-818.65 488.6,-800.41 488.6,-748.5 488.6,-748.5 488.6,-748.5 488.6,-572.5 488.6,-476.3 393.6,-474.2 393.6,-378 393.6,-378 393.6,-378 393.6,-238.3 393.6,-170.68 383.86,-148.93 343.6,-94.6 340.46,-90.36 336.65,-86.41 332.57,-82.82"/>
<polygon fill="black" stroke="black" points="334.49,-79.87 324.5,-76.34 330.11,-85.33 334.49,-79.87"/>
<text text-anchor="middle" x="465.1" y="-453.8" font-family="Times-Roman" font-size="14.00">run_id_ch</text>
</g>
<!-- v14&#45;&gt;v -->
<g id="edge63" class="edge">
<title>v14&#45;&gt;v</title>
<path fill="none" stroke="black" d="M743.11,-877.12C784.37,-878.17 1161.6,-883.33 1161.6,-792 1161.6,-792 1161.6,-792 1161.6,-130.2 1161.6,-87.18 1023.71,-69.17 955.57,-62.72"/>
<polygon fill="black" stroke="black" points="955.54,-59.2 945.27,-61.78 954.91,-66.17 955.54,-59.2"/>
</g>
<!-- v14&#45;&gt;v -->
<g id="edge69" class="edge">
<title>v14&#45;&gt;v</title>
<path fill="none" stroke="black" d="M743.56,-877.07C788.06,-877.94 1179.6,-885.05 1179.6,-792 1179.6,-792 1179.6,-792 1179.6,-130.2 1179.6,-85.05 1027.74,-67.46 955.59,-61.84"/>
<polygon fill="black" stroke="black" points="955.78,-58.35 945.55,-61.1 955.26,-65.33 955.78,-58.35"/>
</g>
<!-- v14&#45;&gt;v24 -->
<g id="edge19" class="edge">
<title>v14&#45;&gt;v24</title>
<path fill="none" stroke="black" d="M739.36,-874.1C736.64,-841.26 711.72,-540.95 709.6,-537 707.29,-532.71 704.22,-528.77 700.76,-525.19"/>
<polygon fill="black" stroke="black" points="703,-522.5 693.24,-518.39 698.3,-527.69 703,-522.5"/>
<text text-anchor="middle" x="758.1" y="-685.8" font-family="Times-Roman" font-size="14.00">run_id_ch</text>
</g>
<!-- v22 -->
<g id="node19" class="node">
<title>v22</title>
<ellipse fill="none" stroke="black" cx="622.6" cy="-646" rx="68.49" ry="18"/>
<text text-anchor="middle" x="622.6" y="-642.3" font-family="Times-Roman" font-size="14.00">CLUSTERING</text>
</g>
<!-- v14&#45;&gt;v22 -->
<g id="edge16" class="edge">
<title>v14&#45;&gt;v22</title>
<path fill="none" stroke="black" d="M737.82,-874.81C728.41,-863.17 684.02,-807.1 658.6,-755 645.66,-728.47 635.56,-696.14 629.4,-673.8"/>
<polygon fill="black" stroke="black" points="632.74,-672.76 626.77,-664.01 625.98,-674.57 632.74,-672.76"/>
<text text-anchor="middle" x="692.1" y="-743.8" font-family="Times-Roman" font-size="14.00">run_id_ch</text>
</g>
<!-- v25 -->
<g id="node21" class="node">
<title>v25</title>
<ellipse fill="none" stroke="black" cx="916.6" cy="-414" rx="120.48" ry="18"/>
<text text-anchor="middle" x="916.6" y="-410.3" font-family="Times-Roman" font-size="14.00">NETWORK_GENERATION</text>
</g>
<!-- v14&#45;&gt;v25 -->
<g id="edge22" class="edge">
<title>v14&#45;&gt;v25</title>
<path fill="none" stroke="black" d="M743.13,-876.8C766.2,-875.26 894.6,-863.51 894.6,-792 894.6,-792 894.6,-792 894.6,-500 894.6,-480.06 900.35,-458.29 905.97,-441.78"/>
<polygon fill="black" stroke="black" points="909.31,-442.84 909.4,-432.24 902.72,-440.47 909.31,-442.84"/>
<text text-anchor="middle" x="928.1" y="-642.3" font-family="Times-Roman" font-size="14.00">run_id_ch</text>
</g>
<!-- v30 -->
<g id="node28" class="node">
<title>v30</title>
<ellipse fill="none" stroke="black" cx="615.6" cy="-341" rx="117.78" ry="18"/>
<text text-anchor="middle" x="615.6" y="-337.3" font-family="Times-Roman" font-size="14.00">SUBNETWORK_GRAPHS</text>
</g>
<!-- v14&#45;&gt;v30 -->
<g id="edge37" class="edge">
<title>v14&#45;&gt;v30</title>
<path fill="none" stroke="black" d="M736.25,-876.44C709.16,-871.85 526.6,-839.18 526.6,-792 526.6,-792 526.6,-792 526.6,-413 526.6,-390.63 543.99,-374.16 563.4,-362.75"/>
<polygon fill="black" stroke="black" points="565.29,-365.71 572.4,-357.86 561.95,-359.56 565.29,-365.71"/>
<text text-anchor="middle" x="560.1" y="-598.8" font-family="Times-Roman" font-size="14.00">run_id_ch</text>
</g>
<!-- v14&#45;&gt;v36 -->
<g id="edge44" class="edge">
<title>v14&#45;&gt;v36</title>
<path fill="none" stroke="black" d="M740.61,-874.52C746.95,-858.85 781.24,-771.75 791.6,-697 817.63,-509.27 765.93,-461.3 756.6,-272 755.82,-256.1 755.55,-238.29 755.49,-223.99"/>
<polygon fill="black" stroke="black" points="758.99,-223.83 755.48,-213.83 751.99,-223.84 758.99,-223.83"/>
<text text-anchor="middle" x="831.1" y="-540.8" font-family="Times-Roman" font-size="14.00">run_id_ch</text>
</g>
<!-- v21&#45;&gt;v22 -->
<g id="edge15" class="edge">
<title>v21&#45;&gt;v22</title>
<path fill="none" stroke="black" d="M561.42,-715.47C567.23,-708.97 585.85,-688.13 601.04,-671.13"/>
<polygon fill="black" stroke="black" points="603.66,-673.45 607.71,-663.66 598.44,-668.78 603.66,-673.45"/>
</g>
<!-- v44 -->
<g id="node41" class="node">
<title>v44</title>
<ellipse fill="black" stroke="black" cx="283.6" cy="-1.8" rx="1.8" ry="1.8"/>
</g>
<!-- v42&#45;&gt;v44 -->
<g id="edge54" class="edge">
<title>v42&#45;&gt;v44</title>
<path fill="none" stroke="black" d="M291.87,-40.56C289.94,-31.76 287.65,-21.3 285.97,-13.61"/>
<polygon fill="black" stroke="black" points="289.37,-12.78 283.81,-3.76 282.53,-14.28 289.37,-12.78"/>
</g>
<!-- v43 -->
<g id="node42" class="node">
<title>v43</title>
<ellipse fill="black" stroke="black" cx="308.6" cy="-1.8" rx="1.8" ry="1.8"/>
</g>
<!-- v42&#45;&gt;v43 -->
<g id="edge55" class="edge">
<title>v42&#45;&gt;v43</title>
<path fill="none" stroke="black" d="M299.64,-40.56C301.73,-31.76 304.21,-21.3 306.03,-13.61"/>
<polygon fill="black" stroke="black" points="309.47,-14.3 308.37,-3.76 302.66,-12.68 309.47,-14.3"/>
</g>
<!-- &#45;1 -->
<g id="node13" class="node">
<title>&#45;1</title>
<ellipse fill="black" stroke="black" cx="1093.6" cy="-131.2" rx="3.6" ry="3.6"/>
<text text-anchor="middle" x="1062.5" y="-138.6" font-family="Times-Roman" font-size="14.00">ifEmpty</text>
</g>
<!-- &#45;1&#45;&gt;v -->
<g id="edge64" class="edge">
<title>&#45;1&#45;&gt;v</title>
<path fill="none" stroke="black" d="M1089.86,-129.85C1073.64,-126.8 1060.57,-104.76 1043.6,-94.6 1016.11,-78.15 981.25,-69.41 954.95,-64.79"/>
<polygon fill="black" stroke="black" points="955.4,-61.31 944.96,-63.15 954.26,-68.22 955.4,-61.31"/>
</g>
<!-- &#45;1&#45;&gt;v -->
<g id="edge66" class="edge">
<title>&#45;1&#45;&gt;v</title>
<path fill="none" stroke="black" d="M1092.21,-127.85C1088.29,-121.43 1076.43,-103.48 1061.6,-94.6 1028.94,-75.05 985.88,-66.4 955.57,-62.59"/>
<polygon fill="black" stroke="black" points="955.76,-59.08 945.42,-61.43 954.96,-66.04 955.76,-59.08"/>
</g>
<!-- &#45;1&#45;&gt;v -->
<g id="edge70" class="edge">
<title>&#45;1&#45;&gt;v</title>
<path fill="none" stroke="black" d="M1097.25,-129.77C1109.42,-126.43 1096.43,-104.67 1079.6,-94.6 1042.23,-72.24 991.27,-64.14 956.05,-61.22"/>
<polygon fill="black" stroke="black" points="955.88,-57.7 945.65,-60.47 955.38,-64.68 955.88,-57.7"/>
</g>
<!-- v2 -->
<g id="node44" class="node">
<title>v2</title>
<ellipse fill="black" stroke="black" cx="1136.6" cy="-58.6" rx="1.8" ry="1.8"/>
</g>
<!-- &#45;1&#45;&gt;v2 -->
<g id="edge71" class="edge">
<title>&#45;1&#45;&gt;v2</title>
<path fill="none" stroke="black" d="M1096.48,-128.97C1102.34,-126.32 1115.64,-119.5 1122.6,-109.6 1130.77,-97.99 1134.19,-81.74 1135.61,-70.95"/>
<polygon fill="black" stroke="black" points="1139.09,-71.26 1136.54,-60.97 1132.12,-70.6 1139.09,-71.26"/>
</g>
<!-- v0 -->
<g id="node45" class="node">
<title>v0</title>
<ellipse fill="black" stroke="black" cx="1204.6" cy="-58.6" rx="1.8" ry="1.8"/>
</g>
<!-- &#45;1&#45;&gt;v0 -->
<g id="edge72" class="edge">
<title>&#45;1&#45;&gt;v0</title>
<path fill="none" stroke="black" d="M1096.63,-129.13C1104.16,-126.4 1124.27,-118.75 1139.6,-109.6 1161.31,-96.63 1184.19,-77.59 1196.16,-67.14"/>
<polygon fill="black" stroke="black" points="1198.6,-69.65 1203.74,-60.39 1193.95,-64.43 1198.6,-69.65"/>
</g>
<!-- v24&#45;&gt;v25 -->
<g id="edge20" class="edge">
<title>v24&#45;&gt;v25</title>
<path fill="none" stroke="black" d="M705.71,-484.61C746.3,-470.27 809.38,-448.87 856.03,-433.59"/>
<polygon fill="black" stroke="black" points="857.3,-436.85 865.72,-430.42 855.12,-430.2 857.3,-436.85"/>
</g>
<!-- v24&#45;&gt;v25 -->
<g id="edge21" class="edge">
<title>v24&#45;&gt;v25</title>
<path fill="none" stroke="black" d="M713.99,-485.39C757.37,-471.31 820.7,-449.93 865.02,-434.42"/>
<polygon fill="black" stroke="black" points="866.46,-437.63 874.74,-431.01 864.14,-431.02 866.46,-437.63"/>
</g>
<!-- v24&#45;&gt;v30 -->
<g id="edge36" class="edge">
<title>v24&#45;&gt;v30</title>
<path fill="none" stroke="black" d="M651.15,-483.1C640.92,-470.07 627.93,-451.08 621.6,-432 614.87,-411.72 613.61,-387.49 613.9,-369.28"/>
<polygon fill="black" stroke="black" points="617.41,-369.18 614.23,-359.07 610.41,-368.95 617.41,-369.18"/>
<text text-anchor="middle" x="688.1" y="-410.3" font-family="Times-Roman" font-size="14.00">preprocessing_files</text>
</g>
<!-- v20 -->
<g id="node18" class="node">
<title>v20</title>
<ellipse fill="black" stroke="black" cx="559.6" cy="-791" rx="3.6" ry="3.6"/>
<text text-anchor="middle" x="509" y="-798.4" font-family="Times-Roman" font-size="14.00">Channel.from</text>
</g>
<!-- v20&#45;&gt;v21 -->
<g id="edge14" class="edge">
<title>v20&#45;&gt;v21</title>
<path fill="none" stroke="black" d="M559.6,-787.32C559.6,-778.42 559.6,-749.44 559.6,-732.37"/>
<polygon fill="black" stroke="black" points="563.1,-732.18 559.6,-722.18 556.1,-732.18 563.1,-732.18"/>
<text text-anchor="middle" x="597.1" y="-743.8" font-family="Times-Roman" font-size="14.00">cluster_ids</text>
</g>
<!-- v23 -->
<g id="node20" class="node">
<title>v23</title>
<ellipse fill="none" stroke="black" cx="610.6" cy="-573.5" rx="3.5" ry="3.5"/>
<text text-anchor="middle" x="584.6" y="-580.8" font-family="Times-Roman" font-size="14.00">collect</text>
</g>
<!-- v22&#45;&gt;v23 -->
<g id="edge17" class="edge">
<title>v22&#45;&gt;v23</title>
<path fill="none" stroke="black" d="M619.7,-627.93C617.56,-615.38 614.7,-598.59 612.76,-587.2"/>
<polygon fill="black" stroke="black" points="616.18,-586.43 611.05,-577.16 609.28,-587.61 616.18,-586.43"/>
</g>
<!-- v23&#45;&gt;v24 -->
<g id="edge18" class="edge">
<title>v23&#45;&gt;v24</title>
<path fill="none" stroke="black" d="M609.51,-570.06C606.99,-564.01 601.4,-547.99 607.6,-537 610.42,-532.01 614.27,-527.65 618.65,-523.86"/>
<polygon fill="black" stroke="black" points="621.07,-526.42 627.01,-517.65 616.9,-520.8 621.07,-526.42"/>
<text text-anchor="middle" x="658.6" y="-540.8" font-family="Times-Roman" font-size="14.00">clustered_data</text>
</g>
<!-- v25&#45;&gt;v42 -->
<g id="edge33" class="edge">
<title>v25&#45;&gt;v42</title>
<path fill="none" stroke="black" d="M823.65,-402.53C699.7,-388.4 495,-364.35 488.6,-359 466.97,-340.93 469.6,-326.68 469.6,-298.5 469.6,-298.5 469.6,-298.5 469.6,-130.2 469.6,-100.62 447.74,-83.14 419.51,-72.89"/>
<polygon fill="black" stroke="black" points="420.31,-69.47 409.72,-69.69 418.14,-76.13 420.31,-69.47"/>
</g>
<!-- v25&#45;&gt;v -->
<g id="edge28" class="edge">
<title>v25&#45;&gt;v</title>
<path fill="none" stroke="black" d="M899.86,-395.76C890.58,-368.8 891.6,-315.03 891.6,-269.4 891.6,-269.4 891.6,-269.4 891.6,-130.2 891.6,-113.79 891.6,-95.24 895.46,-81.27"/>
<polygon fill="black" stroke="black" points="898.86,-82.18 899.23,-71.59 892.34,-79.64 898.86,-82.18"/>
</g>
<!-- v25&#45;&gt;v -->
<g id="edge34" class="edge">
<title>v25&#45;&gt;v</title>
<path fill="none" stroke="black" d="M911.28,-395.76C908.58,-368.8 909.6,-315.03 909.6,-269.4 909.6,-269.4 909.6,-269.4 909.6,-130.2 909.6,-115.74 909.6,-99.62 910.48,-86.43"/>
<polygon fill="black" stroke="black" points="914,-86.43 911.45,-76.15 907.03,-85.78 914,-86.43"/>
</g>
<!-- v25&#45;&gt;v -->
<g id="edge61" class="edge">
<title>v25&#45;&gt;v</title>
<path fill="none" stroke="black" d="M922.71,-395.76C926.58,-368.8 927.6,-315.03 927.6,-269.4 927.6,-269.4 927.6,-269.4 927.6,-130.2 927.6,-115.74 927.6,-99.62 926.72,-86.43"/>
<polygon fill="black" stroke="black" points="930.17,-85.78 925.75,-76.15 923.2,-86.43 930.17,-85.78"/>
</g>
<!-- v25&#45;&gt;v -->
<g id="edge67" class="edge">
<title>v25&#45;&gt;v</title>
<path fill="none" stroke="black" d="M934.13,-395.76C944.58,-368.8 945.6,-315.03 945.6,-269.4 945.6,-269.4 945.6,-269.4 945.6,-130.2 945.6,-113.79 945.6,-95.24 941.74,-81.27"/>
<polygon fill="black" stroke="black" points="944.86,-79.64 937.97,-71.59 938.34,-82.18 944.86,-79.64"/>
</g>
<!-- v45 -->
<g id="node22" class="node">
<title>v45</title>
<ellipse fill="none" stroke="black" cx="982.6" cy="-297.5" rx="3.5" ry="3.5"/>
<text text-anchor="middle" x="951.6" y="-304.8" font-family="Times-Roman" font-size="14.00">ifEmpty</text>
</g>
<!-- v25&#45;&gt;v45 -->
<g id="edge23" class="edge">
<title>v25&#45;&gt;v45</title>
<path fill="none" stroke="black" d="M940.95,-396.08C947.08,-390.87 953.16,-384.71 957.6,-378 971.46,-357.05 978.02,-327.96 980.8,-311.4"/>
<polygon fill="black" stroke="black" points="984.31,-311.6 982.3,-301.2 977.39,-310.59 984.31,-311.6"/>
</g>
<!-- v47 -->
<g id="node23" class="node">
<title>v47</title>
<ellipse fill="none" stroke="black" cx="1053.6" cy="-239.3" rx="3.5" ry="3.5"/>
<text text-anchor="middle" x="1022.6" y="-246.6" font-family="Times-Roman" font-size="14.00">ifEmpty</text>
</g>
<!-- v25&#45;&gt;v47 -->
<g id="edge24" class="edge">
<title>v25&#45;&gt;v47</title>
<path fill="none" stroke="black" d="M1007.29,-402.03C1031.34,-394.18 1054.07,-381.01 1066.6,-359 1086.42,-324.18 1068.91,-274.28 1059.13,-251.92"/>
<polygon fill="black" stroke="black" points="1062.27,-250.36 1054.87,-242.78 1055.92,-253.32 1062.27,-250.36"/>
</g>
<!-- v48 -->
<g id="node24" class="node">
<title>v48</title>
<ellipse fill="none" stroke="black" cx="1090.6" cy="-156.3" rx="3.5" ry="3.5"/>
<text text-anchor="middle" x="1059.6" y="-163.6" font-family="Times-Roman" font-size="14.00">ifEmpty</text>
</g>
<!-- v25&#45;&gt;v48 -->
<g id="edge25" class="edge">
<title>v25&#45;&gt;v48</title>
<path fill="none" stroke="black" d="M996.93,-400.59C1055.11,-389.26 1123.6,-369.97 1123.6,-342 1123.6,-342 1123.6,-342 1123.6,-238.3 1123.6,-211.44 1107.84,-183.02 1098.1,-168.03"/>
<polygon fill="black" stroke="black" points="1100.74,-165.68 1092.19,-159.42 1094.97,-169.65 1100.74,-165.68"/>
</g>
<!-- v34 -->
<g id="node25" class="node">
<title>v34</title>
<ellipse fill="none" stroke="black" cx="855.6" cy="-341" rx="3.5" ry="3.5"/>
<text text-anchor="middle" x="839.1" y="-348.3" font-family="Times-Roman" font-size="14.00">mix</text>
</g>
<!-- v25&#45;&gt;v34 -->
<g id="edge26" class="edge">
<title>v25&#45;&gt;v34</title>
<path fill="none" stroke="black" d="M888.16,-396.45C881.58,-390.9 875.02,-384.46 869.6,-378 863.17,-370.33 857.12,-360.73 854.17,-353.38"/>
<polygon fill="black" stroke="black" points="857.63,-352.87 852.76,-343.46 850.7,-353.85 857.63,-352.87"/>
</g>
<!-- v25&#45;&gt;v34 -->
<g id="edge27" class="edge">
<title>v25&#45;&gt;v34</title>
<path fill="none" stroke="black" d="M904.54,-395.74C899.02,-390.35 892.78,-384.19 887.6,-378 880.1,-369.05 873.12,-357.48 866.77,-349.91"/>
<polygon fill="black" stroke="black" points="868.83,-347.05 859.06,-342.95 864.13,-352.25 868.83,-347.05"/>
</g>
<!-- v29 -->
<g id="node26" class="node">
<title>v29</title>
<ellipse fill="black" stroke="black" cx="1011.6" cy="-341" rx="1.8" ry="1.8"/>
</g>
<!-- v25&#45;&gt;v29 -->
<g id="edge29" class="edge">
<title>v25&#45;&gt;v29</title>
<path fill="none" stroke="black" d="M963.41,-397.26C973.84,-392.25 984.27,-385.89 992.6,-378 999.96,-371.03 1005.04,-360.56 1008.08,-352.71"/>
<polygon fill="black" stroke="black" points="1011.46,-353.63 1011.32,-343.04 1004.83,-351.41 1011.46,-353.63"/>
</g>
<!-- v28 -->
<g id="node27" class="node">
<title>v28</title>
<ellipse fill="black" stroke="black" cx="1033.6" cy="-341" rx="1.8" ry="1.8"/>
</g>
<!-- v25&#45;&gt;v28 -->
<g id="edge30" class="edge">
<title>v25&#45;&gt;v28</title>
<path fill="none" stroke="black" d="M968.85,-397.74C981.84,-392.62 995.28,-386.1 1006.6,-378 1016.05,-371.24 1023.64,-360.18 1028.33,-352.1"/>
<polygon fill="black" stroke="black" points="1031.53,-353.55 1033.11,-343.07 1025.34,-350.27 1031.53,-353.55"/>
</g>
<!-- v25&#45;&gt;v30 -->
<g id="edge31" class="edge">
<title>v25&#45;&gt;v30</title>
<path fill="none" stroke="black" d="M854.96,-398.46C806.1,-386.94 737.78,-370.82 686.63,-358.75"/>
<polygon fill="black" stroke="black" points="687.18,-355.29 676.64,-356.4 685.57,-362.1 687.18,-355.29"/>
</g>
<!-- v27 -->
<g id="node29" class="node">
<title>v27</title>
<ellipse fill="black" stroke="black" cx="1055.6" cy="-341" rx="1.8" ry="1.8"/>
</g>
<!-- v25&#45;&gt;v27 -->
<g id="edge32" class="edge">
<title>v25&#45;&gt;v27</title>
<path fill="none" stroke="black" d="M972.87,-397.98C988.78,-392.7 1005.78,-386.04 1020.6,-378 1032.56,-371.51 1035.45,-369.07 1044.6,-359 1046.6,-356.8 1048.48,-354.2 1050.09,-351.71"/>
<polygon fill="black" stroke="black" points="1053.15,-353.41 1055.1,-343 1047.08,-349.92 1053.15,-353.41"/>
</g>
<!-- v26 -->
<g id="node30" class="node">
<title>v26</title>
<ellipse fill="black" stroke="black" cx="791.6" cy="-341" rx="1.8" ry="1.8"/>
</g>
<!-- v25&#45;&gt;v26 -->
<g id="edge35" class="edge">
<title>v25&#45;&gt;v26</title>
<path fill="none" stroke="black" d="M844.84,-399.46C831.34,-394.42 818.17,-387.49 807.6,-378 800.3,-371.44 796.15,-360.93 793.92,-352.95"/>
<polygon fill="black" stroke="black" points="797.32,-352.08 791.75,-343.07 790.48,-353.59 797.32,-352.08"/>
</g>
<!-- v25&#45;&gt;v36 -->
<g id="edge42" class="edge">
<title>v25&#45;&gt;v36</title>
<path fill="none" stroke="black" d="M892.47,-396.34C877.78,-385.96 858.78,-372.13 842.6,-359 824.03,-343.93 822.36,-336.47 802.6,-323 787.82,-312.93 776.76,-319.72 766.6,-305 762.11,-298.5 758.79,-254.21 757.03,-224.35"/>
<polygon fill="black" stroke="black" points="760.51,-223.89 756.45,-214.1 753.52,-224.28 760.51,-223.89"/>
<text text-anchor="middle" x="807.6" y="-293.8" font-family="Times-Roman" font-size="14.00">viewer_files</text>
</g>
<!-- v45&#45;&gt;v -->
<g id="edge56" class="edge">
<title>v45&#45;&gt;v</title>
<path fill="none" stroke="black" d="M982.68,-293.92C982.91,-285.95 983.6,-260.99 983.6,-240.3 983.6,-240.3 983.6,-240.3 983.6,-130.2 983.6,-107.29 964.85,-88.62 947.49,-76.25"/>
<polygon fill="black" stroke="black" points="949.43,-73.34 939.17,-70.69 945.54,-79.16 949.43,-73.34"/>
</g>
<!-- v47&#45;&gt;v -->
<g id="edge57" class="edge">
<title>v47&#45;&gt;v</title>
<path fill="none" stroke="black" d="M1053.3,-235.53C1051.44,-219.64 1040.15,-139.12 997.6,-94.6 985.78,-82.23 968.82,-73.94 953.64,-68.54"/>
<polygon fill="black" stroke="black" points="954.59,-65.17 943.99,-65.4 952.42,-71.83 954.59,-65.17"/>
</g>
<!-- v48&#45;&gt;v -->
<g id="edge58" class="edge">
<title>v48&#45;&gt;v</title>
<path fill="none" stroke="black" d="M1089.21,-153.03C1083.66,-144.12 1062.06,-111.29 1035.6,-94.6 1010.96,-79.06 979.08,-70.12 954.81,-65.17"/>
<polygon fill="black" stroke="black" points="955.41,-61.72 944.93,-63.29 954.09,-68.6 955.41,-61.72"/>
</g>
<!-- v35 -->
<g id="node33" class="node">
<title>v35</title>
<ellipse fill="none" stroke="black" cx="833.6" cy="-268.4" rx="3.5" ry="3.5"/>
<text text-anchor="middle" x="807.6" y="-275.7" font-family="Times-Roman" font-size="14.00">collect</text>
</g>
<!-- v34&#45;&gt;v35 -->
<g id="edge40" class="edge">
<title>v34&#45;&gt;v35</title>
<path fill="none" stroke="black" d="M856.07,-337.14C857.24,-329.25 859.68,-306.64 852.6,-290 850.64,-285.4 847.19,-281.17 843.76,-277.76"/>
<polygon fill="black" stroke="black" points="846.01,-275.08 836.15,-271.21 841.45,-280.38 846.01,-275.08"/>
</g>
<!-- v32 -->
<g id="node31" class="node">
<title>v32</title>
<ellipse fill="black" stroke="black" cx="609.6" cy="-268.4" rx="1.8" ry="1.8"/>
</g>
<!-- v30&#45;&gt;v32 -->
<g id="edge38" class="edge">
<title>v30&#45;&gt;v32</title>
<path fill="none" stroke="black" d="M614.15,-322.91C613.03,-309.74 611.51,-291.92 610.55,-280.54"/>
<polygon fill="black" stroke="black" points="614,-279.89 609.67,-270.22 607.03,-280.48 614,-279.89"/>
</g>
<!-- v31 -->
<g id="node32" class="node">
<title>v31</title>
<ellipse fill="black" stroke="black" cx="585.6" cy="-268.4" rx="1.8" ry="1.8"/>
</g>
<!-- v30&#45;&gt;v31 -->
<g id="edge39" class="edge">
<title>v30&#45;&gt;v31</title>
<path fill="none" stroke="black" d="M608.34,-322.91C602.62,-309.45 594.83,-291.12 590.01,-279.79"/>
<polygon fill="black" stroke="black" points="593.08,-278.06 585.95,-270.22 586.64,-280.8 593.08,-278.06"/>
</g>
<!-- v35&#45;&gt;v36 -->
<g id="edge41" class="edge">
<title>v35&#45;&gt;v36</title>
<path fill="none" stroke="black" d="M831.35,-265.36C824.06,-258.77 800.48,-237.42 781.54,-220.28"/>
<polygon fill="black" stroke="black" points="783.79,-217.6 774.03,-213.48 779.09,-222.79 783.79,-217.6"/>
</g>
<!-- v36&#45;&gt;v -->
<g id="edge65" class="edge">
<title>v36&#45;&gt;v</title>
<path fill="none" stroke="black" d="M747.37,-177.86C741.6,-163.31 736.54,-142.4 746.6,-127.6 776.75,-83.27 840.73,-67.84 881.6,-62.47"/>
<polygon fill="black" stroke="black" points="882.18,-65.92 891.7,-61.28 881.36,-58.97 882.18,-65.92"/>
</g>
<!-- v39 -->
<g id="node36" class="node">
<title>v39</title>
<ellipse fill="black" stroke="black" cx="757.6" cy="-131.2" rx="1.8" ry="1.8"/>
</g>
<!-- v36&#45;&gt;v39 -->
<g id="edge46" class="edge">
<title>v36&#45;&gt;v39</title>
<path fill="none" stroke="black" d="M756.15,-177.69C756.49,-166.8 756.94,-152.99 757.24,-143.46"/>
<polygon fill="black" stroke="black" points="760.74,-143.5 757.56,-133.39 753.74,-143.28 760.74,-143.5"/>
</g>
<!-- v41 -->
<g id="node37" class="node">
<title>v41</title>
<ellipse fill="none" stroke="black" cx="599.6" cy="-131.2" rx="3.5" ry="3.5"/>
<text text-anchor="middle" x="568.6" y="-138.5" font-family="Times-Roman" font-size="14.00">ifEmpty</text>
</g>
<!-- v36&#45;&gt;v41 -->
<g id="edge47" class="edge">
<title>v36&#45;&gt;v41</title>
<path fill="none" stroke="black" d="M717.04,-179.33C682.77,-165.58 634.73,-146.3 612.2,-137.26"/>
<polygon fill="black" stroke="black" points="613.34,-133.94 602.75,-133.46 610.73,-140.44 613.34,-133.94"/>
</g>
<!-- v38 -->
<g id="node38" class="node">
<title>v38</title>
<ellipse fill="black" stroke="black" cx="780.6" cy="-131.2" rx="1.8" ry="1.8"/>
</g>
<!-- v36&#45;&gt;v38 -->
<g id="edge48" class="edge">
<title>v36&#45;&gt;v38</title>
<path fill="none" stroke="black" d="M762.43,-177.69C766.88,-166.54 772.55,-152.35 776.37,-142.8"/>
<polygon fill="black" stroke="black" points="779.66,-143.98 780.12,-133.39 773.16,-141.38 779.66,-143.98"/>
</g>
<!-- v37 -->
<g id="node39" class="node">
<title>v37</title>
<ellipse fill="black" stroke="black" cx="805.6" cy="-131.2" rx="1.8" ry="1.8"/>
</g>
<!-- v36&#45;&gt;v37 -->
<g id="edge49" class="edge">
<title>v36&#45;&gt;v37</title>
<path fill="none" stroke="black" d="M770.53,-177.94C775.43,-172.26 780.84,-165.83 785.6,-159.8 790.3,-153.84 795.31,-146.93 799.14,-141.51"/>
<polygon fill="black" stroke="black" points="802.03,-143.48 804.87,-133.28 796.28,-139.49 802.03,-143.48"/>
</g>
<!-- v49 -->
<g id="node43" class="node">
<title>v49</title>
<ellipse fill="none" stroke="black" cx="845.6" cy="-131.2" rx="3.5" ry="3.5"/>
<text text-anchor="middle" x="814.6" y="-138.5" font-family="Times-Roman" font-size="14.00">ifEmpty</text>
</g>
<!-- v36&#45;&gt;v49 -->
<g id="edge59" class="edge">
<title>v36&#45;&gt;v49</title>
<path fill="none" stroke="black" d="M779.25,-178.35C797.18,-165.88 820.99,-149.32 834.67,-139.8"/>
<polygon fill="black" stroke="black" points="836.68,-142.67 842.89,-134.08 832.69,-136.92 836.68,-142.67"/>
</g>
<!-- v33 -->
<g id="node35" class="node">
<title>v33</title>
<ellipse fill="black" stroke="black" cx="632.6" cy="-268.4" rx="3.6" ry="3.6"/>
</g>
<!-- v33&#45;&gt;v36 -->
<g id="edge45" class="edge">
<title>v33&#45;&gt;v36</title>
<path fill="none" stroke="black" d="M630.52,-265.26C625.04,-259.36 611.21,-242.62 619.6,-231.8 627.12,-222.1 649.74,-214.62 674.44,-209.11"/>
<polygon fill="black" stroke="black" points="675.28,-212.51 684.35,-207.02 673.84,-205.66 675.28,-212.51"/>
<text text-anchor="middle" x="674.1" y="-235.6" font-family="Times-Roman" font-size="14.00">regulator_types</text>
</g>
<!-- v41&#45;&gt;v42 -->
<g id="edge50" class="edge">
<title>v41&#45;&gt;v42</title>
<path fill="none" stroke="black" d="M596.41,-129.07C582.9,-124.34 529.02,-105.76 483.6,-94.6 453.47,-87.2 420.3,-80.54 390.3,-75.06"/>
<polygon fill="black" stroke="black" points="390.73,-71.58 380.27,-73.25 389.49,-78.47 390.73,-71.58"/>
</g>
<!-- v40 -->
<g id="node40" class="node">
<title>v40</title>
<ellipse fill="black" stroke="black" cx="233.6" cy="-131.2" rx="3.6" ry="3.6"/>
</g>
<!-- v40&#45;&gt;v42 -->
<g id="edge53" class="edge">
<title>v40&#45;&gt;v42</title>
<path fill="none" stroke="black" d="M232.81,-127.36C231.21,-120.97 228.25,-105.21 234.6,-94.6 237.46,-89.82 241.24,-85.63 245.51,-81.98"/>
<polygon fill="black" stroke="black" points="247.7,-84.71 253.66,-75.96 243.54,-79.08 247.7,-84.71"/>
<text text-anchor="middle" x="289.1" y="-98.4" font-family="Times-Roman" font-size="14.00">regulator_types</text>
</g>
<!-- v49&#45;&gt;v -->
<g id="edge60" class="edge">
<title>v49&#45;&gt;v</title>
<path fill="none" stroke="black" d="M847.52,-127.85C852.35,-122.01 865.46,-106.43 877.6,-94.6 882.73,-89.6 888.46,-84.45 893.98,-79.7"/>
<polygon fill="black" stroke="black" points="896.43,-82.22 901.8,-73.09 891.91,-76.87 896.43,-82.22"/>
</g>
</g>
</svg>
