<?xml version="1.0" encoding="UTF-8" standalone="no"?>
<!DOCTYPE svg PUBLIC "-//W3C//DTD SVG 1.1//EN"
 "http://www.w3.org/Graphics/SVG/1.1/DTD/svg11.dtd">
<!-- Generated by graphviz version 2.44.0 (0)
 -->
<!-- Title: pipeline_dag_20251212_110942 Pages: 1 -->
<svg width="1574pt" height="1006pt"
 viewBox="0.00 0.00 1573.89 1005.60" xmlns="http://www.w3.org/2000/svg" xmlns:xlink="http://www.w3.org/1999/xlink">
<g id="graph0" class="graph" transform="scale(1 1) rotate(0) translate(4 1001.6)">
<title>pipeline_dag_20251212_110942</title>
<polygon fill="white" stroke="transparent" points="-4,4 -4,-1001.6 1569.89,-1001.6 1569.89,4 -4,4"/>
<!-- v0 -->
<g id="node1" class="node">
<title>v0</title>
<ellipse fill="black" stroke="black" cx="1285" cy="-979" rx="3.6" ry="3.6"/>
<text text-anchor="middle" x="1219.4" y="-986.4" font-family="Times-Roman" font-size="14.00">Channel.fromPath</text>
</g>
<!-- v7 -->
<g id="node2" class="node">
<title>v7</title>
<ellipse fill="none" stroke="black" cx="1004" cy="-892" rx="108.58" ry="18"/>
<text text-anchor="middle" x="1004" y="-888.3" font-family="Times-Roman" font-size="14.00">PREPROCESSING_TFA</text>
</g>
<!-- v0&#45;&gt;v7 -->
<g id="edge1" class="edge">
<title>v0&#45;&gt;v7</title>
<path fill="none" stroke="black" d="M1281.84,-977.05C1260.75,-970.67 1138.8,-933.77 1063.64,-911.04"/>
<polygon fill="black" stroke="black" points="1064.4,-907.61 1053.81,-908.07 1062.37,-914.31 1064.4,-907.61"/>
<text text-anchor="middle" x="1191" y="-931.8" font-family="Times-Roman" font-size="14.00">input_ch</text>
</g>
<!-- v33 -->
<g id="node10" class="node">
<title>v33</title>
<ellipse fill="none" stroke="black" cx="1256" cy="-145.6" rx="143.77" ry="18"/>
<text text-anchor="middle" x="1256" y="-141.9" font-family="Times-Roman" font-size="14.00">MODULE_VIEWER_HEATMAPS</text>
</g>
<!-- v0&#45;&gt;v33 -->
<g id="edge50" class="edge">
<title>v0&#45;&gt;v33</title>
<path fill="none" stroke="black" d="M1286.78,-975.79C1294.18,-966.41 1322,-928.73 1322,-893 1322,-893 1322,-893 1322,-217.2 1322,-197.8 1308.54,-181.53 1293.78,-169.51"/>
<polygon fill="black" stroke="black" points="1295.62,-166.51 1285.53,-163.28 1291.4,-172.1 1295.62,-166.51"/>
<text text-anchor="middle" x="1352" y="-554.8" font-family="Times-Roman" font-size="14.00">input_ch</text>
</g>
<!-- v12 -->
<g id="node9" class="node">
<title>v12</title>
<ellipse fill="none" stroke="black" cx="573" cy="-819.5" rx="3.5" ry="3.5"/>
<text text-anchor="middle" x="539.5" y="-826.8" font-family="Times-Roman" font-size="14.00">combine</text>
</g>
<!-- v7&#45;&gt;v12 -->
<g id="edge6" class="edge">
<title>v7&#45;&gt;v12</title>
<path fill="none" stroke="black" d="M929.42,-878.8C823.69,-861.51 637.39,-831.03 586.29,-822.67"/>
<polygon fill="black" stroke="black" points="586.77,-819.21 576.34,-821.05 585.64,-826.11 586.77,-819.21"/>
</g>
<!-- v7&#45;&gt;v33 -->
<g id="edge7" class="edge">
<title>v7&#45;&gt;v33</title>
<path fill="none" stroke="black" d="M1067.15,-877.2C1095.2,-866.99 1122,-849.61 1122,-820.5 1122,-820.5 1122,-820.5 1122,-325.3 1122,-233.69 1243.3,-279.16 1283,-196.6 1286.96,-188.37 1284.52,-179.56 1279.81,-171.66"/>
<polygon fill="black" stroke="black" points="1282.65,-169.62 1273.98,-163.52 1276.95,-173.69 1282.65,-169.62"/>
</g>
<!-- v10 -->
<g id="node11" class="node">
<title>v10</title>
<ellipse fill="black" stroke="black" cx="1016" cy="-819.5" rx="1.8" ry="1.8"/>
</g>
<!-- v7&#45;&gt;v10 -->
<g id="edge8" class="edge">
<title>v7&#45;&gt;v10</title>
<path fill="none" stroke="black" d="M1006.9,-873.93C1009.17,-860.64 1012.24,-842.59 1014.17,-831.25"/>
<polygon fill="black" stroke="black" points="1017.63,-831.77 1015.86,-821.32 1010.73,-830.59 1017.63,-831.77"/>
</g>
<!-- v43 -->
<g id="node12" class="node">
<title>v43</title>
<ellipse fill="none" stroke="black" cx="667" cy="-58.6" rx="167.07" ry="18"/>
<text text-anchor="middle" x="667" y="-54.9" font-family="Times-Roman" font-size="14.00">MODULE_OVERVIEW_INTERACTIVE</text>
</g>
<!-- v7&#45;&gt;v43 -->
<g id="edge9" class="edge">
<title>v7&#45;&gt;v43</title>
<path fill="none" stroke="black" d="M1041.66,-874.87C1062.41,-863.19 1084,-845.12 1084,-820.5 1084,-820.5 1084,-820.5 1084,-144.6 1084,-91.74 953.74,-71.42 838.83,-63.77"/>
<polygon fill="black" stroke="black" points="839.02,-60.28 828.82,-63.14 838.58,-67.26 839.02,-60.28"/>
</g>
<!-- v7&#45;&gt;v43 -->
<g id="edge67" class="edge">
<title>v7&#45;&gt;v43</title>
<path fill="none" stroke="black" d="M1021.08,-874.11C1032.71,-860.76 1046,-841.02 1046,-820.5 1046,-820.5 1046,-820.5 1046,-557.5 1046,-527.68 1039.13,-516.99 1017,-497 999.47,-481.17 980.77,-498.19 967,-479 954.04,-460.94 966,-451.23 966,-429 966,-429 966,-429 966,-144.6 966,-106.82 876.56,-84.94 795.52,-72.87"/>
<polygon fill="black" stroke="black" points="795.57,-69.34 785.17,-71.37 794.57,-76.27 795.57,-69.34"/>
<text text-anchor="middle" x="1018.5" y="-467.8" font-family="Times-Roman" font-size="14.00">expression_file</text>
</g>
<!-- v15 -->
<g id="node13" class="node">
<title>v15</title>
<ellipse fill="none" stroke="black" cx="529" cy="-602" rx="96.68" ry="18"/>
<text text-anchor="middle" x="529" y="-598.3" font-family="Times-Roman" font-size="14.00">POST_CLUSTERING</text>
</g>
<!-- v7&#45;&gt;v15 -->
<g id="edge10" class="edge">
<title>v7&#45;&gt;v15</title>
<path fill="none" stroke="black" d="M931.6,-878.44C901.31,-868.63 873,-851.23 873,-820.5 873,-820.5 873,-820.5 873,-702.5 873,-695.28 691.66,-646.09 592.31,-619.69"/>
<polygon fill="black" stroke="black" points="592.94,-616.23 582.37,-617.05 591.14,-623 592.94,-616.23"/>
</g>
<!-- v9 -->
<g id="node14" class="node">
<title>v9</title>
<ellipse fill="black" stroke="black" cx="966" cy="-819.5" rx="1.8" ry="1.8"/>
</g>
<!-- v7&#45;&gt;v9 -->
<g id="edge11" class="edge">
<title>v7&#45;&gt;v9</title>
<path fill="none" stroke="black" d="M994.8,-873.93C987.4,-860.2 977.26,-841.38 971.19,-830.13"/>
<polygon fill="black" stroke="black" points="974.27,-828.46 966.44,-821.32 968.11,-831.79 974.27,-828.46"/>
</g>
<!-- v8 -->
<g id="node15" class="node">
<title>v8</title>
<ellipse fill="black" stroke="black" cx="991" cy="-819.5" rx="1.8" ry="1.8"/>
</g>
<!-- v7&#45;&gt;v8 -->
<g id="edge12" class="edge">
<title>v7&#45;&gt;v8</title>
<path fill="none" stroke="black" d="M1000.85,-873.93C998.4,-860.64 995.07,-842.59 992.98,-831.25"/>
<polygon fill="black" stroke="black" points="996.41,-830.52 991.15,-821.32 989.52,-831.79 996.41,-830.52"/>
</g>
<!-- v40 -->
<g id="node24" class="node">
<title>v40</title>
<ellipse fill="none" stroke="black" cx="593" cy="-145.6" rx="119.68" ry="18"/>
<text text-anchor="middle" x="593" y="-141.9" font-family="Times-Roman" font-size="14.00">ENRICHMENT_ANALYSIS</text>
</g>
<!-- v7&#45;&gt;v40 -->
<g id="edge61" class="edge">
<title>v7&#45;&gt;v40</title>
<path fill="none" stroke="black" d="M958.32,-875.59C934.8,-864.47 911,-846.74 911,-820.5 911,-820.5 911,-820.5 911,-673.5 911,-592.44 898.59,-570.78 865,-497 838.24,-438.21 823.53,-427.3 783,-377 753.77,-340.72 739.87,-337.37 711,-300.8 671.77,-251.11 674.54,-229.38 633,-181.6 629.61,-177.7 625.78,-173.82 621.87,-170.16"/>
<polygon fill="black" stroke="black" points="624.13,-167.48 614.36,-163.4 619.46,-172.69 624.13,-167.48"/>
<text text-anchor="middle" x="947.5" y="-511.3" font-family="Times-Roman" font-size="14.00">preprocessed_data</text>
</g>
<!-- v1 -->
<g id="node3" class="node">
<title>v1</title>
<ellipse fill="black" stroke="black" cx="1002" cy="-979" rx="3.6" ry="3.6"/>
<text text-anchor="middle" x="936.4" y="-986.4" font-family="Times-Roman" font-size="14.00">Channel.fromPath</text>
</g>
<!-- v1&#45;&gt;v7 -->
<g id="edge2" class="edge">
<title>v1&#45;&gt;v7</title>
<path fill="none" stroke="black" d="M1002.55,-975.11C1003.67,-969.14 1006.15,-955 1007,-943 1007.52,-935.66 1007.37,-927.7 1006.93,-920.34"/>
<polygon fill="black" stroke="black" points="1010.4,-919.83 1006.14,-910.13 1003.43,-920.37 1010.4,-919.83"/>
<text text-anchor="middle" x="1035.5" y="-931.8" font-family="Times-Roman" font-size="14.00">data_ch</text>
</g>
<!-- v27 -->
<g id="node33" class="node">
<title>v27</title>
<ellipse fill="none" stroke="black" cx="810" cy="-282.8" rx="90.18" ry="18"/>
<text text-anchor="middle" x="810" y="-279.1" font-family="Times-Roman" font-size="14.00">PKN_EVALUATION</text>
</g>
<!-- v1&#45;&gt;v27 -->
<g id="edge42" class="edge">
<title>v1&#45;&gt;v27</title>
<path fill="none" stroke="black" d="M998.56,-977.69C978.03,-975.74 871.78,-964.71 849,-943 832.29,-927.08 835,-916.08 835,-893 835,-893 835,-893 835,-702.5 835,-673.67 838.24,-666.59 842,-638 846.46,-604.09 886.38,-367.9 889,-333.8 889.51,-327.15 892.64,-324.39 889,-318.8 884.69,-312.17 878.8,-306.79 872.16,-302.42"/>
<polygon fill="black" stroke="black" points="873.84,-299.34 863.43,-297.41 870.36,-305.42 873.84,-299.34"/>
<text text-anchor="middle" x="869.5" y="-641.8" font-family="Times-Roman" font-size="14.00">data_ch</text>
</g>
<!-- v2 -->
<g id="node4" class="node">
<title>v2</title>
<ellipse fill="black" stroke="black" cx="1355" cy="-979" rx="3.6" ry="3.6"/>
<text text-anchor="middle" x="1289.4" y="-964.2" font-family="Times-Roman" font-size="14.00">Channel.fromPath</text>
</g>
<!-- v3 -->
<g id="node5" class="node">
<title>v3</title>
<ellipse fill="black" stroke="black" cx="1355" cy="-892" rx="1.8" ry="1.8"/>
</g>
<!-- v2&#45;&gt;v3 -->
<g id="edge3" class="edge">
<title>v2&#45;&gt;v3</title>
<path fill="none" stroke="black" d="M1355,-975.17C1355,-964.19 1355,-924.02 1355,-904.2"/>
<polygon fill="black" stroke="black" points="1358.5,-903.96 1355,-893.96 1351.5,-903.96 1358.5,-903.96"/>
<text text-anchor="middle" x="1405" y="-931.8" font-family="Times-Roman" font-size="14.00">name_map_ch</text>
</g>
<!-- v4 -->
<g id="node6" class="node">
<title>v4</title>
<ellipse fill="none" stroke="black" cx="1471" cy="-979" rx="94.78" ry="18"/>
<text text-anchor="middle" x="1471" y="-975.3" font-family="Times-Roman" font-size="14.00">LOG_PARAMETERS</text>
</g>
<!-- v5 -->
<g id="node7" class="node">
<title>v5</title>
<ellipse fill="black" stroke="black" cx="1471" cy="-892" rx="1.8" ry="1.8"/>
</g>
<!-- v4&#45;&gt;v5 -->
<g id="edge4" class="edge">
<title>v4&#45;&gt;v5</title>
<path fill="none" stroke="black" d="M1471,-960.8C1471,-943.92 1471,-918.66 1471,-904.22"/>
<polygon fill="black" stroke="black" points="1474.5,-904.08 1471,-894.08 1467.5,-904.08 1474.5,-904.08"/>
</g>
<!-- v6 -->
<g id="node8" class="node">
<title>v6</title>
<ellipse fill="black" stroke="black" cx="483" cy="-979" rx="3.6" ry="3.6"/>
</g>
<!-- v6&#45;&gt;v7 -->
<g id="edge5" class="edge">
<title>v6&#45;&gt;v7</title>
<path fill="none" stroke="black" d="M486.45,-977.7C510.49,-975.61 655.37,-962.59 772,-943 827.27,-933.72 889.3,-920.18 935.31,-909.54"/>
<polygon fill="black" stroke="black" points="936.22,-912.92 945.17,-907.24 934.63,-906.1 936.22,-912.92"/>
<text text-anchor="middle" x="882.5" y="-931.8" font-family="Times-Roman" font-size="14.00">run_id_ch</text>
</g>
<!-- v6&#45;&gt;v33 -->
<g id="edge51" class="edge">
<title>v6&#45;&gt;v33</title>
<path fill="none" stroke="black" d="M486.44,-977.87C534.48,-976.03 1070.34,-954.51 1122,-910 1163.9,-873.9 1160,-846.81 1160,-791.5 1160,-791.5 1160,-791.5 1160,-325.3 1160,-261.39 1124.97,-231.41 1165,-181.6 1169.67,-175.79 1175.42,-170.95 1181.74,-166.91"/>
<polygon fill="black" stroke="black" points="1183.67,-169.84 1190.67,-161.88 1180.24,-163.74 1183.67,-169.84"/>
<text text-anchor="middle" x="1193.5" y="-554.8" font-family="Times-Roman" font-size="14.00">run_id_ch</text>
</g>
<!-- v6&#45;&gt;v43 -->
<g id="edge68" class="edge">
<title>v6&#45;&gt;v43</title>
<path fill="none" stroke="black" d="M479.33,-978.07C450.95,-978.51 263.63,-979.91 118,-943 62.79,-929.01 0,-949.96 0,-893 0,-893 0,-893 0,-144.6 0,-123.35 38.52,-109.36 100,-94.6 172.33,-77.23 356.3,-68.18 495.22,-63.67"/>
<polygon fill="black" stroke="black" points="495.68,-67.16 505.56,-63.34 495.45,-60.16 495.68,-67.16"/>
<text text-anchor="middle" x="33.5" y="-511.3" font-family="Times-Roman" font-size="14.00">run_id_ch</text>
</g>
<!-- v6&#45;&gt;v15 -->
<g id="edge18" class="edge">
<title>v6&#45;&gt;v15</title>
<path fill="none" stroke="black" d="M479.89,-976.68C464.91,-970.11 401,-939.34 401,-893 401,-893 401,-893 401,-673.5 401,-645.59 424.64,-628.64 451.61,-618.4"/>
<polygon fill="black" stroke="black" points="452.96,-621.64 461.25,-615.05 450.66,-615.02 452.96,-621.64"/>
<text text-anchor="middle" x="434.5" y="-786.8" font-family="Times-Roman" font-size="14.00">run_id_ch</text>
</g>
<!-- v13 -->
<g id="node17" class="node">
<title>v13</title>
<ellipse fill="none" stroke="black" cx="521" cy="-747" rx="68.49" ry="18"/>
<text text-anchor="middle" x="521" y="-743.3" font-family="Times-Roman" font-size="14.00">CLUSTERING</text>
</g>
<!-- v6&#45;&gt;v13 -->
<g id="edge15" class="edge">
<title>v6&#45;&gt;v13</title>
<path fill="none" stroke="black" d="M483.3,-975.38C484.91,-961.47 492.76,-894.96 502,-841 505.83,-818.63 511.04,-793.41 515.04,-774.88"/>
<polygon fill="black" stroke="black" points="518.46,-775.59 517.17,-765.08 511.62,-774.11 518.46,-775.59"/>
<text text-anchor="middle" x="535.5" y="-844.8" font-family="Times-Roman" font-size="14.00">run_id_ch</text>
</g>
<!-- v16 -->
<g id="node19" class="node">
<title>v16</title>
<ellipse fill="none" stroke="black" cx="548" cy="-515" rx="120.48" ry="18"/>
<text text-anchor="middle" x="548" y="-511.3" font-family="Times-Roman" font-size="14.00">NETWORK_GENERATION</text>
</g>
<!-- v6&#45;&gt;v16 -->
<g id="edge21" class="edge">
<title>v6&#45;&gt;v16</title>
<path fill="none" stroke="black" d="M486.76,-978.02C512.61,-977.92 663,-973.87 663,-893 663,-893 663,-893 663,-601 663,-570 635.63,-549.01 607.6,-535.65"/>
<polygon fill="black" stroke="black" points="608.66,-532.29 598.11,-531.41 605.81,-538.69 608.66,-532.29"/>
<text text-anchor="middle" x="696.5" y="-743.3" font-family="Times-Roman" font-size="14.00">run_id_ch</text>
</g>
<!-- v6&#45;&gt;v40 -->
<g id="edge62" class="edge">
<title>v6&#45;&gt;v40</title>
<path fill="none" stroke="black" d="M479.52,-977.78C456.74,-976.13 330,-963.8 330,-893 330,-893 330,-893 330,-470.5 330,-378.6 298.42,-340.17 351,-264.8 389.3,-209.9 460.44,-179.44 515.71,-163.25"/>
<polygon fill="black" stroke="black" points="516.82,-166.58 525.49,-160.49 514.91,-159.84 516.82,-166.58"/>
<text text-anchor="middle" x="363.5" y="-554.8" font-family="Times-Roman" font-size="14.00">run_id_ch</text>
</g>
<!-- v21 -->
<g id="node27" class="node">
<title>v21</title>
<ellipse fill="none" stroke="black" cx="184" cy="-428" rx="117.78" ry="18"/>
<text text-anchor="middle" x="184" y="-424.3" font-family="Times-Roman" font-size="14.00">SUBNETWORK_GRAPHS</text>
</g>
<!-- v6&#45;&gt;v21 -->
<g id="edge36" class="edge">
<title>v6&#45;&gt;v21</title>
<path fill="none" stroke="black" d="M479.16,-978.01C438.86,-978.07 95,-976.1 95,-893 95,-893 95,-893 95,-514 95,-486.34 117.76,-464.92 140.26,-450.5"/>
<polygon fill="black" stroke="black" points="142.08,-453.49 148.82,-445.32 138.46,-447.5 142.08,-453.49"/>
<text text-anchor="middle" x="128.5" y="-699.8" font-family="Times-Roman" font-size="14.00">run_id_ch</text>
</g>
<!-- v6&#45;&gt;v27 -->
<g id="edge43" class="edge">
<title>v6&#45;&gt;v27</title>
<path fill="none" stroke="black" d="M486.48,-977.72C518.31,-975.02 758,-952.72 758,-893 758,-893 758,-893 758,-789.5 758,-721.99 756.41,-704.33 769,-638 795.41,-498.85 842.64,-473.82 864,-333.8 865.01,-327.21 867.18,-324.66 864,-318.8 861.33,-313.89 857.65,-309.57 853.44,-305.78"/>
<polygon fill="black" stroke="black" points="855.47,-302.92 845.42,-299.55 851.17,-308.45 855.47,-302.92"/>
<text text-anchor="middle" x="802.5" y="-641.8" font-family="Times-Roman" font-size="14.00">run_id_ch</text>
</g>
<!-- v12&#45;&gt;v13 -->
<g id="edge14" class="edge">
<title>v12&#45;&gt;v13</title>
<path fill="none" stroke="black" d="M571.27,-816.15C566.32,-809.44 551.66,-789.57 539.44,-773"/>
<polygon fill="black" stroke="black" points="542.09,-770.69 533.34,-764.72 536.45,-774.85 542.09,-770.69"/>
</g>
<!-- v35 -->
<g id="node40" class="node">
<title>v35</title>
<ellipse fill="black" stroke="black" cx="1268" cy="-58.6" rx="1.8" ry="1.8"/>
</g>
<!-- v33&#45;&gt;v35 -->
<g id="edge53" class="edge">
<title>v33&#45;&gt;v35</title>
<path fill="none" stroke="black" d="M1258.43,-127.4C1260.81,-110.52 1264.38,-85.26 1266.42,-70.82"/>
<polygon fill="black" stroke="black" points="1269.91,-71.07 1267.85,-60.68 1262.98,-70.09 1269.91,-71.07"/>
</g>
<!-- v34 -->
<g id="node41" class="node">
<title>v34</title>
<ellipse fill="black" stroke="black" cx="1243" cy="-58.6" rx="1.8" ry="1.8"/>
</g>
<!-- v33&#45;&gt;v34 -->
<g id="edge54" class="edge">
<title>v33&#45;&gt;v34</title>
<path fill="none" stroke="black" d="M1253.37,-127.4C1250.79,-110.52 1246.92,-85.26 1244.72,-70.82"/>
<polygon fill="black" stroke="black" points="1248.14,-70.04 1243.17,-60.68 1241.22,-71.1 1248.14,-70.04"/>
</g>
<!-- v45 -->
<g id="node45" class="node">
<title>v45</title>
<ellipse fill="black" stroke="black" cx="655" cy="-1.8" rx="1.8" ry="1.8"/>
</g>
<!-- v43&#45;&gt;v45 -->
<g id="edge70" class="edge">
<title>v43&#45;&gt;v45</title>
<path fill="none" stroke="black" d="M663.27,-40.56C661.34,-31.76 659.05,-21.3 657.37,-13.61"/>
<polygon fill="black" stroke="black" points="660.77,-12.78 655.21,-3.76 653.93,-14.28 660.77,-12.78"/>
</g>
<!-- v44 -->
<g id="node46" class="node">
<title>v44</title>
<ellipse fill="black" stroke="black" cx="680" cy="-1.8" rx="1.8" ry="1.8"/>
</g>
<!-- v43&#45;&gt;v44 -->
<g id="edge71" class="edge">
<title>v43&#45;&gt;v44</title>
<path fill="none" stroke="black" d="M671.04,-40.56C673.13,-31.76 675.61,-21.3 677.43,-13.61"/>
<polygon fill="black" stroke="black" points="680.87,-14.3 679.77,-3.76 674.06,-12.68 680.87,-14.3"/>
</g>
<!-- v15&#45;&gt;v16 -->
<g id="edge19" class="edge">
<title>v15&#45;&gt;v16</title>
<path fill="none" stroke="black" d="M527.3,-583.8C528.65,-572.05 531.92,-556.24 535.67,-542.84"/>
<polygon fill="black" stroke="black" points="539.05,-543.76 538.61,-533.18 532.36,-541.72 539.05,-543.76"/>
</g>
<!-- v15&#45;&gt;v16 -->
<g id="edge20" class="edge">
<title>v15&#45;&gt;v16</title>
<path fill="none" stroke="black" d="M538.39,-583.8C542.26,-572.16 546.02,-556.55 548.26,-543.24"/>
<polygon fill="black" stroke="black" points="551.75,-543.57 549.71,-533.18 544.82,-542.58 551.75,-543.57"/>
</g>
<!-- v15&#45;&gt;v21 -->
<g id="edge35" class="edge">
<title>v15&#45;&gt;v21</title>
<path fill="none" stroke="black" d="M493.51,-585.18C467.53,-574.15 431.15,-559.89 398,-551 349.3,-537.94 330.78,-556.16 286,-533 250.19,-514.48 219.42,-478.7 201.31,-454.33"/>
<polygon fill="black" stroke="black" points="203.92,-451.97 195.22,-445.92 198.25,-456.08 203.92,-451.97"/>
<text text-anchor="middle" x="352.5" y="-511.3" font-family="Times-Roman" font-size="14.00">preprocessing_files</text>
</g>
<!-- v11 -->
<g id="node16" class="node">
<title>v11</title>
<ellipse fill="black" stroke="black" cx="573" cy="-892" rx="3.6" ry="3.6"/>
<text text-anchor="middle" x="522.4" y="-899.4" font-family="Times-Roman" font-size="14.00">Channel.from</text>
</g>
<!-- v11&#45;&gt;v12 -->
<g id="edge13" class="edge">
<title>v11&#45;&gt;v12</title>
<path fill="none" stroke="black" d="M573,-888.32C573,-879.42 573,-850.44 573,-833.37"/>
<polygon fill="black" stroke="black" points="576.5,-833.18 573,-823.18 569.5,-833.18 576.5,-833.18"/>
<text text-anchor="middle" x="610.5" y="-844.8" font-family="Times-Roman" font-size="14.00">cluster_ids</text>
</g>
<!-- v14 -->
<g id="node18" class="node">
<title>v14</title>
<ellipse fill="none" stroke="black" cx="521" cy="-674.5" rx="3.5" ry="3.5"/>
<text text-anchor="middle" x="495" y="-681.8" font-family="Times-Roman" font-size="14.00">collect</text>
</g>
<!-- v13&#45;&gt;v14 -->
<g id="edge16" class="edge">
<title>v13&#45;&gt;v14</title>
<path fill="none" stroke="black" d="M521,-728.93C521,-716.38 521,-699.59 521,-688.2"/>
<polygon fill="black" stroke="black" points="524.5,-688.16 521,-678.16 517.5,-688.16 524.5,-688.16"/>
</g>
<!-- v14&#45;&gt;v15 -->
<g id="edge17" class="edge">
<title>v14&#45;&gt;v15</title>
<path fill="none" stroke="black" d="M520.92,-670.91C520.78,-665.03 520.61,-650.25 522,-638 522.29,-635.41 522.68,-632.73 523.12,-630.06"/>
<polygon fill="black" stroke="black" points="526.6,-630.47 525,-620 519.72,-629.18 526.6,-630.47"/>
<text text-anchor="middle" x="573" y="-641.8" font-family="Times-Roman" font-size="14.00">clustered_data</text>
</g>
<!-- v16&#45;&gt;v33 -->
<g id="edge32" class="edge">
<title>v16&#45;&gt;v33</title>
<path fill="none" stroke="black" d="M664.08,-510.18C775.83,-503.25 928,-483.76 928,-429 928,-429 928,-429 928,-217.2 928,-177.24 1022.23,-159.83 1109.67,-152.28"/>
<polygon fill="black" stroke="black" points="1110.07,-155.76 1119.75,-151.45 1109.49,-148.79 1110.07,-155.76"/>
</g>
<!-- v16&#45;&gt;v43 -->
<g id="edge33" class="edge">
<title>v16&#45;&gt;v43</title>
<path fill="none" stroke="black" d="M462.4,-502.29C321.96,-483.06 57.96,-446.82 57,-446 35.48,-427.8 38,-413.68 38,-385.5 38,-385.5 38,-385.5 38,-144.6 38,-97.7 316.17,-75.59 502.54,-66.04"/>
<polygon fill="black" stroke="black" points="502.92,-69.52 512.73,-65.52 502.56,-62.53 502.92,-69.52"/>
</g>
<!-- v16&#45;&gt;v43 -->
<g id="edge66" class="edge">
<title>v16&#45;&gt;v43</title>
<path fill="none" stroke="black" d="M484.66,-499.55C454.97,-489.49 421.84,-472.88 402,-446 347.34,-371.94 355,-336.35 355,-244.3 355,-244.3 355,-244.3 355,-144.6 355,-105.38 447.94,-83.65 532.36,-72"/>
<polygon fill="black" stroke="black" points="532.9,-75.46 542.34,-70.67 531.97,-68.53 532.9,-75.46"/>
<text text-anchor="middle" x="412.5" y="-279.1" font-family="Times-Roman" font-size="14.00">filtered_modules</text>
</g>
<!-- v36 -->
<g id="node20" class="node">
<title>v36</title>
<ellipse fill="none" stroke="black" cx="513" cy="-384.5" rx="3.5" ry="3.5"/>
<text text-anchor="middle" x="482" y="-391.8" font-family="Times-Roman" font-size="14.00">ifEmpty</text>
</g>
<!-- v16&#45;&gt;v36 -->
<g id="edge22" class="edge">
<title>v16&#45;&gt;v36</title>
<path fill="none" stroke="black" d="M540.47,-496.75C538.19,-491.16 535.82,-484.88 534,-479 525.2,-450.61 518.45,-416.31 515.18,-398.18"/>
<polygon fill="black" stroke="black" points="518.6,-397.39 513.43,-388.14 511.7,-398.6 518.6,-397.39"/>
</g>
<!-- v37 -->
<g id="node21" class="node">
<title>v37</title>
<ellipse fill="none" stroke="black" cx="561" cy="-326.3" rx="3.5" ry="3.5"/>
<text text-anchor="middle" x="585" y="-333.6" font-family="Times-Roman" font-size="14.00">ifEmpty</text>
</g>
<!-- v16&#45;&gt;v37 -->
<g id="edge23" class="edge">
<title>v16&#45;&gt;v37</title>
<path fill="none" stroke="black" d="M549.2,-496.77C551.79,-459.64 557.83,-372.79 560.11,-340.07"/>
<polygon fill="black" stroke="black" points="563.62,-340.12 560.82,-329.9 556.63,-339.64 563.62,-340.12"/>
</g>
<!-- v38 -->
<g id="node22" class="node">
<title>v38</title>
<ellipse fill="none" stroke="black" cx="612" cy="-243.3" rx="3.5" ry="3.5"/>
<text text-anchor="middle" x="581" y="-250.6" font-family="Times-Roman" font-size="14.00">ifEmpty</text>
</g>
<!-- v16&#45;&gt;v38 -->
<g id="edge24" class="edge">
<title>v16&#45;&gt;v38</title>
<path fill="none" stroke="black" d="M557.37,-496.92C560.14,-491.34 562.97,-485.02 565,-479 592.65,-396.93 606.43,-292.94 610.6,-257.11"/>
<polygon fill="black" stroke="black" points="614.08,-257.49 611.71,-247.16 607.12,-256.71 614.08,-257.49"/>
</g>
<!-- v24 -->
<g id="node23" class="node">
<title>v24</title>
<ellipse fill="none" stroke="black" cx="740" cy="-428" rx="3.5" ry="3.5"/>
<text text-anchor="middle" x="723.5" y="-435.3" font-family="Times-Roman" font-size="14.00">mix</text>
</g>
<!-- v16&#45;&gt;v24 -->
<g id="edge25" class="edge">
<title>v16&#45;&gt;v24</title>
<path fill="none" stroke="black" d="M632.91,-502.21C664.46,-496.59 695.57,-488.89 708,-479 720.65,-468.93 726.63,-450.33 731.82,-438.87"/>
<polygon fill="black" stroke="black" points="734.92,-440.52 737.2,-430.18 728.97,-436.84 734.92,-440.52"/>
</g>
<!-- v16&#45;&gt;v24 -->
<g id="edge26" class="edge">
<title>v16&#45;&gt;v24</title>
<path fill="none" stroke="black" d="M641.24,-503.6C677.04,-497.88 712.52,-489.72 726,-479 738.04,-469.42 744.03,-452.12 744.58,-440.59"/>
<polygon fill="black" stroke="black" points="747.99,-439.74 742.77,-430.52 741.1,-440.99 747.99,-439.74"/>
</g>
<!-- v16&#45;&gt;v40 -->
<g id="edge27" class="edge">
<title>v16&#45;&gt;v40</title>
<path fill="none" stroke="black" d="M593.44,-498.27C602.62,-493.31 611.45,-486.99 618,-479 627.64,-467.24 624.98,-461.07 627,-446 640.65,-344.04 635.29,-316.61 622,-214.6 620.07,-199.82 621.54,-195.44 616,-181.6 614.76,-178.49 613.22,-175.38 611.53,-172.35"/>
<polygon fill="black" stroke="black" points="614.39,-170.32 606.16,-163.64 608.43,-173.99 614.39,-170.32"/>
</g>
<!-- v16&#45;&gt;v40 -->
<g id="edge60" class="edge">
<title>v16&#45;&gt;v40</title>
<path fill="none" stroke="black" d="M502.38,-498.29C491.13,-493.17 479.56,-486.76 470,-479 411.21,-431.27 366.53,-379.35 412,-318.8 429.23,-295.86 450.29,-316.96 474,-300.8 499.68,-283.31 549.81,-211.47 576.06,-172.32"/>
<polygon fill="black" stroke="black" points="579.25,-173.85 581.88,-163.58 573.42,-169.96 579.25,-173.85"/>
<text text-anchor="middle" x="469.5" y="-322.6" font-family="Times-Roman" font-size="14.00">filtered_modules</text>
</g>
<!-- v20 -->
<g id="node25" class="node">
<title>v20</title>
<ellipse fill="black" stroke="black" cx="457" cy="-428" rx="1.8" ry="1.8"/>
</g>
<!-- v16&#45;&gt;v20 -->
<g id="edge28" class="edge">
<title>v16&#45;&gt;v20</title>
<path fill="none" stroke="black" d="M510.65,-497.7C501.56,-492.59 492.36,-486.33 485,-479 473.5,-467.54 465.29,-450.39 460.84,-439.44"/>
<polygon fill="black" stroke="black" points="464.03,-437.96 457.26,-429.81 457.46,-440.4 464.03,-437.96"/>
</g>
<!-- v19 -->
<g id="node26" class="node">
<title>v19</title>
<ellipse fill="black" stroke="black" cx="480" cy="-428" rx="1.8" ry="1.8"/>
</g>
<!-- v16&#45;&gt;v19 -->
<g id="edge29" class="edge">
<title>v16&#45;&gt;v19</title>
<path fill="none" stroke="black" d="M516.28,-497.55C508.8,-492.44 501.42,-486.22 496,-479 487.38,-467.52 483.31,-451.24 481.46,-440.41"/>
<polygon fill="black" stroke="black" points="484.91,-439.83 480.11,-430.38 477.97,-440.76 484.91,-439.83"/>
</g>
<!-- v16&#45;&gt;v21 -->
<g id="edge30" class="edge">
<title>v16&#45;&gt;v21</title>
<path fill="none" stroke="black" d="M474.16,-500.78C441.78,-494.67 403.39,-487 369,-479 327.83,-469.42 281.95,-457.04 246.19,-446.99"/>
<polygon fill="black" stroke="black" points="246.95,-443.57 236.38,-444.22 245.05,-450.3 246.95,-443.57"/>
</g>
<!-- v18 -->
<g id="node28" class="node">
<title>v18</title>
<ellipse fill="black" stroke="black" cx="616" cy="-428" rx="1.8" ry="1.8"/>
</g>
<!-- v16&#45;&gt;v18 -->
<g id="edge31" class="edge">
<title>v16&#45;&gt;v18</title>
<path fill="none" stroke="black" d="M579.72,-497.55C587.2,-492.44 594.58,-486.22 600,-479 608.62,-467.52 612.69,-451.24 614.54,-440.41"/>
<polygon fill="black" stroke="black" points="618.03,-440.76 615.89,-430.38 611.09,-439.83 618.03,-440.76"/>
</g>
<!-- v17 -->
<g id="node29" class="node">
<title>v17</title>
<ellipse fill="black" stroke="black" cx="676" cy="-428" rx="1.8" ry="1.8"/>
</g>
<!-- v16&#45;&gt;v17 -->
<g id="edge34" class="edge">
<title>v16&#45;&gt;v17</title>
<path fill="none" stroke="black" d="M624.3,-501C637.48,-495.91 650.1,-488.83 660,-479 670.55,-468.52 674.15,-451.1 675.38,-439.83"/>
<polygon fill="black" stroke="black" points="678.87,-440.04 676,-429.84 671.88,-439.61 678.87,-440.04"/>
</g>
<!-- v16&#45;&gt;v27 -->
<g id="edge41" class="edge">
<title>v16&#45;&gt;v27</title>
<path fill="none" stroke="black" d="M639.43,-503.14C654.18,-497.82 668.14,-490.11 679,-479 700.57,-456.92 691.95,-440.47 687,-410 684.61,-395.29 675.82,-390.98 681,-377 692.85,-345.02 703.63,-339.14 731,-318.8 739.13,-312.76 748.46,-307.47 757.8,-302.96"/>
<polygon fill="black" stroke="black" points="759.46,-306.05 767.1,-298.71 756.55,-299.68 759.46,-306.05"/>
<text text-anchor="middle" x="722" y="-380.8" font-family="Times-Roman" font-size="14.00">viewer_files</text>
</g>
<!-- v36&#45;&gt;v40 -->
<g id="edge55" class="edge">
<title>v36&#45;&gt;v40</title>
<path fill="none" stroke="black" d="M513.95,-380.65C519.98,-362.65 553.39,-262.85 581,-181.6 581.93,-178.86 582.9,-176.01 583.88,-173.16"/>
<polygon fill="black" stroke="black" points="587.19,-174.28 587.12,-163.68 580.57,-172.01 587.19,-174.28"/>
</g>
<!-- v37&#45;&gt;v40 -->
<g id="edge56" class="edge">
<title>v37&#45;&gt;v40</title>
<path fill="none" stroke="black" d="M561.45,-322.77C564.31,-306.79 580.05,-218.92 588.16,-173.62"/>
<polygon fill="black" stroke="black" points="591.64,-174.07 589.95,-163.61 584.75,-172.84 591.64,-174.07"/>
</g>
<!-- v38&#45;&gt;v40 -->
<g id="edge57" class="edge">
<title>v38&#45;&gt;v40</title>
<path fill="none" stroke="black" d="M611.45,-239.54C609.55,-229.98 603.12,-197.59 598.38,-173.72"/>
<polygon fill="black" stroke="black" points="601.79,-172.92 596.41,-163.79 594.93,-174.28 601.79,-172.92"/>
</g>
<!-- v25 -->
<g id="node32" class="node">
<title>v25</title>
<ellipse fill="none" stroke="black" cx="718" cy="-355.4" rx="3.5" ry="3.5"/>
<text text-anchor="middle" x="692" y="-362.7" font-family="Times-Roman" font-size="14.00">collect</text>
</g>
<!-- v24&#45;&gt;v25 -->
<g id="edge39" class="edge">
<title>v24&#45;&gt;v25</title>
<path fill="none" stroke="black" d="M742.64,-425.02C751.46,-418.14 778.79,-394.75 767,-377 762.82,-370.7 743.92,-364.03 730.85,-360.04"/>
<polygon fill="black" stroke="black" points="731.66,-356.63 721.08,-357.22 729.72,-363.35 731.66,-356.63"/>
</g>
<!-- v40&#45;&gt;v43 -->
<g id="edge63" class="edge">
<title>v40&#45;&gt;v43</title>
<path fill="none" stroke="black" d="M607.98,-127.4C618.71,-115.07 633.33,-98.28 645.33,-84.49"/>
<polygon fill="black" stroke="black" points="648.12,-86.62 652.05,-76.78 642.84,-82.02 648.12,-86.62"/>
</g>
<!-- v23 -->
<g id="node30" class="node">
<title>v23</title>
<ellipse fill="black" stroke="black" cx="197" cy="-355.4" rx="1.8" ry="1.8"/>
</g>
<!-- v21&#45;&gt;v23 -->
<g id="edge37" class="edge">
<title>v21&#45;&gt;v23</title>
<path fill="none" stroke="black" d="M187.15,-409.91C189.6,-396.6 192.93,-378.52 195.02,-367.16"/>
<polygon fill="black" stroke="black" points="198.48,-367.69 196.85,-357.22 191.6,-366.42 198.48,-367.69"/>
</g>
<!-- v22 -->
<g id="node31" class="node">
<title>v22</title>
<ellipse fill="black" stroke="black" cx="172" cy="-355.4" rx="1.8" ry="1.8"/>
</g>
<!-- v21&#45;&gt;v22 -->
<g id="edge38" class="edge">
<title>v21&#45;&gt;v22</title>
<path fill="none" stroke="black" d="M181.1,-409.91C178.83,-396.6 175.76,-378.52 173.83,-367.16"/>
<polygon fill="black" stroke="black" points="177.27,-366.5 172.14,-357.22 170.37,-367.67 177.27,-366.5"/>
</g>
<!-- v25&#45;&gt;v27 -->
<g id="edge40" class="edge">
<title>v25&#45;&gt;v27</title>
<path fill="none" stroke="black" d="M719.72,-351.9C724.07,-345.72 736.08,-329.41 749,-318.8 755.1,-313.79 762.02,-309.07 768.94,-304.83"/>
<polygon fill="black" stroke="black" points="770.81,-307.79 777.66,-299.71 767.26,-301.75 770.81,-307.79"/>
</g>
<!-- v30 -->
<g id="node35" class="node">
<title>v30</title>
<ellipse fill="black" stroke="black" cx="785" cy="-218.2" rx="1.8" ry="1.8"/>
</g>
<!-- v27&#45;&gt;v30 -->
<g id="edge45" class="edge">
<title>v27&#45;&gt;v30</title>
<path fill="none" stroke="black" d="M803.17,-264.69C798.72,-253.54 793.05,-239.35 789.23,-229.8"/>
<polygon fill="black" stroke="black" points="792.44,-228.38 785.48,-220.39 785.94,-230.98 792.44,-228.38"/>
</g>
<!-- v31 -->
<g id="node36" class="node">
<title>v31</title>
<ellipse fill="none" stroke="black" cx="888" cy="-218.2" rx="3.5" ry="3.5"/>
<text text-anchor="middle" x="857" y="-225.5" font-family="Times-Roman" font-size="14.00">ifEmpty</text>
</g>
<!-- v27&#45;&gt;v31 -->
<g id="edge46" class="edge">
<title>v27&#45;&gt;v31</title>
<path fill="none" stroke="black" d="M830.9,-265.02C845.98,-252.92 865.7,-237.1 877.57,-227.57"/>
<polygon fill="black" stroke="black" points="880.07,-230.05 885.68,-221.06 875.69,-224.59 880.07,-230.05"/>
</g>
<!-- v29 -->
<g id="node37" class="node">
<title>v29</title>
<ellipse fill="black" stroke="black" cx="809" cy="-218.2" rx="1.8" ry="1.8"/>
</g>
<!-- v27&#45;&gt;v29 -->
<g id="edge47" class="edge">
<title>v27&#45;&gt;v29</title>
<path fill="none" stroke="black" d="M809.73,-264.69C809.55,-253.8 809.33,-239.99 809.18,-230.46"/>
<polygon fill="black" stroke="black" points="812.68,-230.34 809.02,-220.39 805.68,-230.45 812.68,-230.34"/>
</g>
<!-- v28 -->
<g id="node38" class="node">
<title>v28</title>
<ellipse fill="black" stroke="black" cx="760" cy="-218.2" rx="1.8" ry="1.8"/>
</g>
<!-- v27&#45;&gt;v28 -->
<g id="edge48" class="edge">
<title>v27&#45;&gt;v28</title>
<path fill="none" stroke="black" d="M796.34,-264.69C786.93,-252.91 774.79,-237.72 767.21,-228.22"/>
<polygon fill="black" stroke="black" points="769.93,-226.02 760.95,-220.39 764.46,-230.39 769.93,-226.02"/>
</g>
<!-- v39 -->
<g id="node42" class="node">
<title>v39</title>
<ellipse fill="none" stroke="black" cx="729" cy="-218.2" rx="3.5" ry="3.5"/>
<text text-anchor="middle" x="698" y="-225.5" font-family="Times-Roman" font-size="14.00">ifEmpty</text>
</g>
<!-- v27&#45;&gt;v39 -->
<g id="edge58" class="edge">
<title>v27&#45;&gt;v39</title>
<path fill="none" stroke="black" d="M788.29,-265.02C772.48,-252.8 751.75,-236.78 739.46,-227.28"/>
<polygon fill="black" stroke="black" points="741.46,-224.41 731.41,-221.06 737.18,-229.95 741.46,-224.41"/>
</g>
<!-- v41 -->
<g id="node43" class="node">
<title>v41</title>
<ellipse fill="none" stroke="black" cx="791" cy="-189.1" rx="3.5" ry="3.5"/>
<text text-anchor="middle" x="760" y="-196.4" font-family="Times-Roman" font-size="14.00">ifEmpty</text>
</g>
<!-- v27&#45;&gt;v41 -->
<g id="edge64" class="edge">
<title>v27&#45;&gt;v41</title>
<path fill="none" stroke="black" d="M818.33,-264.75C820.64,-259.16 822.84,-252.84 824,-246.8 825.93,-236.78 821.21,-216.75 820,-214.6 815.85,-207.24 808.59,-201.11 802.37,-196.83"/>
<polygon fill="black" stroke="black" points="803.98,-193.7 793.63,-191.46 800.32,-199.67 803.98,-193.7"/>
</g>
<!-- v26 -->
<g id="node34" class="node">
<title>v26</title>
<ellipse fill="black" stroke="black" cx="782" cy="-355.4" rx="3.6" ry="3.6"/>
</g>
<!-- v26&#45;&gt;v27 -->
<g id="edge44" class="edge">
<title>v26&#45;&gt;v27</title>
<path fill="none" stroke="black" d="M779.09,-353.24C773.23,-350.73 760.13,-344.16 755,-333.8 752.04,-327.82 751.79,-324.64 755,-318.8 757.72,-313.84 761.48,-309.48 765.76,-305.68"/>
<polygon fill="black" stroke="black" points="768.12,-308.28 773.93,-299.43 763.87,-302.73 768.12,-308.28"/>
<text text-anchor="middle" x="809.5" y="-322.6" font-family="Times-Roman" font-size="14.00">regulator_types</text>
</g>
<!-- v31&#45;&gt;v33 -->
<g id="edge49" class="edge">
<title>v31&#45;&gt;v33</title>
<path fill="none" stroke="black" d="M888.94,-214.75C891.66,-208.07 900.19,-189.52 914,-181.6 946.51,-162.94 1029.46,-154.17 1105.51,-150.07"/>
<polygon fill="black" stroke="black" points="1105.91,-153.55 1115.71,-149.54 1105.55,-146.56 1105.91,-153.55"/>
</g>
<!-- v32 -->
<g id="node39" class="node">
<title>v32</title>
<ellipse fill="black" stroke="black" cx="1173" cy="-218.2" rx="3.6" ry="3.6"/>
</g>
<!-- v32&#45;&gt;v33 -->
<g id="edge52" class="edge">
<title>v32&#45;&gt;v33</title>
<path fill="none" stroke="black" d="M1172.23,-214.68C1170.48,-208.44 1166.9,-192.03 1174,-181.6 1177.72,-176.14 1182.47,-171.53 1187.81,-167.64"/>
<polygon fill="black" stroke="black" points="1190.03,-170.38 1196.63,-162.09 1186.3,-164.45 1190.03,-170.38"/>
<text text-anchor="middle" x="1228.5" y="-185.4" font-family="Times-Roman" font-size="14.00">regulator_types</text>
</g>
<!-- v39&#45;&gt;v40 -->
<g id="edge59" class="edge">
<title>v39&#45;&gt;v40</title>
<path fill="none" stroke="black" d="M728.02,-214.51C725.46,-207.89 717.96,-190.67 706,-181.6 696.19,-174.16 684.77,-168.28 673.04,-163.65"/>
<polygon fill="black" stroke="black" points="674.18,-160.34 663.59,-160.19 671.78,-166.91 674.18,-160.34"/>
</g>
<!-- v41&#45;&gt;v43 -->
<g id="edge65" class="edge">
<title>v41&#45;&gt;v43</title>
<path fill="none" stroke="black" d="M788.72,-186.43C783.57,-182.61 770.75,-172.87 761,-163.6 734.26,-138.17 706.22,-106.38 687.8,-84.68"/>
<polygon fill="black" stroke="black" points="690.36,-82.29 681.23,-76.9 685,-86.8 690.36,-82.29"/>
</g>
<!-- v42 -->
<g id="node44" class="node">
<title>v42</title>
<ellipse fill="black" stroke="black" cx="774" cy="-145.6" rx="3.6" ry="3.6"/>
</g>
<!-- v42&#45;&gt;v43 -->
<g id="edge69" class="edge">
<title>v42&#45;&gt;v43</title>
<path fill="none" stroke="black" d="M773.55,-141.92C772.03,-133.72 766.39,-108.65 752,-94.6 746.3,-89.03 739.59,-84.31 732.48,-80.31"/>
<polygon fill="black" stroke="black" points="733.81,-77.05 723.31,-75.62 730.62,-83.28 733.81,-77.05"/>
<text text-anchor="middle" x="817.5" y="-98.4" font-family="Times-Roman" font-size="14.00">regulator_types</text>
</g>
</g>
</svg>
