<?xml version="1.0" encoding="UTF-8" standalone="no"?>
<!DOCTYPE svg PUBLIC "-//W3C//DTD SVG 1.1//EN"
 "http://www.w3.org/Graphics/SVG/1.1/DTD/svg11.dtd">
<!-- Generated by graphviz version 2.44.0 (0)
 -->
<!-- Title: pipeline_dag_20260205_173301 Pages: 1 -->
<svg width="1703pt" height="1006pt"
 viewBox="0.00 0.00 1702.53 1005.60" xmlns="http://www.w3.org/2000/svg" xmlns:xlink="http://www.w3.org/1999/xlink">
<g id="graph0" class="graph" transform="scale(1 1) rotate(0) translate(4 1001.6)">
<title>pipeline_dag_20260205_173301</title>
<polygon fill="white" stroke="transparent" points="-4,4 -4,-1001.6 1698.53,-1001.6 1698.53,4 -4,4"/>
<!-- v0 -->
<g id="node1" class="node">
<title>v0</title>
<ellipse fill="black" stroke="black" cx="133.64" cy="-979" rx="3.6" ry="3.6"/>
<text text-anchor="middle" x="68.04" y="-986.4" font-family="Times-Roman" font-size="14.00">Channel.fromPath</text>
</g>
<!-- v7 -->
<g id="node2" class="node">
<title>v7</title>
<ellipse fill="none" stroke="black" cx="242.64" cy="-892" rx="108.58" ry="18"/>
<text text-anchor="middle" x="242.64" y="-888.3" font-family="Times-Roman" font-size="14.00">PREPROCESSING_TFA</text>
</g>
<!-- v0&#45;&gt;v7 -->
<g id="edge1" class="edge">
<title>v0&#45;&gt;v7</title>
<path fill="none" stroke="black" d="M136.33,-975.9C146.73,-967.79 185.04,-937.91 212.69,-916.35"/>
<polygon fill="black" stroke="black" points="215.16,-918.87 220.89,-909.96 210.85,-913.35 215.16,-918.87"/>
<text text-anchor="middle" x="225.64" y="-931.8" font-family="Times-Roman" font-size="14.00">input_ch</text>
</g>
<!-- v34 -->
<g id="node10" class="node">
<title>v34</title>
<ellipse fill="none" stroke="black" cx="143.64" cy="-145.6" rx="143.77" ry="18"/>
<text text-anchor="middle" x="143.64" y="-141.9" font-family="Times-Roman" font-size="14.00">MODULE_VIEWER_HEATMAPS</text>
</g>
<!-- v0&#45;&gt;v34 -->
<g id="edge51" class="edge">
<title>v0&#45;&gt;v34</title>
<path fill="none" stroke="black" d="M130.54,-976.96C114.41,-971.33 40.64,-942.87 40.64,-893 40.64,-893 40.64,-893 40.64,-217.2 40.64,-193.87 58.84,-177.68 79.94,-166.74"/>
<polygon fill="black" stroke="black" points="81.6,-169.83 89.12,-162.38 78.59,-163.51 81.6,-169.83"/>
<text text-anchor="middle" x="70.64" y="-554.8" font-family="Times-Roman" font-size="14.00">input_ch</text>
</g>
<!-- v13 -->
<g id="node9" class="node">
<title>v13</title>
<ellipse fill="none" stroke="black" cx="597.64" cy="-819.5" rx="3.5" ry="3.5"/>
<text text-anchor="middle" x="564.14" y="-826.8" font-family="Times-Roman" font-size="14.00">combine</text>
</g>
<!-- v7&#45;&gt;v13 -->
<g id="edge6" class="edge">
<title>v7&#45;&gt;v13</title>
<path fill="none" stroke="black" d="M322.83,-879.86C363.91,-873.7 414.62,-865.4 459.64,-856 506.24,-846.27 560.77,-831.11 584.96,-824.18"/>
<polygon fill="black" stroke="black" points="586.02,-827.52 594.65,-821.38 584.07,-820.79 586.02,-827.52"/>
</g>
<!-- v7&#45;&gt;v34 -->
<g id="edge7" class="edge">
<title>v7&#45;&gt;v34</title>
<path fill="none" stroke="black" d="M173.19,-878.07C143.54,-868.14 115.64,-850.76 115.64,-820.5 115.64,-820.5 115.64,-820.5 115.64,-217.2 115.64,-201.75 121.5,-185.66 127.86,-172.75"/>
<polygon fill="black" stroke="black" points="131.14,-174.03 132.73,-163.56 124.96,-170.75 131.14,-174.03"/>
</g>
<!-- v11 -->
<g id="node11" class="node">
<title>v11</title>
<ellipse fill="black" stroke="black" cx="212.64" cy="-819.5" rx="1.8" ry="1.8"/>
</g>
<!-- v7&#45;&gt;v11 -->
<g id="edge8" class="edge">
<title>v7&#45;&gt;v11</title>
<path fill="none" stroke="black" d="M235.38,-873.93C229.65,-860.49 221.87,-842.19 217.05,-830.87"/>
<polygon fill="black" stroke="black" points="220.12,-829.15 212.99,-821.32 213.68,-831.89 220.12,-829.15"/>
</g>
<!-- v44 -->
<g id="node12" class="node">
<title>v44</title>
<ellipse fill="none" stroke="black" cx="833.64" cy="-58.6" rx="167.07" ry="18"/>
<text text-anchor="middle" x="833.64" y="-54.9" font-family="Times-Roman" font-size="14.00">MODULE_OVERVIEW_INTERACTIVE</text>
</g>
<!-- v7&#45;&gt;v44 -->
<g id="edge9" class="edge">
<title>v7&#45;&gt;v44</title>
<path fill="none" stroke="black" d="M242.64,-873.9C242.64,-859.63 242.64,-838.74 242.64,-820.5 242.64,-820.5 242.64,-820.5 242.64,-557.5 242.64,-488.05 299.12,-129.63 339.64,-94.6 363.81,-73.71 526.42,-65.28 658.58,-61.88"/>
<polygon fill="black" stroke="black" points="658.94,-65.37 668.85,-61.62 658.76,-58.37 658.94,-65.37"/>
</g>
<!-- v7&#45;&gt;v44 -->
<g id="edge68" class="edge">
<title>v7&#45;&gt;v44</title>
<path fill="none" stroke="black" d="M257.87,-874.1C268.45,-860.6 280.64,-840.66 280.64,-820.5 280.64,-820.5 280.64,-820.5 280.64,-514 280.64,-491.74 271.44,-485.38 277.64,-464 310.53,-350.48 329.68,-315.26 420.64,-239.8 523.21,-154.71 672.17,-103.07 760.34,-78.04"/>
<polygon fill="black" stroke="black" points="761.31,-81.4 770,-75.33 759.43,-74.66 761.31,-81.4"/>
<text text-anchor="middle" x="329.14" y="-467.8" font-family="Times-Roman" font-size="14.00">expression_file</text>
</g>
<!-- v10 -->
<g id="node13" class="node">
<title>v10</title>
<ellipse fill="black" stroke="black" cx="145.64" cy="-819.5" rx="1.8" ry="1.8"/>
</g>
<!-- v7&#45;&gt;v10 -->
<g id="edge10" class="edge">
<title>v7&#45;&gt;v10</title>
<path fill="none" stroke="black" d="M213,-874.63C203.67,-869.08 193.5,-862.61 184.64,-856 173.33,-847.57 161.52,-836.44 153.89,-828.9"/>
<polygon fill="black" stroke="black" points="156.06,-826.11 146.54,-821.45 151.07,-831.03 156.06,-826.11"/>
</g>
<!-- v16 -->
<g id="node14" class="node">
<title>v16</title>
<ellipse fill="none" stroke="black" cx="695.64" cy="-602" rx="96.68" ry="18"/>
<text text-anchor="middle" x="695.64" y="-598.3" font-family="Times-Roman" font-size="14.00">POST_CLUSTERING</text>
</g>
<!-- v7&#45;&gt;v16 -->
<g id="edge11" class="edge">
<title>v7&#45;&gt;v16</title>
<path fill="none" stroke="black" d="M297.97,-876.4C312.52,-871.22 327.73,-864.49 340.64,-856 370.06,-836.64 371.51,-824.56 394.64,-798 433.02,-753.92 430.95,-731.16 477.64,-696 525.05,-660.3 588.24,-635.3 634.38,-620.28"/>
<polygon fill="black" stroke="black" points="635.49,-623.6 643.95,-617.23 633.36,-616.93 635.49,-623.6"/>
</g>
<!-- v9 -->
<g id="node15" class="node">
<title>v9</title>
<ellipse fill="black" stroke="black" cx="167.64" cy="-819.5" rx="1.8" ry="1.8"/>
</g>
<!-- v7&#45;&gt;v9 -->
<g id="edge12" class="edge">
<title>v7&#45;&gt;v9</title>
<path fill="none" stroke="black" d="M222.85,-874.19C216.32,-868.52 209.08,-862.07 202.64,-856 193.05,-846.96 182.48,-836.12 175.5,-828.81"/>
<polygon fill="black" stroke="black" points="177.9,-826.26 168.48,-821.4 172.81,-831.07 177.9,-826.26"/>
</g>
<!-- v8 -->
<g id="node16" class="node">
<title>v8</title>
<ellipse fill="black" stroke="black" cx="190.64" cy="-819.5" rx="1.8" ry="1.8"/>
</g>
<!-- v7&#45;&gt;v8 -->
<g id="edge13" class="edge">
<title>v7&#45;&gt;v8</title>
<path fill="none" stroke="black" d="M230.05,-873.93C219.7,-859.9 205.44,-840.57 197.22,-829.42"/>
<polygon fill="black" stroke="black" points="200,-827.29 191.24,-821.32 194.36,-831.45 200,-827.29"/>
</g>
<!-- v41 -->
<g id="node25" class="node">
<title>v41</title>
<ellipse fill="none" stroke="black" cx="947.64" cy="-145.6" rx="119.68" ry="18"/>
<text text-anchor="middle" x="947.64" y="-141.9" font-family="Times-Roman" font-size="14.00">ENRICHMENT_ANALYSIS</text>
</g>
<!-- v7&#45;&gt;v41 -->
<g id="edge62" class="edge">
<title>v7&#45;&gt;v41</title>
<path fill="none" stroke="black" d="M282.67,-875.09C304.3,-863.59 326.64,-845.63 326.64,-820.5 326.64,-820.5 326.64,-820.5 326.64,-557.5 326.64,-529.9 322.75,-518.02 340.64,-497 354.33,-480.91 370.58,-494.78 384.64,-479 399.99,-461.77 398.64,-452.08 398.64,-429 398.64,-429 398.64,-429 398.64,-325.3 398.64,-232.31 687.05,-180.24 845.79,-158.62"/>
<polygon fill="black" stroke="black" points="846.61,-162.04 856.06,-157.24 845.68,-155.11 846.61,-162.04"/>
<text text-anchor="middle" x="406.14" y="-511.3" font-family="Times-Roman" font-size="14.00">preprocessed_data</text>
</g>
<!-- v1 -->
<g id="node3" class="node">
<title>v1</title>
<ellipse fill="black" stroke="black" cx="328.64" cy="-979" rx="3.6" ry="3.6"/>
<text text-anchor="middle" x="263.04" y="-986.4" font-family="Times-Roman" font-size="14.00">Channel.fromPath</text>
</g>
<!-- v1&#45;&gt;v7 -->
<g id="edge2" class="edge">
<title>v1&#45;&gt;v7</title>
<path fill="none" stroke="black" d="M326.51,-975.9C318.41,-967.89 288.86,-938.68 267.11,-917.19"/>
<polygon fill="black" stroke="black" points="269.37,-914.5 259.8,-909.96 264.45,-919.48 269.37,-914.5"/>
<text text-anchor="middle" x="319.14" y="-931.8" font-family="Times-Roman" font-size="14.00">data_ch</text>
</g>
<!-- v28 -->
<g id="node34" class="node">
<title>v28</title>
<ellipse fill="none" stroke="black" cx="791.64" cy="-282.8" rx="90.18" ry="18"/>
<text text-anchor="middle" x="791.64" y="-279.1" font-family="Times-Roman" font-size="14.00">PKN_EVALUATION</text>
</g>
<!-- v1&#45;&gt;v28 -->
<g id="edge43" class="edge">
<title>v1&#45;&gt;v28</title>
<path fill="none" stroke="black" d="M330.87,-976.16C340.82,-967.77 380.64,-931.75 380.64,-893 380.64,-893 380.64,-893 380.64,-673.5 380.64,-601.42 432.82,-599.07 461.64,-533 484.51,-480.56 463.71,-454.53 499.64,-410 552.58,-344.38 646.22,-312.15 713.19,-296.81"/>
<polygon fill="black" stroke="black" points="714.27,-300.16 723.28,-294.58 712.76,-293.32 714.27,-300.16"/>
<text text-anchor="middle" x="414.14" y="-641.8" font-family="Times-Roman" font-size="14.00">data_ch</text>
</g>
<!-- v2 -->
<g id="node4" class="node">
<title>v2</title>
<ellipse fill="black" stroke="black" cx="1483.64" cy="-979" rx="3.6" ry="3.6"/>
<text text-anchor="middle" x="1418.04" y="-986.4" font-family="Times-Roman" font-size="14.00">Channel.fromPath</text>
</g>
<!-- v3 -->
<g id="node5" class="node">
<title>v3</title>
<ellipse fill="black" stroke="black" cx="1483.64" cy="-892" rx="1.8" ry="1.8"/>
</g>
<!-- v2&#45;&gt;v3 -->
<g id="edge3" class="edge">
<title>v2&#45;&gt;v3</title>
<path fill="none" stroke="black" d="M1483.64,-975.17C1483.64,-964.19 1483.64,-924.02 1483.64,-904.2"/>
<polygon fill="black" stroke="black" points="1487.14,-903.96 1483.64,-893.96 1480.14,-903.96 1487.14,-903.96"/>
<text text-anchor="middle" x="1533.64" y="-931.8" font-family="Times-Roman" font-size="14.00">name_map_ch</text>
</g>
<!-- v4 -->
<g id="node6" class="node">
<title>v4</title>
<ellipse fill="none" stroke="black" cx="1599.64" cy="-979" rx="94.78" ry="18"/>
<text text-anchor="middle" x="1599.64" y="-975.3" font-family="Times-Roman" font-size="14.00">LOG_PARAMETERS</text>
</g>
<!-- v5 -->
<g id="node7" class="node">
<title>v5</title>
<ellipse fill="black" stroke="black" cx="1599.64" cy="-892" rx="1.8" ry="1.8"/>
</g>
<!-- v4&#45;&gt;v5 -->
<g id="edge4" class="edge">
<title>v4&#45;&gt;v5</title>
<path fill="none" stroke="black" d="M1599.64,-960.8C1599.64,-943.92 1599.64,-918.66 1599.64,-904.22"/>
<polygon fill="black" stroke="black" points="1603.14,-904.08 1599.64,-894.08 1596.14,-904.08 1603.14,-904.08"/>
</g>
<!-- v6 -->
<g id="node8" class="node">
<title>v6</title>
<ellipse fill="black" stroke="black" cx="777.64" cy="-979" rx="3.6" ry="3.6"/>
</g>
<!-- v6&#45;&gt;v7 -->
<g id="edge5" class="edge">
<title>v6&#45;&gt;v7</title>
<path fill="none" stroke="black" d="M774.05,-977.9C746.33,-977.06 563.23,-970.64 417.64,-943 376.95,-935.28 332.06,-922.36 297.93,-911.58"/>
<polygon fill="black" stroke="black" points="298.74,-908.17 288.15,-908.46 296.61,-914.84 298.74,-908.17"/>
<text text-anchor="middle" x="451.14" y="-931.8" font-family="Times-Roman" font-size="14.00">run_id_ch</text>
</g>
<!-- v6&#45;&gt;v34 -->
<g id="edge52" class="edge">
<title>v6&#45;&gt;v34</title>
<path fill="none" stroke="black" d="M773.95,-978.01C754.47,-977.94 661.81,-975.82 596.64,-943 577.25,-933.24 571.43,-928.83 560.64,-910 432.99,-687.33 548.42,-569.6 412.64,-351.8 358.98,-265.74 346.23,-236.01 260.64,-181.6 249.73,-174.67 237.38,-169.05 224.9,-164.52"/>
<polygon fill="black" stroke="black" points="225.94,-161.18 215.35,-161.26 223.68,-167.8 225.94,-161.18"/>
<text text-anchor="middle" x="519.14" y="-554.8" font-family="Times-Roman" font-size="14.00">run_id_ch</text>
</g>
<!-- v6&#45;&gt;v44 -->
<g id="edge69" class="edge">
<title>v6&#45;&gt;v44</title>
<path fill="none" stroke="black" d="M781.26,-977.94C834.23,-977.05 1450.64,-965.13 1450.64,-893 1450.64,-893 1450.64,-893 1450.64,-144.6 1450.64,-98.71 1179.35,-76.31 996.55,-66.42"/>
<polygon fill="black" stroke="black" points="996.72,-62.92 986.55,-65.88 996.35,-69.91 996.72,-62.92"/>
<text text-anchor="middle" x="1484.14" y="-511.3" font-family="Times-Roman" font-size="14.00">run_id_ch</text>
</g>
<!-- v6&#45;&gt;v16 -->
<g id="edge19" class="edge">
<title>v6&#45;&gt;v16</title>
<path fill="none" stroke="black" d="M777.4,-975.1C774.69,-942.25 749.92,-641.86 747.64,-638 744.84,-633.26 741.11,-629.02 736.93,-625.27"/>
<polygon fill="black" stroke="black" points="739.06,-622.49 729.03,-619.06 734.73,-628 739.06,-622.49"/>
<text text-anchor="middle" x="796.14" y="-786.8" font-family="Times-Roman" font-size="14.00">run_id_ch</text>
</g>
<!-- v14 -->
<g id="node18" class="node">
<title>v14</title>
<ellipse fill="none" stroke="black" cx="660.64" cy="-747" rx="68.49" ry="18"/>
<text text-anchor="middle" x="660.64" y="-743.3" font-family="Times-Roman" font-size="14.00">CLUSTERING</text>
</g>
<!-- v6&#45;&gt;v14 -->
<g id="edge16" class="edge">
<title>v6&#45;&gt;v14</title>
<path fill="none" stroke="black" d="M775.85,-975.81C766.45,-964.17 722.06,-908.1 696.64,-856 683.69,-829.47 673.6,-797.14 667.44,-774.8"/>
<polygon fill="black" stroke="black" points="670.78,-773.76 664.81,-765.01 664.02,-775.57 670.78,-773.76"/>
<text text-anchor="middle" x="730.14" y="-844.8" font-family="Times-Roman" font-size="14.00">run_id_ch</text>
</g>
<!-- v17 -->
<g id="node20" class="node">
<title>v17</title>
<ellipse fill="none" stroke="black" cx="970.64" cy="-515" rx="120.48" ry="18"/>
<text text-anchor="middle" x="970.64" y="-511.3" font-family="Times-Roman" font-size="14.00">NETWORK_GENERATION</text>
</g>
<!-- v6&#45;&gt;v17 -->
<g id="edge22" class="edge">
<title>v6&#45;&gt;v17</title>
<path fill="none" stroke="black" d="M781.33,-977.86C805.44,-976.71 939.64,-967 939.64,-893 939.64,-893 939.64,-893 939.64,-601 939.64,-580.38 947.78,-558.57 955.73,-542.2"/>
<polygon fill="black" stroke="black" points="958.87,-543.74 960.31,-533.24 952.64,-540.54 958.87,-543.74"/>
<text text-anchor="middle" x="973.14" y="-743.3" font-family="Times-Roman" font-size="14.00">run_id_ch</text>
</g>
<!-- v6&#45;&gt;v41 -->
<g id="edge63" class="edge">
<title>v6&#45;&gt;v41</title>
<path fill="none" stroke="black" d="M781.11,-977.88C829.54,-976.23 1368.64,-956.36 1368.64,-893 1368.64,-893 1368.64,-893 1368.64,-325.3 1368.64,-196.71 1200.16,-159.3 1076.36,-149.17"/>
<polygon fill="black" stroke="black" points="1076.27,-145.65 1066.03,-148.38 1075.73,-152.63 1076.27,-145.65"/>
<text text-anchor="middle" x="1402.14" y="-554.8" font-family="Times-Roman" font-size="14.00">run_id_ch</text>
</g>
<!-- v22 -->
<g id="node28" class="node">
<title>v22</title>
<ellipse fill="none" stroke="black" cx="661.64" cy="-428" rx="117.78" ry="18"/>
<text text-anchor="middle" x="661.64" y="-424.3" font-family="Times-Roman" font-size="14.00">SUBNETWORK_GRAPHS</text>
</g>
<!-- v6&#45;&gt;v22 -->
<g id="edge37" class="edge">
<title>v6&#45;&gt;v22</title>
<path fill="none" stroke="black" d="M774.29,-977.44C747.19,-972.85 564.64,-940.18 564.64,-893 564.64,-893 564.64,-893 564.64,-644.5 564.64,-569.93 613.53,-492.62 641.89,-454.05"/>
<polygon fill="black" stroke="black" points="644.74,-456.08 647.95,-445.98 639.14,-451.88 644.74,-456.08"/>
<text text-anchor="middle" x="598.14" y="-699.8" font-family="Times-Roman" font-size="14.00">run_id_ch</text>
</g>
<!-- v6&#45;&gt;v28 -->
<g id="edge44" class="edge">
<title>v6&#45;&gt;v28</title>
<path fill="none" stroke="black" d="M780.47,-976.31C793.11,-968.54 843.64,-934.85 843.64,-893 843.64,-893 843.64,-893 843.64,-789.5 843.64,-606.12 809.38,-387.28 796.48,-311.35"/>
<polygon fill="black" stroke="black" points="799.88,-310.46 794.73,-301.2 792.98,-311.65 799.88,-310.46"/>
<text text-anchor="middle" x="872.14" y="-641.8" font-family="Times-Roman" font-size="14.00">run_id_ch</text>
</g>
<!-- v13&#45;&gt;v14 -->
<g id="edge15" class="edge">
<title>v13&#45;&gt;v14</title>
<path fill="none" stroke="black" d="M599.45,-816.47C605.26,-809.97 623.89,-789.13 639.07,-772.13"/>
<polygon fill="black" stroke="black" points="641.7,-774.45 645.75,-764.66 636.48,-769.78 641.7,-774.45"/>
</g>
<!-- v36 -->
<g id="node41" class="node">
<title>v36</title>
<ellipse fill="black" stroke="black" cx="131.64" cy="-58.6" rx="1.8" ry="1.8"/>
</g>
<!-- v34&#45;&gt;v36 -->
<g id="edge54" class="edge">
<title>v34&#45;&gt;v36</title>
<path fill="none" stroke="black" d="M141.21,-127.4C138.83,-110.52 135.26,-85.26 133.22,-70.82"/>
<polygon fill="black" stroke="black" points="136.65,-70.09 131.79,-60.68 129.72,-71.07 136.65,-70.09"/>
</g>
<!-- v35 -->
<g id="node42" class="node">
<title>v35</title>
<ellipse fill="black" stroke="black" cx="156.64" cy="-58.6" rx="1.8" ry="1.8"/>
</g>
<!-- v34&#45;&gt;v35 -->
<g id="edge55" class="edge">
<title>v34&#45;&gt;v35</title>
<path fill="none" stroke="black" d="M146.27,-127.4C148.85,-110.52 152.71,-85.26 154.92,-70.82"/>
<polygon fill="black" stroke="black" points="158.42,-71.1 156.47,-60.68 151.5,-70.04 158.42,-71.1"/>
</g>
<!-- v46 -->
<g id="node46" class="node">
<title>v46</title>
<ellipse fill="black" stroke="black" cx="820.64" cy="-1.8" rx="1.8" ry="1.8"/>
</g>
<!-- v44&#45;&gt;v46 -->
<g id="edge71" class="edge">
<title>v44&#45;&gt;v46</title>
<path fill="none" stroke="black" d="M829.6,-40.56C827.51,-31.76 825.02,-21.3 823.2,-13.61"/>
<polygon fill="black" stroke="black" points="826.58,-12.68 820.87,-3.76 819.77,-14.3 826.58,-12.68"/>
</g>
<!-- v45 -->
<g id="node47" class="node">
<title>v45</title>
<ellipse fill="black" stroke="black" cx="845.64" cy="-1.8" rx="1.8" ry="1.8"/>
</g>
<!-- v44&#45;&gt;v45 -->
<g id="edge72" class="edge">
<title>v44&#45;&gt;v45</title>
<path fill="none" stroke="black" d="M837.37,-40.56C839.29,-31.76 841.59,-21.3 843.27,-13.61"/>
<polygon fill="black" stroke="black" points="846.71,-14.28 845.43,-3.76 839.87,-12.78 846.71,-14.28"/>
</g>
<!-- v16&#45;&gt;v17 -->
<g id="edge20" class="edge">
<title>v16&#45;&gt;v17</title>
<path fill="none" stroke="black" d="M739.18,-585.9C784.35,-571.38 855.29,-549.42 906.78,-534"/>
<polygon fill="black" stroke="black" points="907.9,-537.32 916.48,-531.1 905.89,-530.61 907.9,-537.32"/>
</g>
<!-- v16&#45;&gt;v17 -->
<g id="edge21" class="edge">
<title>v16&#45;&gt;v17</title>
<path fill="none" stroke="black" d="M747.18,-586.68C795.17,-572.42 866.34,-550.48 915.46,-534.82"/>
<polygon fill="black" stroke="black" points="916.82,-538.06 925.28,-531.68 914.69,-531.39 916.82,-538.06"/>
</g>
<!-- v16&#45;&gt;v22 -->
<g id="edge36" class="edge">
<title>v16&#45;&gt;v22</title>
<path fill="none" stroke="black" d="M689.81,-583.86C685.36,-570.22 679.38,-550.57 675.64,-533 670.14,-507.21 666.38,-477.33 664.16,-456.23"/>
<polygon fill="black" stroke="black" points="667.62,-455.67 663.13,-446.07 660.65,-456.37 667.62,-455.67"/>
<text text-anchor="middle" x="742.14" y="-511.3" font-family="Times-Roman" font-size="14.00">preprocessing_files</text>
</g>
<!-- v12 -->
<g id="node17" class="node">
<title>v12</title>
<ellipse fill="black" stroke="black" cx="597.64" cy="-892" rx="3.6" ry="3.6"/>
<text text-anchor="middle" x="547.04" y="-899.4" font-family="Times-Roman" font-size="14.00">Channel.from</text>
</g>
<!-- v12&#45;&gt;v13 -->
<g id="edge14" class="edge">
<title>v12&#45;&gt;v13</title>
<path fill="none" stroke="black" d="M597.64,-888.32C597.64,-879.42 597.64,-850.44 597.64,-833.37"/>
<polygon fill="black" stroke="black" points="601.14,-833.18 597.64,-823.18 594.14,-833.18 601.14,-833.18"/>
<text text-anchor="middle" x="635.14" y="-844.8" font-family="Times-Roman" font-size="14.00">cluster_ids</text>
</g>
<!-- v15 -->
<g id="node19" class="node">
<title>v15</title>
<ellipse fill="none" stroke="black" cx="648.64" cy="-674.5" rx="3.5" ry="3.5"/>
<text text-anchor="middle" x="622.64" y="-681.8" font-family="Times-Roman" font-size="14.00">collect</text>
</g>
<!-- v14&#45;&gt;v15 -->
<g id="edge17" class="edge">
<title>v14&#45;&gt;v15</title>
<path fill="none" stroke="black" d="M657.73,-728.93C655.6,-716.38 652.74,-699.59 650.8,-688.2"/>
<polygon fill="black" stroke="black" points="654.22,-687.43 649.09,-678.16 647.32,-688.61 654.22,-687.43"/>
</g>
<!-- v15&#45;&gt;v16 -->
<g id="edge18" class="edge">
<title>v15&#45;&gt;v16</title>
<path fill="none" stroke="black" d="M647.59,-671.09C645.18,-665.09 639.81,-649.19 645.64,-638 648.05,-633.36 651.4,-629.21 655.22,-625.53"/>
<polygon fill="black" stroke="black" points="657.59,-628.11 663.04,-619.03 653.11,-622.73 657.59,-628.11"/>
<text text-anchor="middle" x="696.64" y="-641.8" font-family="Times-Roman" font-size="14.00">clustered_data</text>
</g>
<!-- v17&#45;&gt;v34 -->
<g id="edge33" class="edge">
<title>v17&#45;&gt;v34</title>
<path fill="none" stroke="black" d="M875.61,-503.97C755.6,-490.57 561.43,-466.18 534.64,-446 463.74,-392.58 511.88,-329.06 450.64,-264.8 395.82,-207.29 309.93,-177.38 242.92,-162.05"/>
<polygon fill="black" stroke="black" points="243.28,-158.55 232.76,-159.81 241.77,-165.38 243.28,-158.55"/>
</g>
<!-- v17&#45;&gt;v44 -->
<g id="edge34" class="edge">
<title>v17&#45;&gt;v44</title>
<path fill="none" stroke="black" d="M1064.55,-503.73C1101.39,-498.11 1138.28,-490.02 1152.64,-479 1210.31,-434.73 1179.64,-402.54 1179.64,-244.3 1179.64,-244.3 1179.64,-244.3 1179.64,-144.6 1179.64,-101.48 1077.01,-80.12 983.55,-69.6"/>
<polygon fill="black" stroke="black" points="983.69,-66.1 973.37,-68.49 982.93,-73.06 983.69,-66.1"/>
</g>
<!-- v17&#45;&gt;v44 -->
<g id="edge67" class="edge">
<title>v17&#45;&gt;v44</title>
<path fill="none" stroke="black" d="M1081.03,-507.76C1112.87,-502.68 1146.77,-493.93 1175.64,-479 1203.55,-464.56 1225.64,-460.43 1225.64,-429 1225.64,-429 1225.64,-429 1225.64,-325.3 1225.64,-217.48 1250.67,-134.82 1150.64,-94.6 1120.71,-82.57 1052.35,-74.24 986.75,-68.73"/>
<polygon fill="black" stroke="black" points="986.93,-65.23 976.68,-67.91 986.36,-72.21 986.93,-65.23"/>
<text text-anchor="middle" x="1284.14" y="-279.1" font-family="Times-Roman" font-size="14.00">filtered_modules</text>
</g>
<!-- v37 -->
<g id="node21" class="node">
<title>v37</title>
<ellipse fill="none" stroke="black" cx="940.64" cy="-384.5" rx="3.5" ry="3.5"/>
<text text-anchor="middle" x="964.64" y="-391.8" font-family="Times-Roman" font-size="14.00">ifEmpty</text>
</g>
<!-- v17&#45;&gt;v37 -->
<g id="edge23" class="edge">
<title>v17&#45;&gt;v37</title>
<path fill="none" stroke="black" d="M946.95,-497.07C941.57,-491.94 936.57,-485.82 933.64,-479 921.92,-451.79 930.4,-416.01 936.28,-397.6"/>
<polygon fill="black" stroke="black" points="939.66,-398.54 939.66,-387.95 933.05,-396.23 939.66,-398.54"/>
</g>
<!-- v38 -->
<g id="node22" class="node">
<title>v38</title>
<ellipse fill="none" stroke="black" cx="1109.64" cy="-326.3" rx="3.5" ry="3.5"/>
<text text-anchor="middle" x="1133.64" y="-333.6" font-family="Times-Roman" font-size="14.00">ifEmpty</text>
</g>
<!-- v17&#45;&gt;v38 -->
<g id="edge24" class="edge">
<title>v17&#45;&gt;v38</title>
<path fill="none" stroke="black" d="M985.53,-496.89C990.2,-491.31 995.27,-485 999.64,-479 1031.29,-435.55 1032.04,-419.74 1064.64,-377 1075.98,-362.13 1090.81,-346.35 1100.28,-336.66"/>
<polygon fill="black" stroke="black" points="1102.87,-339.02 1107.43,-329.46 1097.9,-334.09 1102.87,-339.02"/>
</g>
<!-- v39 -->
<g id="node23" class="node">
<title>v39</title>
<ellipse fill="none" stroke="black" cx="1095.64" cy="-243.3" rx="3.5" ry="3.5"/>
<text text-anchor="middle" x="1064.64" y="-250.6" font-family="Times-Roman" font-size="14.00">ifEmpty</text>
</g>
<!-- v17&#45;&gt;v39 -->
<g id="edge25" class="edge">
<title>v17&#45;&gt;v39</title>
<path fill="none" stroke="black" d="M996.89,-497.31C1004.57,-491.89 1012.75,-485.57 1019.64,-479 1057.87,-442.53 1113.99,-336.08 1114.64,-333.8 1122.44,-306.23 1109.81,-273.08 1101.67,-255.9"/>
<polygon fill="black" stroke="black" points="1104.71,-254.15 1097.06,-246.82 1098.47,-257.32 1104.71,-254.15"/>
</g>
<!-- v25 -->
<g id="node24" class="node">
<title>v25</title>
<ellipse fill="none" stroke="black" cx="839.64" cy="-428" rx="3.5" ry="3.5"/>
<text text-anchor="middle" x="823.14" y="-435.3" font-family="Times-Roman" font-size="14.00">mix</text>
</g>
<!-- v17&#45;&gt;v25 -->
<g id="edge26" class="edge">
<title>v17&#45;&gt;v25</title>
<path fill="none" stroke="black" d="M895.44,-500.91C881.01,-495.82 866.92,-488.76 855.64,-479 843.95,-468.89 837.13,-452.01 835.81,-440.69"/>
<polygon fill="black" stroke="black" points="839.32,-440.81 836.97,-430.48 832.36,-440.02 839.32,-440.81"/>
</g>
<!-- v17&#45;&gt;v25 -->
<g id="edge27" class="edge">
<title>v17&#45;&gt;v25</title>
<path fill="none" stroke="black" d="M909.15,-499.47C896.47,-494.51 883.9,-487.87 873.64,-479 861.22,-468.26 854.29,-449.87 848.43,-438.64"/>
<polygon fill="black" stroke="black" points="851.1,-436.35 842.51,-430.14 845.35,-440.35 851.1,-436.35"/>
</g>
<!-- v17&#45;&gt;v41 -->
<g id="edge28" class="edge">
<title>v17&#45;&gt;v41</title>
<path fill="none" stroke="black" d="M967.09,-496.84C960.64,-464.05 947.64,-390.17 947.64,-327.3 947.64,-327.3 947.64,-327.3 947.64,-217.2 947.64,-202.93 947.64,-187.04 947.64,-173.96"/>
<polygon fill="black" stroke="black" points="951.14,-173.72 947.64,-163.72 944.14,-173.72 951.14,-173.72"/>
</g>
<!-- v17&#45;&gt;v41 -->
<g id="edge61" class="edge">
<title>v17&#45;&gt;v41</title>
<path fill="none" stroke="black" d="M975.47,-496.9C979.85,-479.85 985.64,-452.83 985.64,-429 985.64,-429 985.64,-429 985.64,-217.2 985.64,-200.8 977.59,-184.54 968.9,-171.77"/>
<polygon fill="black" stroke="black" points="971.6,-169.53 962.87,-163.53 965.95,-173.66 971.6,-169.53"/>
<text text-anchor="middle" x="1043.14" y="-322.6" font-family="Times-Roman" font-size="14.00">filtered_modules</text>
</g>
<!-- v21 -->
<g id="node26" class="node">
<title>v21</title>
<ellipse fill="black" stroke="black" cx="1091.64" cy="-428" rx="1.8" ry="1.8"/>
</g>
<!-- v17&#45;&gt;v21 -->
<g id="edge29" class="edge">
<title>v17&#45;&gt;v21</title>
<path fill="none" stroke="black" d="M1037.44,-499.94C1049.92,-494.93 1062.04,-488.16 1071.64,-479 1082.67,-468.47 1087.76,-451.06 1090.01,-439.81"/>
<polygon fill="black" stroke="black" points="1093.48,-440.26 1091.56,-429.84 1086.56,-439.18 1093.48,-440.26"/>
</g>
<!-- v20 -->
<g id="node27" class="node">
<title>v20</title>
<ellipse fill="black" stroke="black" cx="1113.64" cy="-428" rx="1.8" ry="1.8"/>
</g>
<!-- v17&#45;&gt;v20 -->
<g id="edge30" class="edge">
<title>v17&#45;&gt;v20</title>
<path fill="none" stroke="black" d="M1050.89,-501.49C1065.65,-496.37 1080.04,-489.15 1091.64,-479 1103.28,-468.81 1109.02,-451.31 1111.65,-439.94"/>
<polygon fill="black" stroke="black" points="1115.14,-440.33 1113.53,-429.85 1108.26,-439.04 1115.14,-440.33"/>
</g>
<!-- v17&#45;&gt;v22 -->
<g id="edge31" class="edge">
<title>v17&#45;&gt;v22</title>
<path fill="none" stroke="black" d="M915.75,-498.9C862.66,-484.3 782.22,-462.17 726.11,-446.73"/>
<polygon fill="black" stroke="black" points="726.84,-443.31 716.27,-444.03 724.99,-450.06 726.84,-443.31"/>
</g>
<!-- v19 -->
<g id="node29" class="node">
<title>v19</title>
<ellipse fill="black" stroke="black" cx="1135.64" cy="-428" rx="1.8" ry="1.8"/>
</g>
<!-- v17&#45;&gt;v19 -->
<g id="edge32" class="edge">
<title>v17&#45;&gt;v19</title>
<path fill="none" stroke="black" d="M1062.99,-503.41C1080.48,-498.14 1097.65,-490.39 1111.64,-479 1123.95,-468.97 1130.36,-451.11 1133.36,-439.67"/>
<polygon fill="black" stroke="black" points="1136.79,-440.38 1135.5,-429.86 1129.95,-438.89 1136.79,-440.38"/>
</g>
<!-- v18 -->
<g id="node30" class="node">
<title>v18</title>
<ellipse fill="black" stroke="black" cx="1157.64" cy="-428" rx="1.8" ry="1.8"/>
</g>
<!-- v17&#45;&gt;v18 -->
<g id="edge35" class="edge">
<title>v17&#45;&gt;v18</title>
<path fill="none" stroke="black" d="M1073.56,-505.57C1094.27,-500.2 1114.82,-491.85 1131.64,-479 1144.46,-469.2 1151.55,-451.27 1154.97,-439.76"/>
<polygon fill="black" stroke="black" points="1158.42,-440.42 1157.47,-429.87 1151.63,-438.71 1158.42,-440.42"/>
</g>
<!-- v17&#45;&gt;v28 -->
<g id="edge42" class="edge">
<title>v17&#45;&gt;v28</title>
<path fill="none" stroke="black" d="M947.61,-497.26C940.37,-491.69 932.48,-485.3 925.64,-479 886.99,-443.42 870.53,-438.26 845.64,-392 829.66,-362.3 842.76,-347.85 825.64,-318.8 823.46,-315.11 820.81,-311.5 817.97,-308.1"/>
<polygon fill="black" stroke="black" points="820.43,-305.6 811.1,-300.58 815.26,-310.32 820.43,-305.6"/>
<text text-anchor="middle" x="886.64" y="-380.8" font-family="Times-Roman" font-size="14.00">viewer_files</text>
</g>
<!-- v37&#45;&gt;v41 -->
<g id="edge56" class="edge">
<title>v37&#45;&gt;v41</title>
<path fill="none" stroke="black" d="M938.6,-381.58C931.71,-374.83 909.64,-351.37 909.64,-327.3 909.64,-327.3 909.64,-327.3 909.64,-217.2 909.64,-200.8 917.69,-184.54 926.37,-171.77"/>
<polygon fill="black" stroke="black" points="929.32,-173.66 932.4,-163.53 923.67,-169.53 929.32,-173.66"/>
</g>
<!-- v38&#45;&gt;v41 -->
<g id="edge57" class="edge">
<title>v38&#45;&gt;v41</title>
<path fill="none" stroke="black" d="M1108.09,-322.69C1099.12,-307.65 1052.27,-231.12 999.64,-181.6 994.96,-177.2 989.67,-172.96 984.3,-169.05"/>
<polygon fill="black" stroke="black" points="986.09,-166.03 975.88,-163.2 982.09,-171.78 986.09,-166.03"/>
</g>
<!-- v39&#45;&gt;v41 -->
<g id="edge58" class="edge">
<title>v39&#45;&gt;v41</title>
<path fill="none" stroke="black" d="M1094.66,-239.79C1090.94,-230.57 1076.77,-198.3 1054.64,-181.6 1045.25,-174.52 1034.37,-168.83 1023.21,-164.28"/>
<polygon fill="black" stroke="black" points="1024.39,-160.98 1013.8,-160.71 1021.91,-167.53 1024.39,-160.98"/>
</g>
<!-- v26 -->
<g id="node33" class="node">
<title>v26</title>
<ellipse fill="none" stroke="black" cx="823.64" cy="-355.4" rx="3.5" ry="3.5"/>
<text text-anchor="middle" x="797.64" y="-362.7" font-family="Times-Roman" font-size="14.00">collect</text>
</g>
<!-- v25&#45;&gt;v26 -->
<g id="edge40" class="edge">
<title>v25&#45;&gt;v26</title>
<path fill="none" stroke="black" d="M838.93,-424.47C837.34,-418.72 833.41,-404.24 830.64,-392 828.92,-384.42 827.23,-375.87 825.94,-369.05"/>
<polygon fill="black" stroke="black" points="829.34,-368.2 824.1,-359 822.46,-369.47 829.34,-368.2"/>
</g>
<!-- v41&#45;&gt;v44 -->
<g id="edge64" class="edge">
<title>v41&#45;&gt;v44</title>
<path fill="none" stroke="black" d="M925.11,-127.81C907.82,-114.91 883.74,-96.96 864.62,-82.7"/>
<polygon fill="black" stroke="black" points="866.61,-79.82 856.5,-76.65 862.43,-85.43 866.61,-79.82"/>
</g>
<!-- v24 -->
<g id="node31" class="node">
<title>v24</title>
<ellipse fill="black" stroke="black" cx="652.64" cy="-355.4" rx="1.8" ry="1.8"/>
</g>
<!-- v22&#45;&gt;v24 -->
<g id="edge38" class="edge">
<title>v22&#45;&gt;v24</title>
<path fill="none" stroke="black" d="M659.46,-409.91C657.76,-396.6 655.46,-378.52 654.01,-367.16"/>
<polygon fill="black" stroke="black" points="657.48,-366.7 652.74,-357.22 650.53,-367.59 657.48,-366.7"/>
</g>
<!-- v23 -->
<g id="node32" class="node">
<title>v23</title>
<ellipse fill="black" stroke="black" cx="628.64" cy="-355.4" rx="1.8" ry="1.8"/>
</g>
<!-- v22&#45;&gt;v23 -->
<g id="edge39" class="edge">
<title>v22&#45;&gt;v23</title>
<path fill="none" stroke="black" d="M653.65,-409.91C647.29,-396.3 638.6,-377.72 633.32,-366.41"/>
<polygon fill="black" stroke="black" points="636.43,-364.8 629.02,-357.22 630.09,-367.76 636.43,-364.8"/>
</g>
<!-- v26&#45;&gt;v28 -->
<g id="edge41" class="edge">
<title>v26&#45;&gt;v28</title>
<path fill="none" stroke="black" d="M822.57,-352.05C819.6,-345.49 810.94,-326.38 803.53,-310.05"/>
<polygon fill="black" stroke="black" points="806.69,-308.53 799.37,-300.87 800.31,-311.42 806.69,-308.53"/>
</g>
<!-- v31 -->
<g id="node36" class="node">
<title>v31</title>
<ellipse fill="black" stroke="black" cx="841.64" cy="-218.2" rx="1.8" ry="1.8"/>
</g>
<!-- v28&#45;&gt;v31 -->
<g id="edge46" class="edge">
<title>v28&#45;&gt;v31</title>
<path fill="none" stroke="black" d="M806.57,-264.94C811.47,-259.26 816.88,-252.83 821.64,-246.8 826.34,-240.84 831.35,-233.93 835.18,-228.51"/>
<polygon fill="black" stroke="black" points="838.07,-230.48 840.9,-220.28 832.32,-226.49 838.07,-230.48"/>
</g>
<!-- v32 -->
<g id="node37" class="node">
<title>v32</title>
<ellipse fill="none" stroke="black" cx="625.64" cy="-218.2" rx="3.5" ry="3.5"/>
<text text-anchor="middle" x="594.64" y="-225.5" font-family="Times-Roman" font-size="14.00">ifEmpty</text>
</g>
<!-- v28&#45;&gt;v32 -->
<g id="edge47" class="edge">
<title>v28&#45;&gt;v32</title>
<path fill="none" stroke="black" d="M751.45,-266.65C714.52,-252.72 662.01,-232.92 638.22,-223.94"/>
<polygon fill="black" stroke="black" points="639.22,-220.58 628.63,-220.33 636.75,-227.13 639.22,-220.58"/>
</g>
<!-- v30 -->
<g id="node38" class="node">
<title>v30</title>
<ellipse fill="black" stroke="black" cx="793.64" cy="-218.2" rx="1.8" ry="1.8"/>
</g>
<!-- v28&#45;&gt;v30 -->
<g id="edge48" class="edge">
<title>v28&#45;&gt;v30</title>
<path fill="none" stroke="black" d="M792.18,-264.69C792.53,-253.8 792.97,-239.99 793.28,-230.46"/>
<polygon fill="black" stroke="black" points="796.78,-230.5 793.6,-220.39 789.78,-230.28 796.78,-230.5"/>
</g>
<!-- v29 -->
<g id="node39" class="node">
<title>v29</title>
<ellipse fill="black" stroke="black" cx="816.64" cy="-218.2" rx="1.8" ry="1.8"/>
</g>
<!-- v28&#45;&gt;v29 -->
<g id="edge49" class="edge">
<title>v28&#45;&gt;v29</title>
<path fill="none" stroke="black" d="M798.47,-264.69C802.92,-253.54 808.59,-239.35 812.4,-229.8"/>
<polygon fill="black" stroke="black" points="815.7,-230.98 816.16,-220.39 809.2,-228.38 815.7,-230.98"/>
</g>
<!-- v40 -->
<g id="node43" class="node">
<title>v40</title>
<ellipse fill="none" stroke="black" cx="874.64" cy="-218.2" rx="3.5" ry="3.5"/>
<text text-anchor="middle" x="843.64" y="-225.5" font-family="Times-Roman" font-size="14.00">ifEmpty</text>
</g>
<!-- v28&#45;&gt;v40 -->
<g id="edge59" class="edge">
<title>v28&#45;&gt;v40</title>
<path fill="none" stroke="black" d="M814.16,-265.13C821.93,-259.35 830.68,-252.81 838.64,-246.8 847.35,-240.22 857.19,-232.67 864.37,-227.13"/>
<polygon fill="black" stroke="black" points="866.59,-229.84 872.37,-220.95 862.32,-224.3 866.59,-229.84"/>
</g>
<!-- v42 -->
<g id="node44" class="node">
<title>v42</title>
<ellipse fill="none" stroke="black" cx="772.64" cy="-189.1" rx="3.5" ry="3.5"/>
<text text-anchor="middle" x="741.64" y="-196.4" font-family="Times-Roman" font-size="14.00">ifEmpty</text>
</g>
<!-- v28&#45;&gt;v42 -->
<g id="edge65" class="edge">
<title>v28&#45;&gt;v42</title>
<path fill="none" stroke="black" d="M788.06,-264.55C784.33,-246.54 778.57,-218.72 775.24,-202.68"/>
<polygon fill="black" stroke="black" points="778.64,-201.83 773.19,-192.75 771.79,-203.25 778.64,-201.83"/>
</g>
<!-- v27 -->
<g id="node35" class="node">
<title>v27</title>
<ellipse fill="black" stroke="black" cx="675.64" cy="-355.4" rx="3.6" ry="3.6"/>
</g>
<!-- v27&#45;&gt;v28 -->
<g id="edge45" class="edge">
<title>v27&#45;&gt;v28</title>
<path fill="none" stroke="black" d="M673.93,-351.86C669.94,-345.57 660.89,-329.05 668.64,-318.8 675.13,-310.2 694.41,-303.08 715.82,-297.57"/>
<polygon fill="black" stroke="black" points="716.89,-300.91 725.78,-295.15 715.23,-294.11 716.89,-300.91"/>
<text text-anchor="middle" x="723.14" y="-322.6" font-family="Times-Roman" font-size="14.00">regulator_types</text>
</g>
<!-- v32&#45;&gt;v34 -->
<g id="edge50" class="edge">
<title>v32&#45;&gt;v34</title>
<path fill="none" stroke="black" d="M622.48,-216.4C605.7,-212.2 525.36,-192.39 458.64,-181.6 396.12,-171.49 326.15,-163.4 268.06,-157.55"/>
<polygon fill="black" stroke="black" points="268.4,-154.07 258.1,-156.56 267.71,-161.03 268.4,-154.07"/>
</g>
<!-- v33 -->
<g id="node40" class="node">
<title>v33</title>
<ellipse fill="black" stroke="black" cx="148.64" cy="-218.2" rx="3.6" ry="3.6"/>
</g>
<!-- v33&#45;&gt;v34 -->
<g id="edge53" class="edge">
<title>v33&#45;&gt;v34</title>
<path fill="none" stroke="black" d="M148.45,-214.52C147.97,-207.85 146.7,-189.9 145.59,-174.13"/>
<polygon fill="black" stroke="black" points="149.05,-173.45 144.85,-163.73 142.07,-173.95 149.05,-173.45"/>
<text text-anchor="middle" x="202.14" y="-185.4" font-family="Times-Roman" font-size="14.00">regulator_types</text>
</g>
<!-- v40&#45;&gt;v41 -->
<g id="edge60" class="edge">
<title>v40&#45;&gt;v41</title>
<path fill="none" stroke="black" d="M875.64,-214.71C878.22,-208.53 885.6,-192.25 895.64,-181.6 899.8,-177.19 904.61,-173.03 909.59,-169.24"/>
<polygon fill="black" stroke="black" points="911.95,-171.86 918.06,-163.21 907.88,-166.16 911.95,-171.86"/>
</g>
<!-- v42&#45;&gt;v44 -->
<g id="edge66" class="edge">
<title>v42&#45;&gt;v44</title>
<path fill="none" stroke="black" d="M773.91,-185.42C779.89,-172.82 805.54,-118.79 821.21,-85.77"/>
<polygon fill="black" stroke="black" points="824.41,-87.2 825.54,-76.66 818.09,-84.2 824.41,-87.2"/>
</g>
<!-- v43 -->
<g id="node45" class="node">
<title>v43</title>
<ellipse fill="black" stroke="black" cx="348.64" cy="-145.6" rx="3.6" ry="3.6"/>
</g>
<!-- v43&#45;&gt;v44 -->
<g id="edge70" class="edge">
<title>v43&#45;&gt;v44</title>
<path fill="none" stroke="black" d="M347.59,-141.86C344.6,-133.48 336.97,-107.95 349.64,-94.6 370.99,-72.1 527.99,-63.9 657.48,-61"/>
<polygon fill="black" stroke="black" points="657.61,-64.5 667.54,-60.79 657.46,-57.5 657.61,-64.5"/>
<text text-anchor="middle" x="404.14" y="-98.4" font-family="Times-Roman" font-size="14.00">regulator_types</text>
</g>
</g>
</svg>
